<svg viewBox="0 0 52 49" fill="none" xmlns="http://www.w3.org/2000/svg">
<path d="M44.8 22.88C43.9513 22.88 43.1374 23.2171 42.5372 23.8172C41.9371 24.4174 41.6 25.2313 41.6 26.08V39.552C41.6 40.2224 41.3336 40.8655 40.8595 41.3395C40.3855 41.8136 39.7424 42.08 39.072 42.08H8.92799C8.25753 42.08 7.61452 41.8136 7.14043 41.3395C6.66634 40.8655 6.4 40.2224 6.4 39.552V22.88H35.2C36.0487 22.88 36.8626 22.5428 37.4627 21.9427C38.0628 21.3426 38.4 20.5287 38.4 19.68C38.4 18.8313 38.0628 18.0174 37.4627 17.4172C36.8626 16.8171 36.0487 16.48 35.2 16.48H6.4V12.608C6.40829 11.9401 6.6773 11.3019 7.14961 10.8296C7.62191 10.3573 8.26011 10.0883 8.92799 10.08H25.6C26.4487 10.08 27.2626 9.74284 27.8627 9.14272C28.4628 8.54261 28.8 7.72867 28.8 6.87998C28.8 6.03129 28.4628 5.21736 27.8627 4.61724C27.2626 4.01712 26.4487 3.67998 25.6 3.67998H8.92799C6.56274 3.68841 4.29676 4.63175 2.62426 6.30425C0.951765 7.97675 0.00843237 10.2427 0 12.608L0 39.552C0 41.9198 0.940625 44.1907 2.61495 45.865C4.28927 47.5394 6.56014 48.48 8.92799 48.48H39.072C41.4398 48.48 43.7107 47.5394 45.385 45.865C47.0593 44.1907 48 41.9198 48 39.552V26.08C48 25.2313 47.6628 24.4174 47.0627 23.8172C46.4626 23.2171 45.6487 22.88 44.8 22.88Z" fill="#2AA467"/>
<path d="M42.7522 18.368C42.7695 15.9989 43.6288 13.7131 45.1764 11.9193C46.7241 10.1255 48.8592 8.94043 51.2002 8.576C48.8473 8.50252 46.5955 7.60268 44.84 6.03443C43.0845 4.46617 41.9375 2.3297 41.6002 0C41.5781 2.38808 40.7007 4.68914 39.1273 6.4857C37.5538 8.28227 35.3885 9.45531 33.0242 9.792C35.3993 9.83569 37.6816 10.7221 39.4635 12.293C41.2454 13.864 42.411 16.0171 42.7522 18.368Z" fill="#2AA467"/>
</svg>