<svg width="52" height="65" viewBox="0 0 52 65" fill="none" xmlns="http://www.w3.org/2000/svg">
<path d="M13.4053 8.76689C15.8977 9.23773 18.0827 11.7949 18.9567 15.2613C19.0861 11.6894 20.6884 8.76689 23.0028 7.75215C20.5104 7.27319 18.3335 4.72415 17.4596 1.25778C17.322 4.8378 15.7197 7.75215 13.4134 8.77502L13.4053 8.76689Z" fill="#7251B5"/>
<path d="M51.1719 44.5103C51.0991 44.7214 51.0101 44.9405 50.913 45.1516L50.6217 45.7686L49.2702 48.6748C46.0784 55.5949 40.3561 61.0185 33.288 63.8229C31.2024 64.6608 28.9383 64.9514 26.7096 64.6673C24.4809 64.3832 22.3612 63.5338 20.5508 62.1993L13.2192 56.8496C9.42964 54.0824 6.68347 50.1116 5.42635 45.5818C3.83715 39.8349 3.56055 33.8024 4.61712 27.9334C4.70827 27.2771 4.75423 26.6153 4.75468 25.9526C4.8004 22.5072 4.23037 19.0814 3.07152 15.8377L0.21493 7.71971C0.0578755 7.44532 -0.0158452 7.13086 0.00284438 6.81501C0.021534 6.49916 0.131823 6.1957 0.320134 5.94187C0.487139 5.72989 0.701797 5.56055 0.946514 5.44768C1.19123 5.33481 1.45905 5.28162 1.72818 5.29245C2.86023 5.31002 3.97261 5.59207 4.97699 6.11628C5.98136 6.6405 6.85009 7.39242 7.51417 8.31231C9.64927 11.2714 11.1383 14.6489 11.884 18.2244L12.0458 19.0361C12.1644 19.6461 12.415 20.2225 12.78 20.7247C13.1449 21.2269 13.6153 21.6425 14.1579 21.9423C14.9583 22.3691 15.8761 22.5208 16.7706 22.3742C17.6651 22.2275 18.4871 21.7907 19.1104 21.1305L37.933 1.03052C38.2667 0.67748 38.674 0.402726 39.1258 0.225907C39.5777 0.0490893 40.0629 -0.025436 40.5468 0.0076481L41.6959 0.0888079C42.2737 0.124507 42.8314 0.315029 43.3109 0.640476C43.7903 0.965924 44.174 1.41439 44.4219 1.93918C44.6699 2.46397 44.773 3.04586 44.7205 3.62421C44.668 4.20257 44.4619 4.75623 44.1236 5.22749L34.1215 19.6612C33.4722 19.6798 32.8267 19.7668 32.1956 19.921C30.9123 20.2322 29.6989 20.783 28.6188 21.5446L22.6548 25.701C21.4844 26.5142 20.6186 27.6965 20.1948 29.06C19.7711 30.4235 19.8138 31.89 20.3161 33.2263C20.8583 34.6578 21.8872 35.851 23.2212 36.5953C22.6977 37.3552 22.3305 38.2121 22.141 39.116C21.9515 40.0199 21.9436 40.9527 22.1176 41.8597C22.2917 42.7667 22.6442 43.6298 23.1547 44.3986C23.6652 45.1673 24.3232 45.8263 25.0905 46.3369C25.9256 46.8741 26.8984 47.1562 27.8905 47.1486C28.2663 47.146 28.6407 47.1024 29.0072 47.0187C28.9713 47.7772 29.104 48.5342 29.3956 49.2349C29.7773 50.1645 30.4256 50.9595 31.2584 51.5188C32.0911 52.0782 33.0708 52.3768 34.073 52.3766C34.4626 52.3743 34.8508 52.328 35.2302 52.2386C37.085 51.8092 38.8696 51.1177 40.5306 50.1848L45.3859 47.4246C45.5811 47.3139 45.7391 47.1476 45.8399 46.9467C45.9407 46.7458 45.9799 46.5194 45.9524 46.2962C45.9323 46.0852 45.8507 45.8847 45.7178 45.7199C45.5399 45.5075 45.2929 45.365 45.0205 45.3175C44.7481 45.27 44.4677 45.3205 44.2288 45.4601L39.3734 48.1958C37.9049 49.0304 36.3241 49.6483 34.6799 50.0305C34.1064 50.1652 33.5053 50.116 32.9611 49.8901C32.4169 49.6641 31.957 49.2727 31.6462 48.7709C31.3353 48.2691 31.1891 47.6821 31.2281 47.0926C31.2672 46.503 31.4895 45.9406 31.8638 45.4844L32.1146 45.3059C32.3021 45.1742 32.4436 44.9867 32.5192 44.77L34.8256 42.3347L42.149 34.5009C42.5634 34.0511 43.0879 33.718 43.6704 33.5348C44.1912 33.3601 44.7461 33.3128 45.2888 33.3968C46.196 33.5201 47.0703 33.8207 47.8622 34.2817C48.9067 34.8927 49.7807 35.7583 50.4032 36.7982C51.104 37.9418 51.5372 39.2299 51.6704 40.5657C51.8035 41.9015 51.6331 43.2501 51.1719 44.5103Z" fill="#7251B5"/>
<path d="M41.3641 25.8471C40.4199 25.7049 39.4598 25.7049 38.5156 25.8471C37.0617 26.0738 35.6782 26.6289 34.4695 27.4706L33.9597 27.8441L24.9449 34.8499C24.3806 34.6471 23.8665 34.3245 23.4378 33.9042C23.009 33.4839 22.6757 32.9758 22.4606 32.4145C22.1344 31.5497 22.1062 30.6003 22.3804 29.7175C22.6547 28.8348 23.2156 28.0695 23.9738 27.5437L29.9459 23.3873C30.7911 22.7917 31.7412 22.362 32.7458 22.1209C33.8071 21.8641 34.911 21.8392 35.9827 22.0479C37.0915 22.2771 38.1414 22.7327 39.0671 23.3863C39.9929 24.0398 40.7748 24.8774 41.3641 25.8471Z" fill="#7251B5"/>
<path d="M46.535 31.3348C46.2528 31.2608 45.9663 31.2039 45.6773 31.1644C44.5764 31.0087 43.4541 31.1691 42.4404 31.6271C41.7401 31.9498 41.1083 32.4045 40.5792 32.9665L30.4153 43.8446L29.7113 44.3479C29.2283 44.6989 28.6513 44.8959 28.0552 44.9133C27.4591 44.9307 26.8716 44.7676 26.3691 44.4454C25.7551 44.0336 25.2473 43.4814 24.8877 42.8342C24.5281 42.187 24.327 41.4633 24.3009 40.7229C24.2749 39.9824 24.4245 39.2462 24.7377 38.5752C25.0509 37.9041 25.5185 37.3173 26.1021 36.8632L30.739 33.2669L35.4244 29.6219C35.5512 29.5174 35.6835 29.4199 35.8209 29.3297C37.0538 28.476 38.5146 28.0149 40.0127 28.0065C40.4599 28.0056 40.9064 28.0409 41.3479 28.112L41.8011 28.2013C43.7008 28.6468 45.3795 29.758 46.535 31.3348Z" fill="#7251B5"/>
</svg>
