<svg viewBox="0 0 601 700" fill="none" xmlns="http://www.w3.org/2000/svg">
<g clip-path="url(#clip0_340_611)">
<path d="M455.779 342.633C448.238 363.579 450.752 391.229 450.752 391.229L427.074 426.754L428.515 397.177C428.641 394.621 427.818 392.108 426.203 390.122C424.588 388.136 422.296 386.817 419.768 386.419L409.06 384.744L410.535 384.559L413.886 359.424C413.596 356.072 413.456 352.721 413.467 349.369C413.469 339.399 414.69 329.467 417.103 319.793L418.628 313.694C418.779 313.124 418.93 312.537 419.114 312.018C419.299 311.498 419.382 311.18 419.533 310.761C419.644 310.408 419.773 310.062 419.919 309.722C420.053 309.353 420.204 309.002 420.371 308.633C420.539 308.264 420.79 307.678 421.025 307.209C421.052 307.144 421.085 307.082 421.125 307.024C421.355 306.525 421.613 306.038 421.896 305.566C422.181 305.064 422.482 304.561 422.784 304.075C422.792 304.048 422.792 304.019 422.784 303.991C423.086 303.522 423.404 303.07 423.723 302.634C424.041 302.198 424.41 301.695 424.778 301.243C425.056 300.876 425.352 300.524 425.666 300.187L426.203 299.584L426.906 298.83L427.191 298.545L428.18 297.607C428.699 297.121 429.252 296.652 429.855 296.199C430.639 295.564 431.456 294.971 432.302 294.423C432.428 294.761 432.585 295.086 432.771 295.395C433.912 297.122 435.409 298.584 437.162 299.685C446.496 306.138 457.863 308.968 469.134 307.644C469.654 307.644 470.173 307.51 470.693 307.426L455.779 342.633Z" fill="#6247AA"/>
<path d="M29.1279 525.875C41.1093 529.964 52.1189 548.883 57.1795 574.052C56.8779 548.38 63.6978 527.585 74.5732 521.1C62.5919 517.011 51.5657 498.092 46.5218 472.923C46.8234 498.595 39.9865 519.39 29.1279 525.875Z" fill="white"/>
<path d="M400.631 42.7139C409.982 47.9086 416.299 65.3193 416.701 87.0365C420.321 65.6209 429.152 49.333 439.173 45.5794C429.822 40.3847 423.505 22.974 423.103 1.25684C419.483 22.6724 410.652 38.9603 400.631 42.7139Z" fill="white"/>
<path d="M494.32 242.09L489.293 247.117C487.613 248.63 485.857 250.056 484.031 251.39L483.545 266.857L482.858 288.641V290.317C476.025 293.947 468.375 295.765 460.638 295.595C455.398 295.429 450.254 294.137 445.557 291.808C443.255 290.585 441.087 289.125 439.089 287.451C438.635 287.07 438.111 286.78 437.547 286.597L440.899 275.638L444.92 262.584C466.705 265.416 470.944 252.161 470.944 252.161C465.699 257.104 454.405 256.283 447.216 255.144C441.921 253.635 435.955 251.541 429.034 248.876C397.782 236.862 421.712 189.59 423.873 185.484L424.074 185.602L424.242 185.199L432.386 166.767C465.8 161.991 485.891 182.736 492.209 190.629C493.618 192.39 494.28 194.635 494.052 196.879L491.237 224.813L501.811 211.877C501.998 211.641 502.2 211.418 502.414 211.207C502.796 210.845 503.212 210.52 503.654 210.235L504.408 209.816C505.562 209.269 506.838 209.032 508.111 209.129H508.312H508.681H508.832L509.72 209.296C510.118 209.382 510.51 209.494 510.893 209.631C511.196 209.731 511.492 209.849 511.781 209.983L512.15 210.151C512.438 210.285 512.718 210.436 512.988 210.603C528.304 234.633 494.32 242.09 494.32 242.09Z" stroke="white" stroke-width="2.51357" stroke-linecap="round" stroke-linejoin="round"/>
<path d="M431.699 192.623C430.023 191.652 429.755 188.903 431.146 186.507C432.537 184.111 435.034 182.938 436.726 183.926C438.419 184.915 438.67 187.647 437.279 190.043C435.888 192.439 433.391 193.612 431.699 192.623Z" stroke="white" stroke-width="2.51357" stroke-linecap="round" stroke-linejoin="round"/>
<path d="M444.837 262.567L447.133 255.127C454.321 256.267 465.565 257.088 470.861 252.145C470.861 252.145 466.705 265.433 444.837 262.567Z" stroke="white" stroke-width="2.51357" stroke-linecap="round" stroke-linejoin="round"/>
<path d="M459.315 193.947C459.688 193.229 460.258 192.633 460.958 192.227C461.657 191.821 462.458 191.624 463.266 191.657C464.075 191.69 464.857 191.953 465.521 192.415C466.185 192.876 466.704 193.517 467.017 194.263C467.33 195.009 467.423 195.829 467.287 196.626C467.151 197.423 466.791 198.165 466.248 198.765C465.705 199.365 465.003 199.798 464.223 200.013C463.444 200.228 462.619 200.216 461.845 199.979C460.718 199.505 459.822 198.607 459.349 197.479C458.876 196.352 458.864 195.083 459.315 193.947Z" stroke="white" stroke-width="2.51357" stroke-linecap="round" stroke-linejoin="round"/>
<path d="M502.347 211.123C502.72 210.752 503.137 210.425 503.587 210.151C503.144 210.436 502.729 210.762 502.347 211.123Z" stroke="white" stroke-width="2.51357" stroke-linecap="round" stroke-linejoin="round"/>
<path d="M440.815 275.621L437.463 286.58C436.75 286.387 435.997 286.403 435.293 286.626C434.589 286.848 433.964 287.269 433.492 287.837C432.648 288.659 432.083 289.725 431.876 290.885C431.669 292.045 431.83 293.241 432.336 294.305C431.489 294.853 430.673 295.446 429.889 296.081C429.319 296.534 428.766 297.003 428.213 297.489L427.225 298.427L426.94 298.712L426.236 299.466L425.7 300.069C425.386 300.406 425.09 300.758 424.812 301.125C424.443 301.577 424.074 302.047 423.756 302.516C423.438 302.985 423.119 303.421 422.818 303.873C422.825 303.901 422.825 303.93 422.818 303.957C422.499 304.443 422.198 304.946 421.929 305.448C421.646 305.92 421.389 306.407 421.159 306.906C421.119 306.964 421.085 307.026 421.058 307.091C420.823 307.56 420.606 308.029 420.405 308.515C420.204 309.001 420.086 309.235 419.952 309.604C419.806 309.944 419.678 310.291 419.567 310.643C419.416 311.062 419.265 311.481 419.148 311.9C419.031 312.319 418.813 313.039 418.662 313.576L417.137 319.675C414.724 329.349 413.503 339.281 413.501 349.251C413.501 352.603 413.64 355.954 413.92 359.306L410.568 384.441L409.094 384.626L392.102 381.911L389.102 289.144L395.437 287.334L395.872 286.999C405.362 279.614 417.043 275.605 429.068 275.604H440.798L440.815 275.621Z" stroke="white" stroke-width="2.51357" stroke-linecap="round" stroke-linejoin="round"/>
<path d="M548.563 444.734C545.025 430.83 544.761 416.295 547.792 402.271L554.21 372.745C557.748 356.443 555.817 339.429 548.714 324.334L546.267 319.123L513.222 294.641L501.023 285.608L488.053 283.447C486.166 285.004 484.427 286.731 482.858 288.608V290.284L482.724 294.942V297.372L472.67 304.075L472.167 304.175L471.464 305.851L470.844 307.309L455.913 342.633C448.372 363.579 450.886 391.229 450.886 391.229L427.208 426.754L424.074 431.446L422.65 433.59L390.56 481.717C391.014 487.729 392.098 493.677 393.794 499.463L403.597 526.659L405.91 533.077L407.25 536.848C407.245 536.892 407.245 536.937 407.25 536.982L422.332 533.63L511.027 548.142C513.317 548.517 515.5 549.38 517.428 550.672L521.45 553.354C522.712 554.211 523.842 555.25 524.801 556.437C526.686 558.672 527.932 561.375 528.407 564.26C528.882 567.144 528.568 570.104 527.499 572.825L527.818 574.501L542.178 566.122C546.5 563.61 550.194 560.149 552.984 556.001C555.773 551.853 557.585 547.126 558.282 542.177C562.773 509.349 554.612 468.63 548.563 444.734ZM525.103 509.701C524.696 510.513 524.126 511.232 523.427 511.813L517.864 517.058C512.652 510.69 507.29 504.037 505.363 496.044C504.043 489.86 504.413 483.435 506.436 477.444C507.794 473.309 509.556 469.318 511.697 465.53C512.418 464.256 513.373 461.29 514.848 460.653C516.322 460.016 518.819 461.256 519.975 461.927C520.75 462.326 521.414 462.909 521.911 463.625C522.407 464.341 522.721 465.167 522.824 466.032C522.679 467.699 522.102 469.299 521.148 470.674C518.662 476.097 517.941 482.163 519.087 488.018C520.242 493.833 522.034 499.503 524.433 504.925C525.246 506.397 525.468 508.123 525.053 509.752L525.103 509.701Z" stroke="white" stroke-width="2.51357" stroke-linecap="round" stroke-linejoin="round"/>
<path d="M407.116 536.898C406.915 536.462 406.345 535.138 405.441 533.127C404.737 531.452 403.765 529.273 402.86 526.76C399.304 517.843 396.211 508.749 393.593 499.513L403.396 526.709L405.709 533.127L407.116 536.898Z" stroke="white" stroke-width="2.51357" stroke-linecap="round" stroke-linejoin="round"/>
<path d="M576.43 300.74C575.9 301.588 575.187 302.306 574.343 302.843C573.499 303.379 572.546 303.72 571.554 303.84H571.051C570.75 303.865 570.447 303.865 570.146 303.84C569.84 303.803 569.537 303.741 569.241 303.656C569.024 303.607 568.811 303.539 568.604 303.455C568.261 303.337 567.925 303.197 567.599 303.036L567.23 302.851C566.972 302.725 566.72 302.585 566.476 302.433L565.605 301.88C564.292 300.958 563.069 299.914 561.952 298.763C561.734 298.562 561.533 298.344 561.315 298.109C559.741 296.433 558.275 294.658 556.925 292.797L556.171 291.742C551.165 284.745 544.153 279.433 536.062 276.509C535.191 276.191 534.387 275.889 533.465 275.621L533.213 275.487L531.37 274.934C530.398 274.666 529.426 274.415 528.488 274.197L526.812 273.845C526.159 273.711 525.522 273.61 524.902 273.51L524.215 273.409L523.126 273.258C518.671 272.683 514.156 272.751 509.72 273.459C508.949 273.577 508.212 273.711 507.475 273.878C506.737 274.046 506.033 274.214 505.33 274.398C504.626 274.582 503.939 274.783 503.269 275.001C502.263 275.325 501.291 275.677 500.353 276.057C499.733 276.291 499.13 276.56 498.526 276.828C497.638 277.23 496.851 277.649 495.979 278.084L495.175 278.52C494.119 279.107 493.131 279.71 492.192 280.33L491.522 280.782C491.069 281.084 490.634 281.386 490.231 281.704C489.394 282.307 488.556 282.91 487.936 283.497C486.049 285.054 484.31 286.782 482.741 288.658L482.942 282.659L483.428 266.857C497.8 261.315 513.426 259.865 528.572 262.668C536 264.233 543.625 264.64 551.177 263.874C568.889 261.361 585.647 288.172 576.43 300.74Z" stroke="white" stroke-width="2.51357" stroke-linecap="round" stroke-linejoin="round"/>
<path d="M556.925 292.747C551.082 284.721 542.881 278.717 533.465 275.571C534.319 275.839 535.14 276.141 536.062 276.459C544.153 279.383 551.165 284.695 556.171 291.691L556.925 292.747Z" stroke="white" stroke-width="2.51357" stroke-linecap="round" stroke-linejoin="round"/>
<path d="M546.268 319.173L513.222 294.69L501.023 285.658L488.053 283.497C488.757 282.91 489.511 282.307 490.349 281.704C490.751 281.385 491.187 281.084 491.639 280.782L492.31 280.33C493.248 279.71 494.237 279.106 495.292 278.52L496.097 278.084C496.918 277.648 497.772 277.229 498.644 276.827C499.247 276.559 499.85 276.291 500.47 276.057C501.409 275.677 502.381 275.325 503.386 275.001C504.056 274.789 504.743 274.587 505.447 274.398C506.151 274.213 506.855 274.029 507.592 273.878C508.329 273.727 509.067 273.576 509.838 273.459C514.273 272.751 518.788 272.683 523.243 273.258L524.332 273.409L525.019 273.509C525.639 273.61 526.276 273.711 526.93 273.845L528.605 274.197C529.544 274.414 530.516 274.666 531.488 274.934L533.331 275.487L533.599 275.571C543.015 278.716 551.216 284.72 557.059 292.747C558.409 294.608 559.876 296.382 561.449 298.059C561.667 298.293 561.868 298.511 562.086 298.712C563.203 299.864 564.426 300.907 565.739 301.829L566.611 302.382C566.855 302.534 567.106 302.674 567.365 302.801L567.733 302.985C568.059 303.146 568.395 303.286 568.739 303.404C568.945 303.489 569.158 303.556 569.375 303.605C569.672 303.691 569.974 303.752 570.28 303.79C570.581 303.815 570.884 303.815 571.185 303.79H571.688C572.392 319.96 546.268 319.173 546.268 319.173Z" stroke="white" stroke-width="2.51357" stroke-linecap="round" stroke-linejoin="round"/>
<path d="M556.925 292.747C551.082 284.721 542.881 278.717 533.465 275.571C534.319 275.839 535.14 276.141 536.062 276.459C544.153 279.383 551.165 284.695 556.171 291.691L556.925 292.747Z" stroke="white" stroke-width="2.51357" stroke-linecap="round" stroke-linejoin="round"/>
<path d="M482.808 290.3L482.674 294.959V297.388L472.62 304.091L472.117 304.192L471.413 305.868L470.793 307.325C470.274 307.409 469.754 307.493 469.235 307.543C457.964 308.867 446.597 306.037 437.262 299.584C435.509 298.484 434.012 297.021 432.872 295.294C432.685 294.985 432.528 294.66 432.403 294.322C431.896 293.258 431.736 292.062 431.943 290.902C432.15 289.742 432.715 288.676 433.559 287.854C434.031 287.286 434.656 286.865 435.36 286.642C436.064 286.42 436.818 286.404 437.53 286.597C438.094 286.78 438.618 287.07 439.072 287.451C441.07 289.125 443.238 290.585 445.54 291.808C450.238 294.137 455.381 295.429 460.622 295.595C468.348 295.754 475.986 293.931 482.808 290.3Z" stroke="white" stroke-width="2.51357" stroke-linecap="round" stroke-linejoin="round"/>
<path d="M405.776 533.077H405.508" stroke="white" stroke-width="2.51357" stroke-linecap="round" stroke-linejoin="round"/>
<path d="M596.539 1044.76C596.324 1045.5 596.008 1046.22 595.6 1046.88C592.148 1052.85 576.732 1068.85 512.451 1061.66L511.429 1061.4H511.077L497.672 994.367L467.509 885.446L452.427 816.742C447.994 808.982 445.072 800.453 443.814 791.606L430.643 699.442L420.589 674.306L408.859 707.82L406.781 714.071C400.364 733.31 396.022 753.179 393.828 773.341L388.801 820.093V882.094L389.638 902.102C390.186 915.575 390.186 929.048 389.638 942.52L385.416 1047.99C385.416 1047.99 382.249 1047.87 377.037 1047.44C359.694 1046.03 319.694 1041.22 299.016 1026.19C297.585 1025.16 296.22 1024.04 294.927 1022.84L303.306 865.32V697.749L311.785 615.422C313.945 594.402 318.407 573.683 325.09 553.638L331.123 554.493L336.82 555.314L339.619 557.174L346.875 562.017L355.253 563.223H355.471L358.571 563.659C366.194 563.652 373.619 561.236 379.785 556.755L407.167 536.848L422.248 533.496L510.943 548.008C513.234 548.383 515.417 549.246 517.344 550.538L521.366 553.219C522.629 554.077 523.758 555.116 524.718 556.303L524.382 556.956L527.416 572.691L527.734 574.367C529.41 583.058 530.694 591.805 531.588 600.608C532.482 609.411 532.984 618.237 533.096 627.085L534.437 736.224L552.869 868.605L596.539 1044.76Z" fill="#6247AA"/>
<path d="M420.589 674.423L413.886 604.043" stroke="white" stroke-width="2.51357" stroke-linecap="round" stroke-linejoin="round"/>
<path d="M407.183 537.015L379.802 557.006C373.635 561.487 366.21 563.904 358.588 563.91L355.487 563.475H355.27C349.665 562.638 344.314 560.573 339.602 557.425L336.803 555.565L331.106 554.744C327.129 554.182 323.319 552.776 319.929 550.622L306.641 542.243L296.586 532.189L306.641 530.514H333.452C337.883 530.515 342.226 529.272 345.986 526.927L349.338 524.833C352.177 523.052 354.605 520.687 356.46 517.895C357.553 516.256 358.046 514.289 357.854 512.328C357.661 510.367 356.795 508.533 355.404 507.137L343.674 495.407C342.584 494.357 341.937 492.931 341.864 491.419C341.846 490.529 342.044 489.648 342.441 488.85C342.838 488.053 343.422 487.364 344.144 486.842C344.865 486.32 345.702 485.981 346.583 485.853C347.464 485.725 348.363 485.812 349.204 486.107L371.373 493.866C374.022 494.8 376.81 495.276 379.618 495.273H392.135L393.694 499.613C396.311 508.849 399.404 517.944 402.96 526.86C403.949 529.374 404.837 531.536 405.541 533.228C406.379 535.239 406.949 536.58 407.217 536.998C407.212 537.043 407.212 537.088 407.217 537.133L407.183 537.015Z" stroke="white" stroke-width="2.51357" stroke-linecap="round" stroke-linejoin="round"/>
<path d="M407.116 536.898C406.915 536.462 406.345 535.138 405.441 533.127C404.737 531.452 403.765 529.273 402.86 526.76C399.304 517.843 396.211 508.749 393.593 499.513L403.396 526.709L405.709 533.127L407.116 536.898Z" stroke="white" stroke-width="2.51357" stroke-linecap="round" stroke-linejoin="round"/>
<path d="M485.757 544.841C483.04 553.789 482.996 563.336 485.63 572.308C488.265 581.281 493.464 589.289 500.587 595.347" stroke="white" stroke-width="2.51357" stroke-linecap="round" stroke-linejoin="round"/>
<path d="M500.855 557.124C500.017 572.557 499.414 588.963 507.189 602.368C510.541 607.982 515.049 612.724 518.4 618.271C526.393 631.526 526.611 647.88 526.611 663.364" stroke="white" stroke-width="2.51357" stroke-linecap="round" stroke-linejoin="round"/>
<path d="M390.292 559.051C388.751 568.284 393.945 577.182 398.939 585.108L409.63 602.1" stroke="white" stroke-width="2.51357" stroke-linecap="round" stroke-linejoin="round"/>
<path d="M408.038 623.599C414.389 647.997 399.022 674.021 404.837 698.554" stroke="white" stroke-width="2.51357" stroke-linecap="round" stroke-linejoin="round"/>
<path d="M454.824 386.084C464.904 365.035 477.034 345.031 491.036 326.361" stroke="white" stroke-width="2.51357" stroke-linecap="round" stroke-linejoin="round"/>
<path d="M410.585 534.301C426.119 534.468 441.066 527.346 452.947 517.326C464.828 507.305 473.994 494.502 482.557 481.532C507.779 443.354 528.856 402.593 545.43 359.943" stroke="white" stroke-width="2.51357" stroke-linecap="round" stroke-linejoin="round"/>
<path d="M525.053 509.751C524.646 510.563 524.075 511.282 523.377 511.863L517.814 517.108C512.602 510.74 507.24 504.088 505.313 496.094C503.993 489.911 504.363 483.485 506.385 477.494C507.743 473.359 509.506 469.369 511.647 465.58C512.368 464.306 513.323 461.34 514.797 460.703C516.272 460.067 518.769 461.307 519.925 461.977C520.699 462.376 521.364 462.959 521.86 463.675C522.357 464.391 522.671 465.217 522.774 466.082C522.629 467.749 522.052 469.349 521.098 470.724C518.612 476.147 517.891 482.213 519.037 488.068C520.192 493.883 521.984 499.554 524.382 504.976C525.2 506.426 525.44 508.132 525.053 509.751Z" fill="white" stroke="white" stroke-width="2.51357" stroke-linecap="round" stroke-linejoin="round"/>
<path d="M179.823 540.635L177.829 542.193C176.547 543.182 174.974 543.718 173.355 543.718H160.116C158.861 543.716 157.627 543.389 156.535 542.769C155.443 542.15 154.529 541.259 153.883 540.182L146.56 527.983C145.667 526.492 144.27 525.368 142.622 524.816L138.131 523.325C136.974 522.937 135.933 522.264 135.104 521.367C134.275 520.471 133.686 519.381 133.389 518.197L130.272 505.746C129.846 503.922 130.141 502.003 131.094 500.39C132.048 498.778 133.587 497.595 135.392 497.09C137.196 496.584 139.126 496.794 140.778 497.677C142.431 498.559 143.68 500.045 144.264 501.825L144.935 503.97L149.325 518.013C149.71 519.237 150.412 520.338 151.359 521.203C152.307 522.068 153.467 522.667 154.721 522.939L176.907 527.765C177.869 527.97 178.778 528.374 179.575 528.951C180.372 529.528 181.038 530.266 181.532 531.117C182.467 532.636 182.809 534.446 182.494 536.202C182.179 537.958 181.228 539.536 179.823 540.635Z" stroke="white" stroke-width="2.51357" stroke-linecap="round" stroke-linejoin="round"/>
<path d="M313.344 545.393C313.344 545.393 323.398 548.745 328.425 543.718" stroke="white" stroke-width="2.51357" stroke-linecap="round" stroke-linejoin="round"/>
<path d="M338.831 555.951C338.831 555.951 352.639 556.303 358.085 549.952" stroke="white" stroke-width="2.51357" stroke-linecap="round" stroke-linejoin="round"/>
<path d="M313.343 369.444V370.249L308.434 530.313H306.657L296.603 531.988L298.061 533.446L181.566 531.05C181.072 530.199 180.405 529.461 179.608 528.884C178.812 528.307 177.903 527.903 176.941 527.698L154.754 522.872C153.5 522.6 152.34 522.001 151.393 521.136C150.445 520.271 149.743 519.17 149.358 517.946L144.968 503.903L141.114 383.252C141.069 381.877 141.298 380.506 141.788 379.22C142.277 377.933 143.018 376.757 143.966 375.759C144.913 374.762 146.05 373.962 147.31 373.407C148.569 372.853 149.926 372.554 151.302 372.528L175.734 372.058L291.727 369.796H292.062L308.819 369.461L313.343 369.444Z" stroke="white" stroke-width="2.51357" stroke-linecap="round" stroke-linejoin="round"/>
<path d="M428.515 397.177L427.074 426.753L423.94 431.445L422.516 433.59L390.426 481.717C390.88 487.729 391.964 493.676 393.66 499.462L392.102 495.122H379.584C376.776 495.125 373.988 494.649 371.34 493.715L349.17 485.956C348.33 485.661 347.431 485.574 346.55 485.702C345.669 485.83 344.831 486.169 344.11 486.691C343.389 487.213 342.805 487.902 342.408 488.699C342.011 489.496 341.813 490.378 341.831 491.268C341.903 492.78 342.55 494.206 343.64 495.256L355.37 506.986C356.762 508.381 357.628 510.215 357.82 512.177C358.012 514.138 357.52 516.105 356.426 517.744C354.571 520.536 352.143 522.901 349.304 524.682L345.953 526.776C342.193 529.121 337.85 530.363 333.418 530.362H308.45L313.36 370.298V369.494L383.74 380.721L392.119 382.045L409.11 384.76L419.818 386.436C422.334 386.844 424.612 388.166 426.216 390.147C427.82 392.128 428.639 394.631 428.515 397.177Z" stroke="white" stroke-width="2.51357" stroke-linecap="round" stroke-linejoin="round"/>
<path d="M403.463 526.659H402.927C399.371 517.743 396.278 508.648 393.661 499.412L403.463 526.659Z" stroke="white" stroke-width="2.51357" stroke-linecap="round" stroke-linejoin="round"/>
<path d="M299.686 156.696L297.86 155.975C264.564 143.324 213.337 151.803 179.287 160.047V77.2505C179.286 74.7231 180.271 72.295 182.033 70.483C183.795 68.671 186.194 67.618 188.721 67.5481L294.911 64.4648L299.686 156.696Z" stroke="white" stroke-width="2.51357" stroke-linecap="round" stroke-linejoin="round"/>
<path d="M366.798 94.5104L365.424 174.224L303.289 158.355C302.116 157.785 300.926 157.249 299.686 156.679L294.911 64.5151L357.431 81.9593C360.16 82.7219 362.56 84.3673 364.254 86.6381C365.949 88.9089 366.844 91.6772 366.798 94.5104Z" stroke="white" stroke-width="2.51357" stroke-linecap="round" stroke-linejoin="round"/>
<path d="M308.249 252.513L301.546 250.469C301.546 250.469 222.017 245.793 174.192 263.506C172.67 264.078 171.353 265.092 170.409 266.418C169.466 267.743 168.94 269.32 168.897 270.946C168.897 271.164 168.897 271.381 168.897 271.616L160.317 272.705C157.737 273.02 155.135 272.323 153.058 270.761C150.98 269.199 149.588 266.893 149.174 264.327C146.493 245.978 141.298 205.543 143.074 178.731C143.244 176.182 144.187 173.745 145.776 171.746C147.366 169.746 149.527 168.278 151.972 167.538C158.206 165.627 167.707 162.879 179.152 160.114C213.203 151.87 264.429 143.357 297.726 156.042L299.552 156.763C300.792 157.265 301.982 157.802 303.155 158.438L303.742 169.615L308.249 252.513Z" stroke="white" stroke-width="2.51357" stroke-linecap="round" stroke-linejoin="round"/>
<path d="M385.399 277.045C384.383 276.202 383.21 275.57 381.947 275.185L308.216 252.513L303.842 169.481L303.256 158.304L365.391 174.173L372.798 176.067C375.456 176.741 377.824 178.261 379.544 180.398C381.263 182.535 382.242 185.173 382.332 187.914L385.399 277.045Z" stroke="white" stroke-width="2.51357" stroke-linecap="round" stroke-linejoin="round"/>
<path d="M392.068 381.995L383.69 380.671L313.31 369.444L308.819 369.528L308.283 369.444L301.815 254.641L301.58 250.468L308.283 252.513L382.014 275.185C384.004 275.79 385.753 277.005 387.013 278.659C388.273 280.314 388.981 282.323 389.035 284.401L389.186 289.144L392.068 381.995Z" stroke="white" stroke-width="2.51357" stroke-linecap="round" stroke-linejoin="round"/>
<path d="M313.343 369.444L313.327 370.249L308.853 369.528L313.343 369.444Z" stroke="white" stroke-width="2.51357" stroke-linecap="round" stroke-linejoin="round"/>
<path d="M308.316 369.444L292.028 369.863H291.693L175.701 372.125C167.573 349.269 168.495 290.652 168.998 271.583C168.998 271.348 168.998 271.13 168.998 270.912C169.04 269.286 169.567 267.71 170.51 266.384C171.453 265.059 172.771 264.045 174.293 263.472C222.034 245.76 301.647 250.435 301.647 250.435L301.882 254.608L308.316 369.444Z" stroke="white" stroke-width="2.51357" stroke-linecap="round" stroke-linejoin="round"/>
<path d="M291.693 369.863L175.935 372.795C175.935 372.577 175.768 372.36 175.701 372.125L291.693 369.863Z" stroke="white" stroke-width="2.51357" stroke-linecap="round" stroke-linejoin="round"/>
<path d="M432.319 175.061C432.319 175.061 439.86 169.196 445.725 178.413" stroke="white" stroke-width="2.51357" stroke-linecap="round" stroke-linejoin="round"/>
<path d="M462.482 181.765C462.482 181.765 470.022 175.9 475.887 185.116" stroke="white" stroke-width="2.51357" stroke-linecap="round" stroke-linejoin="round"/>
<path d="M447.401 191.819C447.401 191.819 444.049 201.873 435.671 201.873C435.671 201.873 432.319 206.9 437.346 208.576" stroke="white" stroke-width="2.51357" stroke-linecap="round" stroke-linejoin="round"/>
<path d="M428.968 223.658C428.968 223.658 442.373 228.685 447.4 218.63" stroke="white" stroke-width="2.51357" stroke-linecap="round" stroke-linejoin="round"/>
<g style="mix-blend-mode:multiply">
<path d="M470.861 252.145C470.861 252.145 466.705 265.399 444.837 262.567L447.133 255.127C454.321 256.267 465.616 257.054 470.861 252.145Z" fill="white"/>
</g>
<path d="M506.168 219.217C504.098 220.23 502.357 221.807 501.144 223.767C499.931 225.727 499.297 227.989 499.314 230.293C500.268 229.595 501.386 229.154 502.56 229.013C503.734 228.873 504.925 229.036 506.017 229.489" stroke="white" stroke-width="2.51357" stroke-linecap="round" stroke-linejoin="round"/>
<path d="M202.696 417.269C206.617 418.006 209.952 421.911 211.192 427.139C211.544 421.76 214.208 417.286 217.979 415.778C214.024 415.023 210.656 411.052 209.399 405.606C209.064 411.22 206.416 415.778 202.696 417.336V417.269Z" fill="white"/>
<path d="M229.457 469.87L229.256 470.054L229.642 469.836C229.924 469.676 230.147 469.429 230.278 469.132L229.457 469.87Z" fill="white"/>
<path d="M245.477 443.058C241.717 442.52 237.886 443.282 234.619 445.22L233.797 445.723L219.453 455.375C218.635 455.093 217.888 454.637 217.263 454.038C216.638 453.439 216.15 452.712 215.834 451.906C215.397 450.653 215.412 449.287 215.878 448.044C216.343 446.801 217.229 445.761 218.381 445.103L227.849 439.271C229.222 438.418 230.738 437.816 232.323 437.495C233.983 437.168 235.69 437.168 237.35 437.495C239.017 437.804 240.602 438.459 242.002 439.417C243.401 440.375 244.585 441.616 245.477 443.058Z" fill="white"/>
<path d="M252.917 451.118C252.482 451.001 252.04 450.912 251.593 450.85C249.896 450.616 248.168 450.812 246.566 451.42C245.453 451.84 244.426 452.459 243.533 453.246L227.178 467.791L226.089 468.428C225.332 468.89 224.462 469.134 223.576 469.134C222.689 469.134 221.819 468.89 221.062 468.428C220.177 467.899 219.444 467.149 218.935 466.251C218.427 465.354 218.159 464.34 218.159 463.309C218.159 462.277 218.427 461.264 218.935 460.366C219.444 459.469 220.177 458.719 221.062 458.19L228.318 453.364L235.808 448.336L236.445 447.934C238.473 446.739 240.794 446.129 243.148 446.175C243.839 446.187 244.527 446.249 245.209 446.359L245.913 446.493C248.733 447.131 251.223 448.776 252.917 451.118Z" fill="white"/>
<path d="M230.278 469.199C230.136 469.484 229.915 469.722 229.642 469.886L229.256 470.104C229.256 470.104 229.39 469.987 229.441 469.92L230.278 469.199Z" fill="white"/>
<path d="M258.397 469.484C258.246 469.769 258.095 470.054 257.911 470.339L257.392 471.143L254.978 474.964C249.143 484.006 240.242 490.64 229.91 493.648C226.879 494.579 223.678 494.826 220.54 494.371C217.402 493.916 214.404 492.771 211.762 491.017L201.473 483.996C196.202 480.47 192.285 475.259 190.363 469.216C188.01 461.448 187.574 453.226 189.09 445.253C189.226 444.332 189.293 443.402 189.291 442.472C189.326 437.464 188.434 432.492 186.66 427.809L182.119 415.643C181.862 415.235 181.737 414.758 181.757 414.276C181.778 413.794 181.945 413.33 182.236 412.946C182.491 412.614 182.822 412.349 183.201 412.174C183.58 411.999 183.997 411.919 184.414 411.94C186.183 411.972 187.92 412.41 189.492 413.221C191.064 414.031 192.429 415.193 193.48 416.615C196.757 421.036 199.043 426.112 200.183 431.496L200.417 432.635C200.601 433.538 200.982 434.388 201.532 435.127C202.083 435.865 202.789 436.474 203.601 436.908C204.832 437.536 206.227 437.769 207.594 437.574C208.962 437.379 210.236 436.766 211.242 435.819L242.729 405.321C243.312 404.748 244.008 404.302 244.772 404.014C245.537 403.725 246.354 403.6 247.17 403.645L249.063 403.779C250.14 403.831 251.169 404.24 251.988 404.941C252.807 405.641 253.37 406.595 253.588 407.65C253.731 408.413 253.702 409.198 253.505 409.948C253.308 410.699 252.947 411.396 252.448 411.99L234.769 433.942C233.744 433.961 232.722 434.079 231.72 434.294C229.696 434.713 227.762 435.484 226.005 436.573L216.538 442.455C214.759 443.48 213.396 445.095 212.683 447.02C211.97 448.945 211.952 451.059 212.633 452.995C213.42 455.035 214.921 456.72 216.856 457.737C216.085 458.66 215.512 459.731 215.172 460.883C214.832 462.036 214.732 463.247 214.879 464.44C215.077 465.758 215.56 467.017 216.296 468.128C217.031 469.24 218 470.177 219.135 470.875C220.367 471.63 221.779 472.041 223.224 472.065C223.785 472.085 224.347 472.046 224.899 471.947C224.797 472.944 224.941 473.951 225.318 474.88C225.907 476.16 226.853 477.245 228.041 478.002C229.23 478.76 230.612 479.16 232.021 479.153C232.582 479.168 233.144 479.129 233.697 479.036C236.465 478.554 239.162 477.727 241.724 476.572L249.348 473.137C249.643 473.021 249.896 472.818 250.073 472.554C250.25 472.291 250.342 471.98 250.337 471.662C250.33 471.378 250.223 471.105 250.035 470.892C249.759 470.595 249.395 470.395 248.996 470.323C248.597 470.25 248.186 470.309 247.823 470.489L240.266 473.925C237.986 474.965 235.581 475.703 233.11 476.12C232.187 476.319 231.223 476.198 230.377 475.778C229.531 475.358 228.852 474.663 228.452 473.807C228.196 473.165 228.139 472.46 228.289 471.785C228.438 471.11 228.787 470.495 229.29 470.02L229.675 469.802C229.948 469.639 230.169 469.4 230.312 469.115L233.965 465.881L245.879 455.391C246.585 454.766 247.429 454.318 248.343 454.084C249.166 453.858 250.028 453.807 250.873 453.933C252.241 454.136 253.559 454.59 254.761 455.274C256.265 456.12 257.51 457.36 258.363 458.86C259.274 460.481 259.755 462.308 259.761 464.168C259.767 466.027 259.297 467.857 258.397 469.484Z" fill="white"/>
<path d="M230.278 469.199C230.136 469.484 229.915 469.722 229.642 469.886L229.256 470.104C229.256 470.104 229.39 469.987 229.441 469.92L230.278 469.199Z" fill="white"/>
<path d="M467.325 196.393C466.952 197.111 466.382 197.708 465.682 198.113C464.982 198.519 464.181 198.717 463.373 198.683C462.565 198.65 461.783 198.387 461.119 197.926C460.455 197.464 459.936 196.823 459.623 196.077C459.31 195.331 459.216 194.511 459.352 193.714C459.489 192.917 459.849 192.175 460.392 191.575C460.934 190.975 461.637 190.543 462.416 190.327C463.196 190.112 464.021 190.124 464.794 190.361C465.921 190.836 466.817 191.733 467.29 192.861C467.763 193.989 467.776 195.257 467.325 196.393Z" fill="white"/>
<path d="M437.279 190.026C435.888 192.439 433.392 193.595 431.699 192.606C430.007 191.618 429.755 188.886 431.146 186.49C432.537 184.094 435.034 182.921 436.726 183.909C438.419 184.898 438.67 187.646 437.279 190.026Z" fill="white"/>
<path d="M513.289 210.805L513.004 210.637C512.734 210.47 512.454 210.319 512.166 210.185L511.798 210.017C511.509 209.883 511.212 209.765 510.91 209.665C510.526 209.528 510.135 209.416 509.737 209.33L508.849 209.163H508.698H508.329H508.078C506.804 209.05 505.523 209.288 504.375 209.85L503.62 210.269C503.17 210.543 502.754 210.869 502.38 211.241C502.166 211.452 501.965 211.676 501.777 211.911L491.203 224.847L494.019 196.913C494.246 194.669 493.585 192.424 492.175 190.663C485.858 182.77 465.766 162.025 432.353 166.801L424.208 185.234H423.974L423.84 185.518C421.871 184.4 420.42 182.552 419.801 180.374C419.474 179.2 419.396 177.97 419.572 176.764C419.748 175.557 420.175 174.401 420.824 173.369C422.087 171.881 423.245 170.308 424.292 168.661C425.968 165.108 424.024 161.019 423.421 157.132C422.998 154.164 423.361 151.137 424.472 148.353C425.584 145.569 427.405 143.124 429.755 141.263C429.84 138.959 430.498 136.713 431.668 134.726C432.838 132.74 434.484 131.076 436.458 129.885C438.544 128.738 440.876 128.11 443.256 128.055C445.636 128 447.994 128.518 450.132 129.566C450.844 127.793 451.906 126.182 453.256 124.829C454.605 123.476 456.213 122.409 457.984 121.692C459.755 120.975 461.653 120.622 463.563 120.655C465.474 120.688 467.358 121.106 469.103 121.884C470.848 122.662 472.419 123.784 473.72 125.182C475.022 126.581 476.028 128.228 476.679 130.025C477.329 131.821 477.611 133.731 477.507 135.639C477.402 137.547 476.914 139.414 476.072 141.129C477.689 140.617 479.415 140.556 481.063 140.953C482.712 141.35 484.222 142.189 485.429 143.381C486.636 144.572 487.495 146.071 487.913 147.714C488.331 149.358 488.293 151.085 487.802 152.708L488.355 153.311C492.035 153.212 495.672 154.116 498.878 155.925C501.099 157.212 502.908 159.104 504.094 161.379C505.281 163.655 505.797 166.221 505.581 168.778C505.246 171.208 504.123 173.805 505.196 176C506.027 177.273 507.111 178.363 508.379 179.201C511.228 181.607 513.031 185.026 513.407 188.736C513.548 190.48 513.366 192.235 512.87 193.914C514.863 199.345 515.011 205.282 513.289 210.805Z" fill="white"/>
<path d="M503.587 210.134C503.144 210.419 502.729 210.745 502.347 211.106C502.72 210.735 503.137 210.408 503.587 210.134Z" stroke="white" stroke-width="2.51357" stroke-linecap="round" stroke-linejoin="round"/>
<path d="M489.913 292.797C497.234 291.422 504.782 291.909 511.865 294.214C518.948 296.518 525.338 300.566 530.449 305.985" stroke="white" stroke-width="2.51357" stroke-linecap="round" stroke-linejoin="round"/>
</g>
<defs>
<clipPath id="clip0_340_611">
<rect width="601" height="700" fill="white"/>
</clipPath>
</defs>
</svg>
