<svg viewBox="0 0 611 677" fill="none" xmlns="http://www.w3.org/2000/svg">
<g clip-path="url(#clip0_340_533)">
<path d="M23.9679 509.933L91.5969 500.709L153.427 483.998L230.297 450.576L229.211 446.917L228.092 447.401C224.413 448.927 220.555 449.977 216.611 450.526L215.492 450.676C201.488 452.611 188.122 457.759 176.438 465.716C162 475.509 139.139 487.942 115.076 488.944C77.0251 490.616 39.743 480.84 24.5862 501.244L23.9679 509.933Z" stroke="white" stroke-width="2.50664" stroke-linecap="round" stroke-linejoin="round"/>
<path d="M51.4908 301.849C61.9184 305.642 70.5914 300.429 77.6601 291.02L87.0349 248.842C81.2195 250.329 74.3847 250.513 70.5078 249.327C64.6132 247.304 59.7471 243.05 56.9553 237.479C56.5208 236.677 56.1365 235.808 55.7856 235.056C55.2081 233.685 54.7386 232.271 54.3817 230.828C52.4877 231.375 50.874 232.624 49.8699 234.32L48.8673 235.991C41.1134 249.644 20.9433 290.736 51.4908 301.849Z" stroke="white" stroke-width="2.50664" stroke-linecap="round" stroke-linejoin="round"/>
<path d="M75.2202 205.343C75.2202 205.343 75.1033 205.527 75.0364 205.628C68.0346 204.174 59.9966 206.63 56.387 212.847C53.4102 218.353 52.691 224.801 54.3816 230.828" stroke="white" stroke-width="2.50664" stroke-linecap="round" stroke-linejoin="round"/>
<path d="M82.289 195C87.5808 187.558 93.2179 180.389 99.2004 173.493C103.587 168.092 108.641 163.268 114.24 159.138C120.674 154.693 135.964 150.966 135.964 150.95C136.064 150.884 136.149 150.798 136.215 150.699C136.5 150.396 136.697 150.02 136.783 149.613C128.795 139.336 114.641 135.125 101.69 136.745C88.3216 138.417 76.1225 145.535 65.461 153.924C53.4291 163.416 42.4335 175.364 38.2391 190.204C36.1263 198.136 35.9935 206.465 37.8525 214.46C39.7115 222.456 43.5053 229.872 48.9006 236.058" stroke="white" stroke-width="2.50664" stroke-linecap="round" stroke-linejoin="round"/>
<path d="M54.3818 230.828C54.7386 232.271 55.2081 233.685 55.7856 235.055C56.1366 235.874 56.5208 236.727 56.9553 237.479C59.7471 243.05 64.6132 247.304 70.5078 249.327C74.3848 250.496 81.2195 250.329 87.0349 248.842L77.6601 291.02L72.0788 316.17C86.5504 320.816 120.407 326.381 150.854 291.99L147.328 279.707L143.835 267.458V267.174C145.773 267.085 147.701 266.845 149.601 266.455L157.555 264.784C164.355 263.367 170.618 260.061 175.626 255.246C180.633 250.431 184.181 244.302 185.863 237.562L187.534 231.045C188.928 225.478 189.083 219.673 187.989 214.04C186.895 208.407 184.577 203.082 181.201 198.442L166.947 178.84C166.462 178.172 165.944 177.52 165.426 176.885C164.908 176.25 163.972 175.214 163.187 174.445L156.402 167.66C155.616 166.875 154.731 166.123 153.929 165.405L136.265 150.682C136.199 150.781 136.114 150.867 136.015 150.933C136.015 150.933 120.741 154.676 114.291 159.121C108.691 163.251 103.637 168.075 99.2507 173.476C93.2905 180.361 87.6534 187.53 82.3393 194.983C79.9998 198.241 77.727 201.567 75.5378 204.926C75.6548 205.31 75.7384 205.644 75.7718 205.745H75.5211H75.0866C68.0847 204.291 60.0469 206.747 56.4374 212.964C53.4746 218.431 52.738 224.831 54.3818 230.828Z" stroke="white" stroke-width="2.50664" stroke-linecap="round" stroke-linejoin="round"/>
<path d="M252.456 339.415C255.885 343.884 259.651 348.085 263.719 351.982C265.497 346.411 266.016 340.515 265.24 334.719L252.456 339.415Z" fill="white" stroke="white" stroke-width="2.50664" stroke-linejoin="round"/>
<path d="M234.96 277.2L244.686 273.391C241.21 266.255 238.72 261.693 238.72 261.693C236.841 266.69 235.578 271.898 234.96 277.2Z" fill="white" stroke="white" stroke-width="2.50664" stroke-linejoin="round"/>
<path d="M-63.8144 393.759C-63.547 394.143 -61.6753 396.951 -59.0516 401.413C-54.081 409.784 -49.7411 418.515 -46.0675 427.532C-43.5528 433.889 -41.8406 440.536 -40.9705 447.317L-39.8508 455.673L-38.7815 463.694V463.844C-24.9096 459.942 -12.6267 451.753 -3.68863 440.449L6.33791 493.222C6.95666 496.507 8.70252 499.473 11.2743 501.609C13.846 503.744 17.0825 504.915 20.4253 504.92C21.023 504.914 21.6198 504.875 22.2133 504.803C22.8749 503.556 23.6292 502.361 24.4694 501.227C39.6262 480.823 76.908 490.515 114.959 488.928C139.022 487.925 161.883 475.559 176.321 465.699C188.005 457.742 201.371 452.594 215.375 450.66L216.494 450.509C220.438 449.96 224.296 448.91 227.975 447.384L229.094 446.9C232.178 445.511 235.098 443.785 237.801 441.753C238.105 441.529 238.319 441.202 238.402 440.833C240.042 433.444 238.899 425.709 235.194 419.109L225.719 402.231C216.71 391.273 211.296 377.807 210.211 363.663L263.686 351.965C259.617 348.069 255.852 343.868 252.423 339.398C234.041 315.452 232.938 291.939 234.859 277.184C235.478 271.904 236.735 266.719 238.603 261.743L196.826 278.454L182.956 281.228C175.63 282.706 168.853 286.175 163.37 291.254C163.47 291.833 163.351 292.429 163.036 292.925C152.642 310.488 114.04 364.582 54.4152 319.412C53.968 319.087 53.616 318.649 53.3959 318.142C43.4224 318.018 33.5159 319.787 24.202 323.356C11.4815 328.045 0.0072746 335.591 -9.33672 345.414C-14.1495 350.294 -63.8144 393.759 -63.8144 393.759Z" stroke="white" stroke-width="2.50664" stroke-linecap="round" stroke-linejoin="round"/>
<path d="M-177.348 800.719L-77.9852 823.346C-72.3827 824.626 -66.6537 825.271 -60.9068 825.268C-44.3488 825.275 -28.2288 819.949 -14.935 810.078L-7.24787 804.363C16.2712 786.9 38.203 767.395 58.2922 746.075L76.7744 726.473L83.2415 719.621L83.4253 718.251C79.9832 712.517 75.677 707.348 70.6583 702.927L36.451 672.848C36.451 672.848 13.4068 650.639 -4.37364 641.415L-18.5946 662.888L-70.0977 740.727C-71.2097 742.404 -72.7874 743.72 -74.6369 744.513C-76.4865 745.306 -78.5273 745.541 -80.5086 745.189L-169.862 729.297C-177.181 740.042 -192.99 769.036 -177.348 800.719Z" stroke="white" stroke-width="2.50664" stroke-linecap="round" stroke-linejoin="round"/>
<path d="M381.314 575.574C382.232 579.089 383.627 582.462 385.458 585.6L385.709 585.901C386.657 582.194 387.344 578.425 387.764 574.621L381.314 575.574Z" fill="white"/>
<path d="M386.427 442.438H387.58C387.447 440.115 387.38 438.845 387.38 438.845C387.313 439.146 387.029 440.433 386.427 442.438Z" fill="white"/>
<path d="M375.682 554.183C376.601 557.96 378.874 567.736 381.314 575.573L387.764 574.654L442.91 566.767C443.688 566.657 444.48 566.715 445.233 566.937C445.987 567.158 446.684 567.538 447.279 568.05C447.874 568.563 448.352 569.196 448.682 569.909C449.013 570.621 449.187 571.396 449.193 572.181L449.695 694.421C474.46 708.358 508.751 699.05 520.349 695.24L528.938 615.897C531.45 592.591 532.115 569.122 530.927 545.711L527.417 476.461C527.648 468.808 524.843 461.375 519.616 455.781C514.388 450.187 507.161 446.886 499.51 446.599L387.547 442.388H386.394C382.45 457.979 367.427 520.544 375.682 554.183Z" stroke="white" stroke-width="2.50664" stroke-linecap="round" stroke-linejoin="round"/>
<path d="M-22.0371 639.409C-18.5445 635.916 -12.0104 637.487 -4.37354 641.398C13.4069 650.622 36.4511 672.831 36.4511 672.831L70.6584 702.91C75.6771 707.331 79.9833 712.5 83.4254 718.234L88.2549 726.289L160.513 608.878C165.755 600.358 172.778 593.073 181.101 587.522C186.034 584.245 191.363 581.606 196.959 579.667L222.159 570.978C231.912 567.619 242.303 566.533 252.54 567.803L277.088 570.878L353.958 580.904L385.709 585.917L385.458 585.617C383.627 582.479 382.232 579.105 381.314 575.59C378.874 567.753 376.601 557.977 375.682 554.2C367.427 520.561 382.367 457.995 386.428 442.454C386.979 440.382 387.313 439.112 387.363 438.928L363.801 439.212C348.548 440.858 333.221 441.711 317.879 441.769C305.416 441.748 292.968 442.625 280.631 444.393L230.281 450.626L153.411 484.048L91.5803 500.759L23.9514 509.983L23.2496 510.083C21.7349 510.289 20.3223 510.963 19.2104 512.012C18.0985 513.061 17.343 514.432 17.0497 515.932L9.6969 553.933C8.59198 559.691 6.95868 565.335 4.81747 570.794L-22.0371 639.409Z" fill="#6247AA"/>
<path d="M53.3622 318.092C53.5823 318.599 53.9343 319.038 54.3815 319.362C114.09 364.482 152.692 310.438 163.002 292.875C163.317 292.379 163.436 291.783 163.337 291.204C163.067 290.277 162.458 289.486 161.631 288.988C160.804 288.489 159.82 288.32 158.875 288.514L154.931 288.948C153.889 289.051 152.924 289.54 152.224 290.319L150.77 291.99C120.323 326.381 86.4665 320.816 71.9949 316.17C69.9083 315.513 67.8608 314.737 65.8621 313.848C65.1036 313.504 64.2678 313.365 63.4389 313.447L56.5707 314.048C54.0307 314.265 52.6269 316.338 53.3622 318.092Z" stroke="white" stroke-width="2.50664" stroke-linecap="round" stroke-linejoin="round"/>
<path d="M352.387 28.9936C360.141 31.7175 366.475 42.7132 368.53 56.9843C369.667 42.613 375.214 31.2327 382.851 28.0075C375.097 25.2669 368.747 14.2711 366.692 0C365.572 14.3714 360.008 25.7684 352.387 28.9936Z" fill="white"/>
<path d="M252.456 339.415L265.24 334.72L345.97 305.074C352.33 302.736 357.997 298.832 362.449 293.724C366.9 288.615 369.992 282.467 371.438 275.847L394.833 152.587C396.423 152.097 397.945 151.406 399.362 150.532C408.517 144.854 415.149 135.883 417.894 125.466L419.264 120.335C419.832 118.182 419.865 115.922 419.361 113.752C418.857 111.583 417.832 109.569 416.373 107.886C415.434 106.823 414.299 105.949 413.031 105.312L412.881 105.145C411.906 104.886 410.881 104.886 409.906 105.145C407.849 105.926 405.997 107.166 404.492 108.772C399.729 113.133 394.917 117.561 391.591 123.093L391.04 124.029L390.12 124.981C389.344 125.784 388.344 126.334 387.25 126.561C386.156 126.787 385.019 126.679 383.988 126.251C382.842 125.748 381.831 124.98 381.04 124.01C380.249 123.04 379.7 121.896 379.437 120.673C379.174 119.449 379.206 118.18 379.529 116.971C379.853 115.762 380.459 114.647 381.297 113.718L392.092 101.803C392.252 101.607 392.425 101.423 392.61 101.252C394.021 99.8821 395.745 98.8795 397.633 98.3317C399.521 97.784 401.515 97.7078 403.439 98.11L402.888 97.9262C400.381 91.5593 393.529 91.4423 390.923 91.6429L390.639 91.1582L390.438 90.824L400.598 68.7655C401.036 67.8024 401.211 66.7412 401.107 65.6885C401.004 64.6359 400.624 63.6293 400.007 62.7701C399.39 61.9108 398.558 61.2295 397.594 60.7946C396.63 60.3597 395.568 60.1868 394.515 60.2932L392.961 60.4603C392.076 60.5563 391.222 60.8474 390.462 61.3125C389.702 61.7777 389.055 62.4055 388.566 63.1507L368.062 94.5171C367.654 95.1386 367.084 95.6366 366.413 95.9575C365.743 96.2783 364.997 96.4098 364.257 96.3375C363.517 96.2652 362.811 95.992 362.215 95.5474C361.62 95.1029 361.156 94.5038 360.876 93.8152L360.408 92.6789C358.471 87.8728 355.551 83.5242 351.836 79.9118C350.526 78.6456 348.933 77.7094 347.19 77.1806C345.446 76.6517 343.602 76.5453 341.809 76.8703C341.162 76.9853 340.556 77.2691 340.053 77.6926C339.55 78.1161 339.168 78.6646 338.944 79.2829C338.721 79.9012 338.664 80.5674 338.78 81.2147C338.895 81.8619 339.179 82.4673 339.603 82.9698L344.165 88.3674L346.355 92.6957C348.731 97.4237 349.962 102.644 349.948 107.936C349.907 116.274 351.759 124.513 355.362 132.033C356.118 133.608 357.013 135.112 358.036 136.528L319.801 237.947C317.73 242.538 313.946 246.136 309.256 247.973L244.485 273.324L234.759 277.134C232.971 291.956 234.124 315.469 252.456 339.415Z" stroke="white" stroke-width="2.50664" stroke-linecap="round" stroke-linejoin="round"/>
<path d="M379.777 121.605C380.128 122.645 380.693 123.6 381.436 124.409C382.178 125.218 383.082 125.862 384.088 126.301C385.12 126.729 386.256 126.837 387.35 126.611C388.444 126.384 389.444 125.834 390.221 125.031L391.14 124.078L391.692 123.143C395.034 117.611 399.83 113.116 404.592 108.821C406.098 107.216 407.949 105.976 410.007 105.195C410.981 104.936 412.007 104.936 412.981 105.195C410.46 102.104 407.201 99.6959 403.506 98.1931C401.582 97.7909 399.588 97.8671 397.7 98.4148C395.812 98.9625 394.088 99.9652 392.677 101.335C392.492 101.506 392.319 101.691 392.159 101.886L381.364 113.801C380.429 114.843 379.789 116.116 379.51 117.487C379.231 118.859 379.323 120.281 379.777 121.605Z" stroke="white" stroke-width="2.50664" stroke-linecap="round" stroke-linejoin="round"/>
<path d="M403.372 97.6922L402.57 96.5725C400.935 94.2028 398.537 92.4654 395.775 91.6504C393.014 90.8354 390.056 90.9921 387.397 92.0941C385.927 92.7324 384.59 93.6391 383.453 94.7678L376.434 101.753C375.3 102.88 374.574 104.353 374.371 105.939C374.168 107.525 374.5 109.133 375.315 110.509C375.895 111.485 376.7 112.31 377.661 112.914C378.623 113.518 379.715 113.886 380.846 113.985" stroke="white" stroke-width="2.50664" stroke-linecap="round" stroke-linejoin="round"/>
<path d="M391.173 124.095L391.641 123.627" stroke="white" stroke-width="2.50664" stroke-linecap="round" stroke-linejoin="round"/>
<path d="M412.781 104.811L410.675 102.354C408.838 100.192 406.323 98.7136 403.54 98.1602" stroke="white" stroke-width="2.50664" stroke-linecap="round" stroke-linejoin="round"/>
<path d="M391.173 124.095C390.538 125.201 390.129 126.423 389.97 127.688C389.813 128.469 389.877 129.279 390.157 130.025C390.436 130.771 390.919 131.424 391.551 131.909C392.182 132.395 392.937 132.694 393.73 132.772C394.523 132.85 395.322 132.704 396.036 132.351C397.423 131.744 398.66 130.843 399.663 129.71" stroke="white" stroke-width="2.50664" stroke-linecap="round" stroke-linejoin="round"/>
<path d="M413.014 105.162C413.592 105.275 414.139 105.511 414.618 105.854C415.096 106.197 415.495 106.64 415.788 107.15" stroke="white" stroke-width="2.50664" stroke-linecap="round" stroke-linejoin="round"/>
<path d="M223.613 520.762L208.908 547.733C198.761 566.333 185.013 582.727 168.467 595.961" stroke="white" stroke-width="2.50664" stroke-linecap="round" stroke-linejoin="round"/>
<path d="M53.229 505.99C52.9924 539.859 40.2437 572.444 17.4342 597.482C11.9029 603.498 5.82025 609.046 0.873827 615.547C-4.0726 622.047 -7.88275 629.801 -7.9663 637.972" stroke="white" stroke-width="2.50664" stroke-linecap="round" stroke-linejoin="round"/>
<path d="M66.3636 506.809C66.6538 520.925 64.8346 535.006 60.966 548.586C59.6124 553.315 57.9413 558.128 54.666 561.804C51.3906 565.481 46.1099 567.753 41.4309 566.266" stroke="white" stroke-width="2.50664" stroke-linecap="round" stroke-linejoin="round"/>
<path d="M176.171 476.846C185.64 484.553 191.819 495.577 193.45 507.677" stroke="white" stroke-width="2.50664" stroke-linecap="round" stroke-linejoin="round"/>
<path d="M160.931 483.296C169.04 491.688 175.482 501.544 179.914 512.339" stroke="white" stroke-width="2.50664" stroke-linecap="round" stroke-linejoin="round"/>
<path d="M36.2464 384.3L30.8354 385.255C30.7101 385.29 30.5935 385.351 30.4931 385.434C30.3928 385.517 30.3106 385.619 30.2522 385.736C30.1938 385.852 30.1604 385.979 30.1539 386.109C30.1475 386.239 30.1682 386.369 30.2148 386.491L38.2744 418.277C38.3188 418.521 38.4538 418.74 38.6524 418.889C38.851 419.038 39.0985 419.106 39.3455 419.081L44.481 418.101C44.5961 418.069 44.7036 418.015 44.797 417.94C44.8904 417.866 44.9678 417.773 45.0245 417.668C45.0812 417.563 45.1161 417.448 45.1271 417.329C45.138 417.21 45.1249 417.09 45.0884 416.977L37.3943 385.218C37.3494 384.951 37.2075 384.709 36.9958 384.54C36.784 384.371 36.5172 384.285 36.2464 384.3Z" fill="#6247AA"/>
<path d="M64.9504 389.625C64.0293 388.754 62.9115 388.118 61.692 387.772C60.4726 387.426 59.1874 387.379 57.9461 387.636C56.5286 387.854 55.2049 388.479 54.1359 389.435C53.6523 389.832 53.2194 390.286 52.8469 390.788C52.4182 391.422 51.5396 391.152 51.2935 390.371L51.2482 390.245C51.214 389.984 51.0805 389.747 50.8757 389.583C50.6708 389.418 50.4103 389.339 50.1486 389.362L44.859 390.309C44.7351 390.341 44.6191 390.399 44.5189 390.479C44.4186 390.558 44.3361 390.658 44.2766 390.771C44.2171 390.885 44.182 391.009 44.1735 391.137C44.165 391.265 44.1832 391.393 44.2271 391.513L49.9879 416.082C50.0324 416.326 50.1674 416.544 50.366 416.693C50.5646 416.842 50.8122 416.911 51.0592 416.885L56.0476 415.941C56.1647 415.911 56.2745 415.857 56.3701 415.783C56.4657 415.709 56.5452 415.616 56.6035 415.51C56.6619 415.405 56.6978 415.288 56.7094 415.167C56.7209 415.047 56.7078 414.926 56.6706 414.811L53.7114 401.667C53.2862 400.229 53.3571 398.689 53.9128 397.296C54.1753 396.747 54.5681 396.271 55.0569 395.909C55.5458 395.547 56.1159 395.311 56.7173 395.22C57.3294 395.085 57.965 395.099 58.5705 395.261C59.1761 395.423 59.7338 395.728 60.1967 396.151C61.3004 397.203 62.0204 398.594 62.2423 400.103L65.0129 413.315C65.0507 413.555 65.179 413.771 65.3712 413.92C65.5635 414.069 65.8052 414.138 66.047 414.114L71.0298 413.154C71.1457 413.125 71.2544 413.072 71.3493 412.999C71.4442 412.927 71.5233 412.835 71.582 412.731C71.6408 412.627 71.6779 412.512 71.691 412.393C71.7041 412.274 71.693 412.154 71.6584 412.04L68.831 397.783C68.4694 394.711 67.1055 391.844 64.9504 389.625Z" fill="#6247AA"/>
<path d="M87.1336 384.936C86.1214 384.225 84.9705 383.736 83.7561 383.5C82.5416 383.264 81.2911 383.287 80.0862 383.568C78.3724 383.834 76.753 384.528 75.3773 385.584C74.1937 386.523 73.3034 387.78 72.811 389.208C72.3776 390.648 72.3161 392.173 72.6323 393.642C72.8342 395.187 73.533 396.625 74.6232 397.739C75.4953 398.619 76.5873 399.25 77.7858 399.566C79.1468 399.898 80.533 400.117 81.93 400.222C83.0711 400.308 84.2022 400.495 85.3105 400.78C85.6404 400.88 85.9346 401.073 86.1583 401.336C86.3819 401.598 86.5258 401.92 86.5726 402.261C86.6269 402.549 86.6174 402.846 86.5448 403.13C86.4721 403.414 86.3382 403.678 86.1523 403.905C85.6768 404.42 85.0355 404.751 84.3405 404.842C83.499 405.027 82.6187 404.879 81.8833 404.43C81.354 404.118 80.936 403.647 80.6879 403.085C80.6162 402.898 80.4859 402.741 80.3164 402.635C80.147 402.529 79.9477 402.482 79.7488 402.5L74.7604 403.444C74.6293 403.483 74.5081 403.55 74.4051 403.64C74.3021 403.73 74.2197 403.841 74.1635 403.966C74.1073 404.091 74.0786 404.226 74.0795 404.363C74.0803 404.5 74.1106 404.635 74.1683 404.759C74.6044 405.916 75.2639 406.976 76.1093 407.878C77.2319 409.052 78.6435 409.909 80.2023 410.365C81.899 410.849 83.6891 410.906 85.4131 410.53C87.0089 410.267 88.5202 409.631 89.8245 408.674C90.968 407.811 91.8525 406.651 92.3815 405.32C92.8907 403.966 93.0252 402.5 92.7709 401.076C92.5858 399.539 91.9183 398.101 90.8642 396.967C90.0239 396.087 88.9653 395.445 87.796 395.106C86.4171 394.736 85.011 394.477 83.5908 394.33C82.4594 394.284 81.3388 394.091 80.2574 393.755C79.947 393.651 79.666 393.474 79.4378 393.239C79.2096 393.004 79.0408 392.719 78.9454 392.406C78.8499 392.092 78.8307 391.761 78.8892 391.439C78.9477 391.117 79.0822 390.813 79.2817 390.554C79.718 390.054 80.3245 389.734 80.9834 389.657C81.8079 389.47 82.6727 389.619 83.3879 390.069C83.8819 390.415 84.2731 390.888 84.5203 391.438C84.5871 391.627 84.7165 391.789 84.8872 391.895C85.0578 392.001 85.2597 392.046 85.4594 392.023L90.0221 391.178C90.1574 391.14 90.2828 391.074 90.3897 390.982C90.4967 390.891 90.5825 390.778 90.6413 390.65C90.7 390.523 90.7304 390.384 90.7301 390.243C90.7299 390.103 90.6991 389.964 90.64 389.837C89.9945 387.886 88.7717 386.177 87.1336 384.936Z" fill="#6247AA"/>
<path d="M105.202 379.475L102.465 379.963C102.342 379.971 102.218 379.954 102.101 379.914C101.984 379.874 101.876 379.81 101.783 379.728C101.691 379.646 101.616 379.546 101.562 379.434C101.509 379.323 101.478 379.202 101.471 379.078L100.794 374.437C100.792 374.311 100.765 374.186 100.714 374.07C100.663 373.955 100.589 373.851 100.496 373.765C100.404 373.678 100.295 373.612 100.176 373.569C100.057 373.526 99.9307 373.508 99.8045 373.515L94.6776 374.421C94.4302 374.499 94.2221 374.67 94.0959 374.897C93.9697 375.124 93.9349 375.39 93.9987 375.642L94.7289 380.281C94.7839 380.532 94.7444 380.793 94.618 381.016C94.4915 381.239 94.2873 381.406 94.0443 381.487L93.0444 381.67C92.9228 381.702 92.8084 381.757 92.7083 381.833C92.6081 381.909 92.5241 382.004 92.4609 382.113C92.3976 382.221 92.3565 382.342 92.3399 382.466C92.3233 382.591 92.3317 382.717 92.3642 382.839L93.1364 387.694C93.1551 387.944 93.2716 388.176 93.4606 388.341C93.6496 388.506 93.8959 388.589 94.1461 388.573L95.1246 388.381C95.3747 388.365 95.621 388.448 95.81 388.613C95.999 388.778 96.1156 389.01 96.1343 389.26L97.6052 398.766C98.1154 401.957 99.1183 404.1 100.668 405.247C101.504 405.826 102.456 406.217 103.458 406.392C104.459 406.568 105.487 406.525 106.47 406.265L108.949 405.798C109.177 405.728 109.371 405.576 109.494 405.371C109.617 405.166 109.66 404.923 109.615 404.688L108.952 399.989C108.95 399.871 108.923 399.755 108.874 399.647C108.825 399.54 108.754 399.444 108.665 399.366C108.577 399.287 108.473 399.228 108.361 399.192C108.248 399.156 108.13 399.143 108.012 399.155L106.496 399.435C106.228 399.515 105.946 399.537 105.669 399.499C105.392 399.461 105.126 399.364 104.89 399.215C104.488 398.801 104.248 398.258 104.213 397.682L102.819 388.095C102.755 387.853 102.788 387.595 102.913 387.377C103.037 387.159 103.242 386.999 103.484 386.932L106.184 386.439C106.425 386.368 106.629 386.207 106.756 385.99C106.882 385.772 106.921 385.515 106.864 385.27L106.187 380.434C106.196 380.304 106.176 380.173 106.13 380.051C106.083 379.928 106.01 379.818 105.917 379.726C105.823 379.635 105.71 379.565 105.587 379.522C105.464 379.478 105.332 379.462 105.202 379.475Z" fill="#6247AA"/>
<path d="M130.435 374.966L125.429 375.864C125.189 375.939 124.984 376.101 124.856 376.317C124.727 376.534 124.684 376.791 124.733 377.038C124.833 377.908 124.094 378.565 123.517 378.098C123.073 377.748 122.591 377.452 122.079 377.213C120.775 376.627 119.318 376.468 117.918 376.758C116.13 377.089 114.498 377.995 113.271 379.338C111.885 380.889 110.924 382.771 110.479 384.803C109.931 387.243 109.839 389.763 110.208 392.236C110.478 394.636 111.225 396.957 112.403 399.066C113.318 400.711 114.674 402.068 116.318 402.983C117.791 403.788 119.501 404.047 121.146 403.713C122.532 403.472 123.821 402.842 124.861 401.895C125.289 401.501 125.68 401.069 126.03 400.604C126.474 399.964 127.287 400.151 127.399 401.052L127.439 401.162C127.439 401.275 127.462 401.386 127.508 401.489C127.554 401.593 127.622 401.685 127.706 401.76C127.79 401.836 127.889 401.892 127.997 401.927C128.104 401.961 128.218 401.972 128.33 401.96L133.071 401.068C133.304 401.001 133.502 400.849 133.629 400.643C133.755 400.436 133.799 400.19 133.753 399.953L131.278 375.729C131.288 375.263 130.882 374.876 130.435 374.966ZM126.193 389.372C126.46 391.069 126.17 392.806 125.366 394.324C125.065 394.916 124.635 395.434 124.108 395.839C123.58 396.244 122.97 396.526 122.319 396.665C121.694 396.781 121.049 396.737 120.444 396.54C119.839 396.342 119.293 395.995 118.856 395.532C117.706 394.301 117.02 392.709 116.914 391.028C116.674 389.901 116.716 388.732 117.036 387.626C117.356 386.519 117.944 385.508 118.749 384.683C119.188 384.262 119.72 383.949 120.302 383.768C120.994 383.559 121.732 383.551 122.429 383.742C123.127 383.934 123.756 384.319 124.245 384.852C125.416 386.103 126.113 387.724 126.216 389.435L126.193 389.372Z" fill="#6247AA"/>
<path d="M140.953 363.93L135.942 364.812C135.697 364.888 135.489 365.053 135.359 365.274C135.229 365.495 135.185 365.756 135.236 366.007L138.324 399.229C138.323 399.34 138.345 399.45 138.388 399.553C138.431 399.655 138.496 399.747 138.576 399.823C138.657 399.899 138.753 399.957 138.858 399.994C138.962 400.032 139.073 400.047 139.184 400.039L143.91 399.153C144.138 399.08 144.332 398.926 144.457 398.722C144.582 398.517 144.63 398.274 144.591 398.037L141.737 364.873C141.752 364.759 141.743 364.643 141.711 364.532C141.679 364.422 141.625 364.319 141.551 364.23C141.477 364.142 141.386 364.069 141.283 364.017C141.18 363.966 141.068 363.936 140.953 363.93Z" fill="#6247AA"/>
<path d="M152.217 361.967L147.316 362.809C147.072 362.892 146.863 363.058 146.729 363.279C146.594 363.5 146.541 363.761 146.579 364.016L149.189 397.144C149.185 397.255 149.204 397.365 149.245 397.468C149.286 397.571 149.349 397.664 149.428 397.741C149.508 397.818 149.603 397.877 149.707 397.915C149.812 397.952 149.923 397.968 150.033 397.959L154.7 397.059C154.929 396.99 155.124 396.84 155.25 396.638C155.377 396.436 155.425 396.194 155.387 395.959L153.096 362.876C153.06 362.285 152.649 361.883 152.217 361.967Z" fill="#6247AA"/>
<path d="M178.283 366.378L173.172 367.278C172.993 367.337 172.834 367.443 172.71 367.584C172.586 367.726 172.502 367.898 172.467 368.083L169.29 382.141C169.101 383.044 168.132 383.215 167.859 382.407L163.294 369.736C163.249 369.571 163.149 369.426 163.009 369.328C162.87 369.229 162.7 369.181 162.53 369.194L157.125 370.165C156.556 370.263 156.217 371.096 156.48 371.729L165.615 393.731C165.717 393.976 165.728 394.25 165.644 394.502L162.346 406.153C162.14 406.813 162.557 407.427 163.104 407.319L167.918 406.383C168.079 406.337 168.226 406.247 168.341 406.124C168.456 406.002 168.536 405.85 168.572 405.686L179.017 367.677C179.238 366.958 178.83 366.27 178.283 366.378Z" fill="#6247AA"/>
<path d="M210.796 367.005C209.978 356.903 205.419 347.47 198.012 340.552" stroke="white" stroke-width="2.50664" stroke-linecap="round" stroke-linejoin="round"/>
<path d="M56.27 239.768C49.1858 253.746 45.5529 269.217 45.6754 284.887C45.5065 287.991 46.0794 291.09 47.3465 293.928C48.0101 295.334 49.0836 296.506 50.4257 297.29C51.7678 298.075 53.3158 298.435 54.8664 298.323" stroke="white" stroke-width="2.50664" stroke-linecap="round" stroke-linejoin="round"/>
<path d="M135.747 183.302L146.342 190.387C147.743 191.179 148.944 192.283 149.851 193.612C150.338 194.597 150.591 195.681 150.591 196.779C150.591 197.877 150.338 198.961 149.851 199.946C148.843 201.898 147.535 203.68 145.974 205.226" stroke="white" stroke-width="2.50664" stroke-linecap="round" stroke-linejoin="round"/>
<path d="M130.032 222.589C130.022 222.865 130.085 223.138 130.214 223.381C130.343 223.625 130.534 223.83 130.767 223.976C134.578 226.494 138.605 228.669 142.799 230.477C147.331 232.438 152.308 233.136 157.204 232.499C159.639 232.158 161.967 231.282 164.022 229.932C166.076 228.583 167.806 226.794 169.085 224.695C171.776 219.882 171.241 213.85 168.868 208.82C168.759 208.593 168.597 208.397 168.396 208.247C168.195 208.097 167.96 207.998 167.712 207.958C167.464 207.919 167.21 207.94 166.972 208.02C166.734 208.1 166.518 208.237 166.345 208.419C162.016 212.894 156.606 216.174 150.637 217.944C144.358 219.604 137.933 220.651 131.453 221.069C131.075 221.101 130.723 221.27 130.461 221.544C130.2 221.818 130.047 222.178 130.032 222.556V222.589Z" stroke="white" stroke-width="2.50664" stroke-linecap="round" stroke-linejoin="round"/>
<path d="M143.401 163.149C143.401 163.149 135.045 161.478 136.717 169.833" stroke="white" stroke-width="2.50664" stroke-linecap="round" stroke-linejoin="round"/>
<path d="M119.354 179.743C119.354 179.743 112.319 174.93 110.581 183.269" stroke="white" stroke-width="2.50664" stroke-linecap="round" stroke-linejoin="round"/>
<path d="M68.9204 218.729C70.9479 218.674 72.9597 219.098 74.7918 219.969C76.6239 220.839 78.2244 222.13 79.4626 223.736C80.7008 225.343 81.5418 227.219 81.9168 229.212C82.2918 231.206 82.1903 233.259 81.6206 235.206C81.4865 234.747 81.2554 234.322 80.9429 233.96C80.6305 233.598 80.2441 233.307 79.8096 233.107C79.3751 232.907 78.9027 232.803 78.4245 232.801C77.9462 232.799 77.473 232.9 77.0371 233.097C76.6012 233.294 76.2127 233.582 75.8977 233.942C75.5826 234.302 75.3486 234.725 75.2112 235.183C75.0738 235.641 75.0365 236.124 75.1015 236.597C75.1665 237.071 75.3323 237.526 75.588 237.93" stroke="white" stroke-width="2.50664" stroke-linecap="round" stroke-linejoin="round"/>
<path d="M121.676 258.4C123.587 263.963 126.991 268.892 131.515 272.65C136.039 276.408 141.51 278.849 147.328 279.707L143.835 267.458C136.365 267.241 125.787 265.586 121.676 258.4Z" fill="white" stroke="white" stroke-width="2.50664" stroke-linecap="round" stroke-linejoin="round"/>
<path d="M136.149 150.699L153.812 165.421C154.664 166.14 155.483 166.892 156.285 167.677L163.07 174.462C163.855 175.247 164.59 176.133 165.309 176.901C166.225 176.676 167.052 176.182 167.683 175.482C168.315 174.782 168.722 173.908 168.852 172.974C169.183 171.949 169.228 170.853 168.981 169.804C168.733 168.755 168.203 167.794 167.448 167.025C166.667 166.282 165.654 165.831 164.579 165.749C163.504 165.667 162.434 165.958 161.549 166.574C163.193 164.107 164.007 161.18 163.872 158.219C163.789 156.75 163.356 155.322 162.609 154.054C161.862 152.787 160.822 151.717 159.577 150.933C158.309 150.183 156.835 149.856 155.369 150C153.902 150.145 152.52 150.752 151.422 151.735C150.697 150.402 149.65 149.273 148.376 148.45C147.101 147.627 145.641 147.137 144.128 147.024C142.616 146.911 141.099 147.179 139.717 147.803C138.334 148.427 137.131 149.389 136.215 150.599L136.149 150.699Z" fill="white"/>
<path d="M75.2201 205.343L75.4708 205.711L75.972 206.38L80.3001 212.128C81.1536 213.408 82.2425 214.513 83.5086 215.387C84.1482 215.815 84.8968 216.052 85.6664 216.07C86.4361 216.088 87.1948 215.886 87.8534 215.487C88.4209 215.083 88.8284 214.492 89.005 213.818C89.1815 213.144 89.1159 212.43 88.8195 211.799C88.5232 211.169 88.0148 210.662 87.3832 210.368C86.7516 210.074 86.0369 210.011 85.3635 210.19C85.7848 209.638 86.0869 209.005 86.2509 208.331C86.4149 207.657 86.4371 206.956 86.3162 206.273C86.1952 205.589 85.9338 204.938 85.5483 204.361C85.1629 203.784 84.6617 203.294 84.0767 202.92C83.7592 202.72 85.1295 196.52 83.2412 195.267C82.9548 195.091 82.625 194.998 82.2888 195C79.9492 198.258 77.6764 201.584 75.4873 204.942L75.2201 205.343Z" fill="white"/>
<path d="M125.737 151.484C117.357 146.849 107.69 145.088 98.2143 146.471C95.4068 146.888 92.0646 148.142 91.7137 150.999C91.7304 152.032 91.9958 153.044 92.4874 153.952C92.9791 154.86 93.6824 155.635 94.5377 156.213C98.5137 159.604 103.403 161.743 108.592 162.363C113.804 157.999 119.569 154.341 125.737 151.484Z" fill="white" stroke="white" stroke-width="3.34218" stroke-linecap="round" stroke-linejoin="round"/>
<path d="M123.164 152.086C125.271 149.655 126.37 146.511 126.239 143.296C126.126 141.712 125.507 140.206 124.471 139.002C123.436 137.798 122.04 136.96 120.49 136.612C117.332 136.144 113.939 139.085 114.541 142.21C114.265 139.694 113.382 137.283 111.969 135.183C110.556 133.084 108.654 131.358 106.428 130.156C104.201 128.953 101.715 128.308 99.1846 128.277C96.6539 128.246 94.1534 128.83 91.8979 129.978C91.5489 129.014 90.9302 128.17 90.1154 127.548C89.3007 126.926 88.3242 126.551 87.3024 126.468C84.5785 126.134 81.8547 127.321 79.3982 128.223C77.4442 128.892 75.7105 130.082 74.3849 131.665C70.0233 137.213 74.5687 142.728 79.5652 144.867C83.4255 146.538 87.7535 146.956 91.5635 148.761C94.2563 149.98 96.3711 152.197 97.4625 154.944C97.8867 156.402 98.6367 157.745 99.6556 158.871C100.675 159.997 101.936 160.877 103.345 161.444C104.598 161.951 105.951 162.161 107.299 162.06C108.646 161.959 109.952 161.548 111.115 160.859C115.71 158.825 119.817 155.834 123.164 152.086Z" fill="white"/>
<path d="M144.934 177.477C142.858 175.402 142.356 172.539 143.811 171.084C145.266 169.629 148.128 170.131 150.204 172.207C152.279 174.282 152.782 177.144 151.326 178.599C149.871 180.055 147.009 179.552 144.934 177.477Z" fill="white"/>
<path d="M117.123 195.555C115.083 192.601 115.103 189.05 117.169 187.623C119.235 186.197 122.563 187.435 124.603 190.389C126.643 193.343 126.623 196.895 124.557 198.321C122.492 199.748 119.163 198.51 117.123 195.555Z" fill="white"/>
</g>
<defs>
<clipPath id="clip0_340_533">
<rect width="611" height="677" fill="white" transform="matrix(-1 0 0 1 611 0)"/>
</clipPath>
</defs>
</svg>
