<svg viewBox="0 0 822 585" fill="none" xmlns="http://www.w3.org/2000/svg">
<rect x="295" y="69" width="347" height="446" rx="20" fill="#1E1D22"/>
<g filter="url(#filter0_d_340_532)">
<rect x="221" y="96" width="300" height="50" rx="25" fill="#2D2D33"/>
<path d="M249.691 127.126C248.851 127.126 248.095 126.982 247.423 126.694C246.751 126.394 246.223 125.974 245.839 125.434C245.455 124.894 245.263 124.264 245.263 123.544H247.459C247.507 124.084 247.717 124.528 248.089 124.876C248.473 125.224 249.007 125.398 249.691 125.398C250.399 125.398 250.951 125.23 251.347 124.894C251.743 124.546 251.941 124.102 251.941 123.562C251.941 123.142 251.815 122.8 251.563 122.536C251.323 122.272 251.017 122.068 250.645 121.924C250.285 121.78 249.781 121.624 249.133 121.456C248.317 121.24 247.651 121.024 247.135 120.808C246.631 120.58 246.199 120.232 245.839 119.764C245.479 119.296 245.299 118.672 245.299 117.892C245.299 117.172 245.479 116.542 245.839 116.002C246.199 115.462 246.703 115.048 247.351 114.76C247.999 114.472 248.749 114.328 249.601 114.328C250.813 114.328 251.803 114.634 252.571 115.246C253.351 115.846 253.783 116.674 253.867 117.73H251.599C251.563 117.274 251.347 116.884 250.951 116.56C250.555 116.236 250.033 116.074 249.385 116.074C248.797 116.074 248.317 116.224 247.945 116.524C247.573 116.824 247.387 117.256 247.387 117.82C247.387 118.204 247.501 118.522 247.729 118.774C247.969 119.014 248.269 119.206 248.629 119.35C248.989 119.494 249.481 119.65 250.105 119.818C250.933 120.046 251.605 120.274 252.121 120.502C252.649 120.73 253.093 121.084 253.453 121.564C253.825 122.032 254.011 122.662 254.011 123.454C254.011 124.09 253.837 124.69 253.489 125.254C253.153 125.818 252.655 126.274 251.995 126.622C251.347 126.958 250.579 127.126 249.691 127.126ZM265.522 121.798C265.522 122.17 265.498 122.506 265.45 122.806H257.872C257.932 123.598 258.226 124.234 258.754 124.714C259.282 125.194 259.93 125.434 260.698 125.434C261.802 125.434 262.582 124.972 263.038 124.048H265.252C264.952 124.96 264.406 125.71 263.614 126.298C262.834 126.874 261.862 127.162 260.698 127.162C259.75 127.162 258.898 126.952 258.142 126.532C257.398 126.1 256.81 125.5 256.378 124.732C255.958 123.952 255.748 123.052 255.748 122.032C255.748 121.012 255.952 120.118 256.36 119.35C256.78 118.57 257.362 117.97 258.106 117.55C258.862 117.13 259.726 116.92 260.698 116.92C261.634 116.92 262.468 117.124 263.2 117.532C263.932 117.94 264.502 118.516 264.91 119.26C265.318 119.992 265.522 120.838 265.522 121.798ZM263.38 121.15C263.368 120.394 263.098 119.788 262.57 119.332C262.042 118.876 261.388 118.648 260.608 118.648C259.9 118.648 259.294 118.876 258.79 119.332C258.286 119.776 257.986 120.382 257.89 121.15H263.38ZM266.857 121.996C266.857 121 267.061 120.118 267.469 119.35C267.889 118.582 268.453 117.988 269.161 117.568C269.881 117.136 270.673 116.92 271.537 116.92C272.317 116.92 272.995 117.076 273.571 117.388C274.159 117.688 274.627 118.066 274.975 118.522V117.082H277.045V127H274.975V125.524C274.627 125.992 274.153 126.382 273.553 126.694C272.953 127.006 272.269 127.162 271.501 127.162C270.649 127.162 269.869 126.946 269.161 126.514C268.453 126.07 267.889 125.458 267.469 124.678C267.061 123.886 266.857 122.992 266.857 121.996ZM274.975 122.032C274.975 121.348 274.831 120.754 274.543 120.25C274.267 119.746 273.901 119.362 273.445 119.098C272.989 118.834 272.497 118.702 271.969 118.702C271.441 118.702 270.949 118.834 270.493 119.098C270.037 119.35 269.665 119.728 269.377 120.232C269.101 120.724 268.963 121.312 268.963 121.996C268.963 122.68 269.101 123.28 269.377 123.796C269.665 124.312 270.037 124.708 270.493 124.984C270.961 125.248 271.453 125.38 271.969 125.38C272.497 125.38 272.989 125.248 273.445 124.984C273.901 124.72 274.267 124.336 274.543 123.832C274.831 123.316 274.975 122.716 274.975 122.032ZM281.793 118.522C282.093 118.018 282.489 117.628 282.981 117.352C283.485 117.064 284.079 116.92 284.763 116.92V119.044H284.241C283.437 119.044 282.825 119.248 282.405 119.656C281.997 120.064 281.793 120.772 281.793 121.78V127H279.741V117.082H281.793V118.522ZM285.965 122.032C285.965 121.012 286.169 120.118 286.577 119.35C286.997 118.57 287.573 117.97 288.305 117.55C289.037 117.13 289.877 116.92 290.825 116.92C292.025 116.92 293.015 117.208 293.795 117.784C294.587 118.348 295.121 119.158 295.397 120.214H293.183C293.003 119.722 292.715 119.338 292.319 119.062C291.923 118.786 291.425 118.648 290.825 118.648C289.985 118.648 289.313 118.948 288.809 119.548C288.317 120.136 288.071 120.964 288.071 122.032C288.071 123.1 288.317 123.934 288.809 124.534C289.313 125.134 289.985 125.434 290.825 125.434C292.013 125.434 292.799 124.912 293.183 123.868H295.397C295.109 124.876 294.569 125.68 293.777 126.28C292.985 126.868 292.001 127.162 290.825 127.162C289.877 127.162 289.037 126.952 288.305 126.532C287.573 126.1 286.997 125.5 286.577 124.732C286.169 123.952 285.965 123.052 285.965 122.032ZM302.572 116.92C303.328 116.92 304 117.082 304.588 117.406C305.188 117.73 305.656 118.21 305.992 118.846C306.34 119.482 306.514 120.25 306.514 121.15V127H304.48V121.456C304.48 120.568 304.258 119.89 303.814 119.422C303.37 118.942 302.764 118.702 301.996 118.702C301.228 118.702 300.616 118.942 300.16 119.422C299.716 119.89 299.494 120.568 299.494 121.456V127H297.442V113.68H299.494V118.234C299.842 117.814 300.28 117.49 300.808 117.262C301.348 117.034 301.936 116.92 302.572 116.92Z" fill="#DFDFDF"/>
<path d="M489.5 123C492.538 123 495 120.538 495 117.5C495 114.462 492.538 112 489.5 112C486.462 112 484 114.462 484 117.5C484 120.538 486.462 123 489.5 123Z" stroke="white" stroke-width="2" stroke-miterlimit="10"/>
<path d="M493.48 121.29L500 128" stroke="white" stroke-width="2" stroke-miterlimit="10" stroke-linecap="round"/>
</g>
<g filter="url(#filter1_d_340_532)">
<rect x="562" y="96" width="159.2" height="250.4" rx="12" fill="#2D2D33"/>
<path d="M583.307 320.349C584.363 320.349 585.29 320.555 586.086 320.968C586.893 321.381 587.512 321.971 587.944 322.739C588.386 323.498 588.606 324.381 588.606 325.389C588.606 326.397 588.386 327.28 587.944 328.038C587.512 328.787 586.893 329.368 586.086 329.781C585.29 330.194 584.363 330.4 583.307 330.4H579.794V320.349H583.307ZM583.235 328.686C584.291 328.686 585.107 328.398 585.683 327.822C586.259 327.246 586.547 326.435 586.547 325.389C586.547 324.342 586.259 323.526 585.683 322.941C585.107 322.346 584.291 322.048 583.235 322.048H581.81V328.686H583.235ZM597.532 326.238C597.532 326.526 597.512 326.786 597.474 327.016H591.642C591.69 327.592 591.892 328.043 592.247 328.37C592.602 328.696 593.039 328.859 593.557 328.859C594.306 328.859 594.839 328.538 595.156 327.894H597.33C597.1 328.662 596.658 329.296 596.005 329.795C595.352 330.285 594.551 330.53 593.6 330.53C592.832 330.53 592.141 330.362 591.527 330.026C590.922 329.68 590.447 329.195 590.101 328.571C589.765 327.947 589.597 327.227 589.597 326.411C589.597 325.586 589.765 324.861 590.101 324.237C590.437 323.613 590.908 323.133 591.512 322.797C592.117 322.461 592.813 322.293 593.6 322.293C594.359 322.293 595.036 322.456 595.631 322.782C596.236 323.109 596.701 323.574 597.028 324.179C597.364 324.774 597.532 325.461 597.532 326.238ZM595.444 325.662C595.434 325.144 595.247 324.731 594.882 324.424C594.517 324.107 594.071 323.949 593.543 323.949C593.044 323.949 592.621 324.102 592.276 324.41C591.94 324.707 591.733 325.125 591.656 325.662H595.444ZM602.056 330.53C601.403 330.53 600.817 330.414 600.299 330.184C599.781 329.944 599.368 329.622 599.061 329.219C598.763 328.816 598.6 328.37 598.571 327.88H600.601C600.64 328.187 600.789 328.442 601.048 328.643C601.317 328.845 601.648 328.946 602.041 328.946C602.425 328.946 602.723 328.869 602.934 328.715C603.155 328.562 603.265 328.365 603.265 328.125C603.265 327.866 603.131 327.674 602.862 327.549C602.603 327.414 602.185 327.27 601.609 327.117C601.014 326.973 600.525 326.824 600.141 326.67C599.766 326.517 599.44 326.282 599.161 325.965C598.893 325.648 598.758 325.221 598.758 324.683C598.758 324.242 598.883 323.838 599.133 323.474C599.392 323.109 599.757 322.821 600.227 322.61C600.707 322.398 601.269 322.293 601.912 322.293C602.862 322.293 603.621 322.533 604.187 323.013C604.753 323.483 605.065 324.122 605.123 324.928H603.193C603.165 324.611 603.03 324.362 602.79 324.179C602.56 323.987 602.248 323.891 601.854 323.891C601.489 323.891 601.206 323.958 601.005 324.093C600.813 324.227 600.717 324.414 600.717 324.654C600.717 324.923 600.851 325.13 601.12 325.274C601.389 325.408 601.806 325.547 602.373 325.691C602.949 325.835 603.424 325.984 603.798 326.138C604.173 326.291 604.494 326.531 604.763 326.858C605.041 327.174 605.185 327.597 605.195 328.125C605.195 328.586 605.065 328.998 604.806 329.363C604.557 329.728 604.192 330.016 603.712 330.227C603.241 330.429 602.689 330.53 602.056 330.53ZM614.266 326.238C614.266 326.526 614.247 326.786 614.208 327.016H608.376C608.424 327.592 608.626 328.043 608.981 328.37C609.336 328.696 609.773 328.859 610.292 328.859C611.04 328.859 611.573 328.538 611.89 327.894H614.064C613.834 328.662 613.392 329.296 612.74 329.795C612.087 330.285 611.285 330.53 610.335 330.53C609.567 330.53 608.876 330.362 608.261 330.026C607.656 329.68 607.181 329.195 606.836 328.571C606.5 327.947 606.332 327.227 606.332 326.411C606.332 325.586 606.5 324.861 606.836 324.237C607.172 323.613 607.642 323.133 608.247 322.797C608.852 322.461 609.548 322.293 610.335 322.293C611.093 322.293 611.77 322.456 612.365 322.782C612.97 323.109 613.436 323.574 613.762 324.179C614.098 324.774 614.266 325.461 614.266 326.238ZM612.178 325.662C612.168 325.144 611.981 324.731 611.616 324.424C611.252 324.107 610.805 323.949 610.277 323.949C609.778 323.949 609.356 324.102 609.01 324.41C608.674 324.707 608.468 325.125 608.391 325.662H612.178ZM620.158 322.307C621.109 322.307 621.877 322.61 622.462 323.214C623.048 323.81 623.341 324.645 623.341 325.72V330.4H621.325V325.994C621.325 325.36 621.166 324.875 620.849 324.539C620.533 324.194 620.101 324.021 619.553 324.021C618.997 324.021 618.555 324.194 618.229 324.539C617.912 324.875 617.753 325.36 617.753 325.994V330.4H615.737V322.422H617.753V323.416C618.022 323.07 618.363 322.802 618.776 322.61C619.198 322.408 619.659 322.307 620.158 322.307ZM628.584 328.542L630.6 322.422H632.746L629.794 330.4H627.346L624.408 322.422H626.568L628.584 328.542ZM637.42 330.53C636.652 330.53 635.961 330.362 635.347 330.026C634.732 329.68 634.248 329.195 633.892 328.571C633.547 327.947 633.374 327.227 633.374 326.411C633.374 325.595 633.552 324.875 633.907 324.251C634.272 323.627 634.766 323.147 635.39 322.811C636.014 322.466 636.71 322.293 637.478 322.293C638.246 322.293 638.942 322.466 639.566 322.811C640.19 323.147 640.68 323.627 641.035 324.251C641.4 324.875 641.582 325.595 641.582 326.411C641.582 327.227 641.395 327.947 641.02 328.571C640.656 329.195 640.156 329.68 639.523 330.026C638.899 330.362 638.198 330.53 637.42 330.53ZM637.42 328.773C637.785 328.773 638.126 328.686 638.443 328.514C638.769 328.331 639.028 328.062 639.22 327.707C639.412 327.352 639.508 326.92 639.508 326.411C639.508 325.653 639.307 325.072 638.904 324.669C638.51 324.256 638.025 324.05 637.449 324.05C636.873 324.05 636.388 324.256 635.995 324.669C635.611 325.072 635.419 325.653 635.419 326.411C635.419 327.17 635.606 327.755 635.98 328.168C636.364 328.571 636.844 328.773 637.42 328.773ZM645.077 319.744V330.4H643.061V319.744H645.077ZM650.395 328.542L652.411 322.422H654.557L651.605 330.4H649.157L646.219 322.422H648.379L650.395 328.542ZM663.105 326.238C663.105 326.526 663.086 326.786 663.047 327.016H657.215C657.263 327.592 657.465 328.043 657.82 328.37C658.175 328.696 658.612 328.859 659.131 328.859C659.879 328.859 660.412 328.538 660.729 327.894H662.903C662.673 328.662 662.231 329.296 661.579 329.795C660.926 330.285 660.124 330.53 659.174 330.53C658.406 330.53 657.715 330.362 657.1 330.026C656.495 329.68 656.02 329.195 655.675 328.571C655.339 327.947 655.171 327.227 655.171 326.411C655.171 325.586 655.339 324.861 655.675 324.237C656.011 323.613 656.481 323.133 657.086 322.797C657.691 322.461 658.387 322.293 659.174 322.293C659.932 322.293 660.609 322.456 661.204 322.782C661.809 323.109 662.275 323.574 662.601 324.179C662.937 324.774 663.105 325.461 663.105 326.238ZM661.017 325.662C661.007 325.144 660.82 324.731 660.455 324.424C660.091 324.107 659.644 323.949 659.116 323.949C658.617 323.949 658.195 324.102 657.849 324.41C657.513 324.707 657.307 325.125 657.23 325.662H661.017ZM664.058 326.382C664.058 325.576 664.216 324.861 664.533 324.237C664.86 323.613 665.301 323.133 665.858 322.797C666.415 322.461 667.034 322.293 667.716 322.293C668.234 322.293 668.728 322.408 669.199 322.638C669.669 322.859 670.044 323.157 670.322 323.531V319.744H672.367V330.4H670.322V329.219C670.072 329.613 669.722 329.93 669.271 330.17C668.82 330.41 668.296 330.53 667.701 330.53C667.029 330.53 666.415 330.357 665.858 330.011C665.301 329.666 664.86 329.181 664.533 328.557C664.216 327.923 664.058 327.198 664.058 326.382ZM670.336 326.411C670.336 325.922 670.24 325.504 670.048 325.158C669.856 324.803 669.597 324.534 669.271 324.352C668.944 324.16 668.594 324.064 668.22 324.064C667.845 324.064 667.5 324.155 667.183 324.338C666.866 324.52 666.607 324.789 666.405 325.144C666.213 325.49 666.117 325.902 666.117 326.382C666.117 326.862 666.213 327.285 666.405 327.65C666.607 328.005 666.866 328.278 667.183 328.47C667.509 328.662 667.855 328.758 668.22 328.758C668.594 328.758 668.944 328.667 669.271 328.485C669.597 328.293 669.856 328.024 670.048 327.678C670.24 327.323 670.336 326.901 670.336 326.411ZM677.878 330.53C677.11 330.53 676.419 330.362 675.805 330.026C675.19 329.68 674.705 329.195 674.35 328.571C674.005 327.947 673.832 327.227 673.832 326.411C673.832 325.595 674.009 324.875 674.365 324.251C674.729 323.627 675.224 323.147 675.848 322.811C676.472 322.466 677.168 322.293 677.936 322.293C678.704 322.293 679.4 322.466 680.024 322.811C680.648 323.147 681.137 323.627 681.493 324.251C681.857 324.875 682.04 325.595 682.04 326.411C682.04 327.227 681.853 327.947 681.478 328.571C681.113 329.195 680.614 329.68 679.981 330.026C679.357 330.362 678.656 330.53 677.878 330.53ZM677.878 328.773C678.243 328.773 678.584 328.686 678.901 328.514C679.227 328.331 679.486 328.062 679.678 327.707C679.87 327.352 679.966 326.92 679.966 326.411C679.966 325.653 679.765 325.072 679.361 324.669C678.968 324.256 678.483 324.05 677.907 324.05C677.331 324.05 676.846 324.256 676.453 324.669C676.069 325.072 675.877 325.653 675.877 326.411C675.877 327.17 676.064 327.755 676.438 328.168C676.822 328.571 677.302 328.773 677.878 328.773ZM685.535 323.661C685.794 323.238 686.13 322.907 686.543 322.667C686.965 322.427 687.445 322.307 687.983 322.307V324.424H687.45C686.816 324.424 686.336 324.573 686.01 324.87C685.693 325.168 685.535 325.686 685.535 326.426V330.4H683.519V322.422H685.535V323.661ZM696.757 326.238C696.757 326.526 696.737 326.786 696.699 327.016H690.867C690.915 327.592 691.117 328.043 691.472 328.37C691.827 328.696 692.264 328.859 692.782 328.859C693.531 328.859 694.064 328.538 694.381 327.894H696.555C696.325 328.662 695.883 329.296 695.23 329.795C694.577 330.285 693.776 330.53 692.825 330.53C692.057 330.53 691.366 330.362 690.752 330.026C690.147 329.68 689.672 329.195 689.326 328.571C688.99 327.947 688.822 327.227 688.822 326.411C688.822 325.586 688.99 324.861 689.326 324.237C689.662 323.613 690.133 323.133 690.737 322.797C691.342 322.461 692.038 322.293 692.825 322.293C693.584 322.293 694.261 322.456 694.856 322.782C695.461 323.109 695.926 323.574 696.253 324.179C696.589 324.774 696.757 325.461 696.757 326.238ZM694.669 325.662C694.659 325.144 694.472 324.731 694.107 324.424C693.742 324.107 693.296 323.949 692.768 323.949C692.269 323.949 691.846 324.102 691.501 324.41C691.165 324.707 690.958 325.125 690.881 325.662H694.669ZM701.281 330.53C700.628 330.53 700.042 330.414 699.524 330.184C699.006 329.944 698.593 329.622 698.286 329.219C697.988 328.816 697.825 328.37 697.796 327.88H699.826C699.865 328.187 700.014 328.442 700.273 328.643C700.542 328.845 700.873 328.946 701.266 328.946C701.65 328.946 701.948 328.869 702.159 328.715C702.38 328.562 702.49 328.365 702.49 328.125C702.49 327.866 702.356 327.674 702.087 327.549C701.828 327.414 701.41 327.27 700.834 327.117C700.239 326.973 699.75 326.824 699.366 326.67C698.991 326.517 698.665 326.282 698.386 325.965C698.118 325.648 697.983 325.221 697.983 324.683C697.983 324.242 698.108 323.838 698.358 323.474C698.617 323.109 698.982 322.821 699.452 322.61C699.932 322.398 700.494 322.293 701.137 322.293C702.087 322.293 702.846 322.533 703.412 323.013C703.978 323.483 704.29 324.122 704.348 324.928H702.418C702.39 324.611 702.255 324.362 702.015 324.179C701.785 323.987 701.473 323.891 701.079 323.891C700.714 323.891 700.431 323.958 700.23 324.093C700.038 324.227 699.942 324.414 699.942 324.654C699.942 324.923 700.076 325.13 700.345 325.274C700.614 325.408 701.031 325.547 701.598 325.691C702.174 325.835 702.649 325.984 703.023 326.138C703.398 326.291 703.719 326.531 703.988 326.858C704.266 327.174 704.41 327.597 704.42 328.125C704.42 328.586 704.29 328.998 704.031 329.363C703.782 329.728 703.417 330.016 702.937 330.227C702.466 330.429 701.914 330.53 701.281 330.53Z" fill="white"/>
<path d="M586 278.749V280.376H581.81V282.953H585.021V284.552H581.81V288.8H579.794V278.749H586ZM594.846 284.638C594.846 284.926 594.826 285.185 594.788 285.416H588.956C589.004 285.992 589.206 286.443 589.561 286.769C589.916 287.096 590.353 287.259 590.871 287.259C591.62 287.259 592.153 286.937 592.47 286.294H594.644C594.414 287.062 593.972 287.696 593.319 288.195C592.666 288.685 591.865 288.929 590.914 288.929C590.146 288.929 589.455 288.761 588.841 288.425C588.236 288.08 587.761 287.595 587.415 286.971C587.079 286.347 586.911 285.627 586.911 284.811C586.911 283.985 587.079 283.261 587.415 282.637C587.751 282.013 588.222 281.533 588.826 281.197C589.431 280.861 590.127 280.693 590.914 280.693C591.673 280.693 592.35 280.856 592.945 281.182C593.55 281.509 594.015 281.974 594.342 282.579C594.678 283.174 594.846 283.861 594.846 284.638ZM592.758 284.062C592.748 283.544 592.561 283.131 592.196 282.824C591.831 282.507 591.385 282.349 590.857 282.349C590.358 282.349 589.935 282.502 589.59 282.809C589.254 283.107 589.047 283.525 588.97 284.062H592.758ZM598.333 282.061C598.592 281.638 598.928 281.307 599.341 281.067C599.763 280.827 600.243 280.707 600.781 280.707V282.824H600.248C599.615 282.824 599.135 282.973 598.808 283.27C598.491 283.568 598.333 284.086 598.333 284.825V288.8H596.317V280.822H598.333V282.061ZM604.155 282.061C604.414 281.638 604.75 281.307 605.163 281.067C605.585 280.827 606.065 280.707 606.603 280.707V282.824H606.07C605.437 282.824 604.957 282.973 604.63 283.27C604.313 283.568 604.155 284.086 604.155 284.825V288.8H602.139V280.822H604.155V282.061ZM607.442 284.782C607.442 283.976 607.601 283.261 607.918 282.637C608.244 282.013 608.681 281.533 609.228 281.197C609.785 280.861 610.404 280.693 611.086 280.693C611.681 280.693 612.199 280.813 612.641 281.053C613.092 281.293 613.452 281.595 613.721 281.96V280.822H615.751V288.8H613.721V287.633C613.462 288.008 613.102 288.32 612.641 288.569C612.19 288.809 611.666 288.929 611.071 288.929C610.399 288.929 609.785 288.757 609.228 288.411C608.681 288.065 608.244 287.581 607.918 286.957C607.601 286.323 607.442 285.598 607.442 284.782ZM613.721 284.811C613.721 284.321 613.625 283.904 613.433 283.558C613.241 283.203 612.982 282.934 612.655 282.752C612.329 282.56 611.978 282.464 611.604 282.464C611.23 282.464 610.884 282.555 610.567 282.737C610.25 282.92 609.991 283.189 609.79 283.544C609.598 283.889 609.502 284.302 609.502 284.782C609.502 285.262 609.598 285.685 609.79 286.049C609.991 286.405 610.25 286.678 610.567 286.87C610.894 287.062 611.239 287.158 611.604 287.158C611.978 287.158 612.329 287.067 612.655 286.885C612.982 286.693 613.241 286.424 613.433 286.078C613.625 285.723 613.721 285.301 613.721 284.811ZM627.627 280.707C628.607 280.707 629.394 281.009 629.989 281.614C630.594 282.209 630.896 283.045 630.896 284.12V288.8H628.88V284.393C628.88 283.769 628.722 283.294 628.405 282.968C628.088 282.632 627.656 282.464 627.109 282.464C626.562 282.464 626.125 282.632 625.799 282.968C625.482 283.294 625.323 283.769 625.323 284.393V288.8H623.307V284.393C623.307 283.769 623.149 283.294 622.832 282.968C622.515 282.632 622.083 282.464 621.536 282.464C620.979 282.464 620.538 282.632 620.211 282.968C619.895 283.294 619.736 283.769 619.736 284.393V288.8H617.72V280.822H619.736V281.787C619.995 281.451 620.327 281.187 620.73 280.995C621.143 280.803 621.594 280.707 622.083 280.707C622.707 280.707 623.264 280.841 623.754 281.11C624.243 281.369 624.623 281.744 624.891 282.233C625.151 281.773 625.525 281.403 626.015 281.125C626.514 280.846 627.051 280.707 627.627 280.707ZM640.225 284.638C640.225 284.926 640.206 285.185 640.168 285.416H634.336C634.384 285.992 634.585 286.443 634.94 286.769C635.296 287.096 635.732 287.259 636.251 287.259C637 287.259 637.532 286.937 637.849 286.294H640.024C639.793 287.062 639.352 287.696 638.699 288.195C638.046 288.685 637.244 288.929 636.294 288.929C635.526 288.929 634.835 288.761 634.22 288.425C633.616 288.08 633.14 287.595 632.795 286.971C632.459 286.347 632.291 285.627 632.291 284.811C632.291 283.985 632.459 283.261 632.795 282.637C633.131 282.013 633.601 281.533 634.206 281.197C634.811 280.861 635.507 280.693 636.294 280.693C637.052 280.693 637.729 280.856 638.324 281.182C638.929 281.509 639.395 281.974 639.721 282.579C640.057 283.174 640.225 283.861 640.225 284.638ZM638.137 284.062C638.128 283.544 637.94 283.131 637.576 282.824C637.211 282.507 636.764 282.349 636.236 282.349C635.737 282.349 635.315 282.502 634.969 282.809C634.633 283.107 634.427 283.525 634.35 284.062H638.137ZM646.118 280.707C647.068 280.707 647.836 281.009 648.422 281.614C649.007 282.209 649.3 283.045 649.3 284.12V288.8H647.284V284.393C647.284 283.76 647.126 283.275 646.809 282.939C646.492 282.593 646.06 282.421 645.513 282.421C644.956 282.421 644.514 282.593 644.188 282.939C643.871 283.275 643.713 283.76 643.713 284.393V288.8H641.697V280.822H643.713V281.816C643.982 281.47 644.322 281.201 644.735 281.009C645.158 280.808 645.618 280.707 646.118 280.707ZM653.564 282.478V286.337C653.564 286.606 653.627 286.803 653.751 286.928C653.886 287.043 654.107 287.101 654.414 287.101H655.35V288.8H654.083C652.383 288.8 651.534 287.974 651.534 286.323V282.478H650.583V280.822H651.534V278.849H653.564V280.822H655.35V282.478H653.564ZM656.282 284.782C656.282 283.976 656.44 283.261 656.757 282.637C657.083 282.013 657.52 281.533 658.067 281.197C658.624 280.861 659.243 280.693 659.925 280.693C660.52 280.693 661.038 280.813 661.48 281.053C661.931 281.293 662.291 281.595 662.56 281.96V280.822H664.59V288.8H662.56V287.633C662.301 288.008 661.941 288.32 661.48 288.569C661.029 288.809 660.506 288.929 659.91 288.929C659.238 288.929 658.624 288.757 658.067 288.411C657.52 288.065 657.083 287.581 656.757 286.957C656.44 286.323 656.282 285.598 656.282 284.782ZM662.56 284.811C662.56 284.321 662.464 283.904 662.272 283.558C662.08 283.203 661.821 282.934 661.494 282.752C661.168 282.56 660.818 282.464 660.443 282.464C660.069 282.464 659.723 282.555 659.406 282.737C659.09 282.92 658.83 283.189 658.629 283.544C658.437 283.889 658.341 284.302 658.341 284.782C658.341 285.262 658.437 285.685 658.629 286.049C658.83 286.405 659.09 286.678 659.406 286.87C659.733 287.062 660.078 287.158 660.443 287.158C660.818 287.158 661.168 287.067 661.494 286.885C661.821 286.693 662.08 286.424 662.272 286.078C662.464 285.723 662.56 285.301 662.56 284.811ZM669.612 288.929C668.959 288.929 668.374 288.814 667.855 288.584C667.337 288.344 666.924 288.022 666.617 287.619C666.319 287.216 666.156 286.769 666.127 286.28H668.158C668.196 286.587 668.345 286.841 668.604 287.043C668.873 287.245 669.204 287.345 669.598 287.345C669.982 287.345 670.279 287.269 670.49 287.115C670.711 286.961 670.822 286.765 670.822 286.525C670.822 286.265 670.687 286.073 670.418 285.949C670.159 285.814 669.742 285.67 669.166 285.517C668.57 285.373 668.081 285.224 667.697 285.07C667.322 284.917 666.996 284.681 666.718 284.365C666.449 284.048 666.314 283.621 666.314 283.083C666.314 282.641 666.439 282.238 666.689 281.873C666.948 281.509 667.313 281.221 667.783 281.009C668.263 280.798 668.825 280.693 669.468 280.693C670.418 280.693 671.177 280.933 671.743 281.413C672.31 281.883 672.622 282.521 672.679 283.328H670.75C670.721 283.011 670.586 282.761 670.346 282.579C670.116 282.387 669.804 282.291 669.41 282.291C669.046 282.291 668.762 282.358 668.561 282.493C668.369 282.627 668.273 282.814 668.273 283.054C668.273 283.323 668.407 283.529 668.676 283.673C668.945 283.808 669.362 283.947 669.929 284.091C670.505 284.235 670.98 284.384 671.354 284.537C671.729 284.691 672.05 284.931 672.319 285.257C672.598 285.574 672.742 285.997 672.751 286.525C672.751 286.985 672.622 287.398 672.362 287.763C672.113 288.128 671.748 288.416 671.268 288.627C670.798 288.829 670.246 288.929 669.612 288.929Z" fill="white"/>
<path d="M588.39 247.2H586.374L581.81 240.302V247.2H579.794V237.134H581.81L586.374 244.046V237.134H588.39V247.2ZM589.864 243.182C589.864 242.376 590.023 241.661 590.34 241.037C590.666 240.413 591.103 239.933 591.65 239.597C592.207 239.261 592.826 239.093 593.508 239.093C594.103 239.093 594.621 239.213 595.063 239.453C595.514 239.693 595.874 239.995 596.143 240.36V239.222H598.173V247.2H596.143V246.034C595.884 246.408 595.524 246.72 595.063 246.97C594.612 247.21 594.088 247.33 593.493 247.33C592.821 247.33 592.207 247.157 591.65 246.811C591.103 246.466 590.666 245.981 590.34 245.357C590.023 244.723 589.864 243.998 589.864 243.182ZM596.143 243.211C596.143 242.722 596.047 242.304 595.855 241.958C595.663 241.603 595.404 241.334 595.077 241.152C594.751 240.96 594.4 240.864 594.026 240.864C593.652 240.864 593.306 240.955 592.989 241.138C592.672 241.32 592.413 241.589 592.212 241.944C592.02 242.29 591.924 242.702 591.924 243.182C591.924 243.662 592.02 244.085 592.212 244.45C592.413 244.805 592.672 245.078 592.989 245.27C593.316 245.462 593.661 245.558 594.026 245.558C594.4 245.558 594.751 245.467 595.077 245.285C595.404 245.093 595.663 244.824 595.855 244.478C596.047 244.123 596.143 243.701 596.143 243.211ZM603.468 245.342L605.484 239.222H607.63L604.678 247.2H602.23L599.292 239.222H601.452L603.468 245.342ZM616.178 243.038C616.178 243.326 616.159 243.586 616.121 243.816H610.289C610.337 244.392 610.538 244.843 610.894 245.17C611.249 245.496 611.686 245.659 612.204 245.659C612.953 245.659 613.486 245.338 613.802 244.694H615.977C615.746 245.462 615.305 246.096 614.652 246.595C613.999 247.085 613.198 247.33 612.247 247.33C611.479 247.33 610.788 247.162 610.174 246.826C609.569 246.48 609.094 245.995 608.748 245.371C608.412 244.747 608.244 244.027 608.244 243.211C608.244 242.386 608.412 241.661 608.748 241.037C609.084 240.413 609.554 239.933 610.159 239.597C610.764 239.261 611.46 239.093 612.247 239.093C613.006 239.093 613.682 239.256 614.278 239.582C614.882 239.909 615.348 240.374 615.674 240.979C616.01 241.574 616.178 242.261 616.178 243.038ZM614.09 242.462C614.081 241.944 613.894 241.531 613.529 241.224C613.164 240.907 612.718 240.749 612.19 240.749C611.69 240.749 611.268 240.902 610.922 241.21C610.586 241.507 610.38 241.925 610.303 242.462H614.09ZM620.775 239.093C621.37 239.093 621.893 239.213 622.344 239.453C622.796 239.683 623.151 239.986 623.41 240.36V239.222H625.44V247.258C625.44 247.997 625.292 248.654 624.994 249.23C624.696 249.816 624.25 250.277 623.655 250.613C623.06 250.958 622.34 251.131 621.495 251.131C620.362 251.131 619.431 250.867 618.701 250.339C617.981 249.811 617.573 249.091 617.477 248.179H619.479C619.584 248.544 619.81 248.832 620.155 249.043C620.511 249.264 620.938 249.374 621.437 249.374C622.023 249.374 622.498 249.197 622.863 248.842C623.228 248.496 623.41 247.968 623.41 247.258V246.019C623.151 246.394 622.791 246.706 622.33 246.955C621.879 247.205 621.36 247.33 620.775 247.33C620.103 247.33 619.488 247.157 618.931 246.811C618.375 246.466 617.933 245.981 617.607 245.357C617.29 244.723 617.131 243.998 617.131 243.182C617.131 242.376 617.29 241.661 617.607 241.037C617.933 240.413 618.37 239.933 618.917 239.597C619.474 239.261 620.093 239.093 620.775 239.093ZM623.41 243.211C623.41 242.722 623.314 242.304 623.122 241.958C622.93 241.603 622.671 241.334 622.344 241.152C622.018 240.96 621.668 240.864 621.293 240.864C620.919 240.864 620.573 240.955 620.256 241.138C619.939 241.32 619.68 241.589 619.479 241.944C619.287 242.29 619.191 242.702 619.191 243.182C619.191 243.662 619.287 244.085 619.479 244.45C619.68 244.805 619.939 245.078 620.256 245.27C620.583 245.462 620.928 245.558 621.293 245.558C621.668 245.558 622.018 245.467 622.344 245.285C622.671 245.093 622.93 244.824 623.122 244.478C623.314 244.123 623.41 243.701 623.41 243.211ZM626.891 243.182C626.891 242.376 627.049 241.661 627.366 241.037C627.692 240.413 628.129 239.933 628.676 239.597C629.233 239.261 629.852 239.093 630.534 239.093C631.129 239.093 631.648 239.213 632.089 239.453C632.54 239.693 632.9 239.995 633.169 240.36V239.222H635.2V247.2H633.169V246.034C632.91 246.408 632.55 246.72 632.089 246.97C631.638 247.21 631.115 247.33 630.52 247.33C629.848 247.33 629.233 247.157 628.676 246.811C628.129 246.466 627.692 245.981 627.366 245.357C627.049 244.723 626.891 243.998 626.891 243.182ZM633.169 243.211C633.169 242.722 633.073 242.304 632.881 241.958C632.689 241.603 632.43 241.334 632.104 241.152C631.777 240.96 631.427 240.864 631.052 240.864C630.678 240.864 630.332 240.955 630.016 241.138C629.699 241.32 629.44 241.589 629.238 241.944C629.046 242.29 628.95 242.702 628.95 243.182C628.95 243.662 629.046 244.085 629.238 244.45C629.44 244.805 629.699 245.078 630.016 245.27C630.342 245.462 630.688 245.558 631.052 245.558C631.427 245.558 631.777 245.467 632.104 245.285C632.43 245.093 632.689 244.824 632.881 244.478C633.073 244.123 633.169 243.701 633.169 243.211ZM636.65 243.182C636.65 242.376 636.809 241.661 637.125 241.037C637.452 240.413 637.893 239.933 638.45 239.597C639.007 239.261 639.626 239.093 640.308 239.093C640.826 239.093 641.321 239.208 641.791 239.438C642.261 239.659 642.636 239.957 642.914 240.331V236.544H644.959V247.2H642.914V246.019C642.665 246.413 642.314 246.73 641.863 246.97C641.412 247.21 640.889 247.33 640.293 247.33C639.621 247.33 639.007 247.157 638.45 246.811C637.893 246.466 637.452 245.981 637.125 245.357C636.809 244.723 636.65 243.998 636.65 243.182ZM642.929 243.211C642.929 242.722 642.833 242.304 642.641 241.958C642.449 241.603 642.189 241.334 641.863 241.152C641.537 240.96 641.186 240.864 640.812 240.864C640.437 240.864 640.092 240.955 639.775 241.138C639.458 241.32 639.199 241.589 638.997 241.944C638.805 242.29 638.709 242.702 638.709 243.182C638.709 243.662 638.805 244.085 638.997 244.45C639.199 244.805 639.458 245.078 639.775 245.27C640.101 245.462 640.447 245.558 640.812 245.558C641.186 245.558 641.537 245.467 641.863 245.285C642.189 245.093 642.449 244.824 642.641 244.478C642.833 244.123 642.929 243.701 642.929 243.211ZM650.47 247.33C649.702 247.33 649.011 247.162 648.397 246.826C647.782 246.48 647.298 245.995 646.942 245.371C646.597 244.747 646.424 244.027 646.424 243.211C646.424 242.395 646.602 241.675 646.957 241.051C647.322 240.427 647.816 239.947 648.44 239.611C649.064 239.266 649.76 239.093 650.528 239.093C651.296 239.093 651.992 239.266 652.616 239.611C653.24 239.947 653.73 240.427 654.085 241.051C654.45 241.675 654.632 242.395 654.632 243.211C654.632 244.027 654.445 244.747 654.07 245.371C653.706 245.995 653.206 246.48 652.573 246.826C651.949 247.162 651.248 247.33 650.47 247.33ZM650.47 245.573C650.835 245.573 651.176 245.486 651.493 245.314C651.819 245.131 652.078 244.862 652.27 244.507C652.462 244.152 652.558 243.72 652.558 243.211C652.558 242.453 652.357 241.872 651.954 241.469C651.56 241.056 651.075 240.85 650.499 240.85C649.923 240.85 649.438 241.056 649.045 241.469C648.661 241.872 648.469 242.453 648.469 243.211C648.469 243.97 648.656 244.555 649.03 244.968C649.414 245.371 649.894 245.573 650.47 245.573ZM658.127 240.461C658.386 240.038 658.722 239.707 659.135 239.467C659.557 239.227 660.037 239.107 660.575 239.107V241.224H660.042C659.408 241.224 658.928 241.373 658.602 241.67C658.285 241.968 658.127 242.486 658.127 243.226V247.2H656.111V239.222H658.127V240.461ZM669.349 243.038C669.349 243.326 669.33 243.586 669.291 243.816H663.459C663.507 244.392 663.709 244.843 664.064 245.17C664.419 245.496 664.856 245.659 665.374 245.659C666.123 245.659 666.656 245.338 666.973 244.694H669.147C668.917 245.462 668.475 246.096 667.822 246.595C667.17 247.085 666.368 247.33 665.418 247.33C664.65 247.33 663.958 247.162 663.344 246.826C662.739 246.48 662.264 245.995 661.918 245.371C661.582 244.747 661.414 244.027 661.414 243.211C661.414 242.386 661.582 241.661 661.918 241.037C662.254 240.413 662.725 239.933 663.33 239.597C663.934 239.261 664.63 239.093 665.418 239.093C666.176 239.093 666.853 239.256 667.448 239.582C668.053 239.909 668.518 240.374 668.845 240.979C669.181 241.574 669.349 242.261 669.349 243.038ZM667.261 242.462C667.251 241.944 667.064 241.531 666.699 241.224C666.334 240.907 665.888 240.749 665.36 240.749C664.861 240.749 664.438 240.902 664.093 241.21C663.757 241.507 663.55 241.925 663.474 242.462H667.261ZM673.873 247.33C673.22 247.33 672.635 247.214 672.116 246.984C671.598 246.744 671.185 246.422 670.878 246.019C670.58 245.616 670.417 245.17 670.388 244.68H672.419C672.457 244.987 672.606 245.242 672.865 245.443C673.134 245.645 673.465 245.746 673.859 245.746C674.243 245.746 674.54 245.669 674.751 245.515C674.972 245.362 675.083 245.165 675.083 244.925C675.083 244.666 674.948 244.474 674.679 244.349C674.42 244.214 674.003 244.07 673.427 243.917C672.831 243.773 672.342 243.624 671.958 243.47C671.583 243.317 671.257 243.082 670.979 242.765C670.71 242.448 670.575 242.021 670.575 241.483C670.575 241.042 670.7 240.638 670.95 240.274C671.209 239.909 671.574 239.621 672.044 239.41C672.524 239.198 673.086 239.093 673.729 239.093C674.679 239.093 675.438 239.333 676.004 239.813C676.571 240.283 676.883 240.922 676.94 241.728H675.011C674.982 241.411 674.847 241.162 674.607 240.979C674.377 240.787 674.065 240.691 673.671 240.691C673.307 240.691 673.023 240.758 672.822 240.893C672.63 241.027 672.534 241.214 672.534 241.454C672.534 241.723 672.668 241.93 672.937 242.074C673.206 242.208 673.623 242.347 674.19 242.491C674.766 242.635 675.241 242.784 675.615 242.938C675.99 243.091 676.311 243.331 676.58 243.658C676.859 243.974 677.003 244.397 677.012 244.925C677.012 245.386 676.883 245.798 676.623 246.163C676.374 246.528 676.009 246.816 675.529 247.027C675.059 247.229 674.507 247.33 673.873 247.33Z" fill="white"/>
<path d="M581.81 197.176V199.696H585.194V201.294H581.81V203.958H585.626V205.6H579.794V195.534H585.626V197.176H581.81ZM591.879 197.507C592.829 197.507 593.597 197.809 594.183 198.414C594.768 199.009 595.061 199.845 595.061 200.92V205.6H593.045V201.193C593.045 200.56 592.887 200.075 592.57 199.739C592.253 199.393 591.821 199.221 591.274 199.221C590.717 199.221 590.275 199.393 589.949 199.739C589.632 200.075 589.474 200.56 589.474 201.193V205.6H587.458V197.622H589.474V198.616C589.743 198.27 590.083 198.001 590.496 197.809C590.919 197.608 591.379 197.507 591.879 197.507ZM599.325 199.278V203.137C599.325 203.406 599.388 203.603 599.512 203.728C599.647 203.843 599.868 203.901 600.175 203.901H601.111V205.6H599.844C598.144 205.6 597.295 204.774 597.295 203.123V199.278H596.344V197.622H597.295V195.649H599.325V197.622H601.111V199.278H599.325ZM604.577 198.861C604.836 198.438 605.172 198.107 605.585 197.867C606.007 197.627 606.487 197.507 607.025 197.507V199.624H606.492C605.858 199.624 605.378 199.773 605.052 200.07C604.735 200.368 604.577 200.886 604.577 201.625V205.6H602.561V197.622H604.577V198.861ZM615.799 201.438C615.799 201.726 615.78 201.985 615.741 202.216H609.909C609.957 202.792 610.159 203.243 610.514 203.569C610.869 203.896 611.306 204.059 611.824 204.059C612.573 204.059 613.106 203.737 613.423 203.094H615.597C615.367 203.862 614.925 204.496 614.272 204.995C613.62 205.485 612.818 205.729 611.868 205.729C611.1 205.729 610.408 205.561 609.794 205.225C609.189 204.88 608.714 204.395 608.368 203.771C608.032 203.147 607.864 202.427 607.864 201.611C607.864 200.785 608.032 200.061 608.368 199.437C608.704 198.813 609.175 198.333 609.78 197.997C610.384 197.661 611.08 197.493 611.868 197.493C612.626 197.493 613.303 197.656 613.898 197.982C614.503 198.309 614.968 198.774 615.295 199.379C615.631 199.974 615.799 200.661 615.799 201.438ZM613.711 200.862C613.701 200.344 613.514 199.931 613.149 199.624C612.784 199.307 612.338 199.149 611.81 199.149C611.311 199.149 610.888 199.302 610.543 199.609C610.207 199.907 610 200.325 609.924 200.862H613.711ZM619.617 199.278V203.137C619.617 203.406 619.68 203.603 619.805 203.728C619.939 203.843 620.16 203.901 620.467 203.901H621.403V205.6H620.136C618.437 205.6 617.587 204.774 617.587 203.123V199.278H616.637V197.622H617.587V195.649H619.617V197.622H621.403V199.278H619.617ZM630.269 201.438C630.269 201.726 630.25 201.985 630.211 202.216H624.379C624.427 202.792 624.629 203.243 624.984 203.569C625.339 203.896 625.776 204.059 626.295 204.059C627.043 204.059 627.576 203.737 627.893 203.094H630.067C629.837 203.862 629.395 204.496 628.743 204.995C628.09 205.485 627.288 205.729 626.338 205.729C625.57 205.729 624.879 205.561 624.264 205.225C623.659 204.88 623.184 204.395 622.839 203.771C622.503 203.147 622.335 202.427 622.335 201.611C622.335 200.785 622.503 200.061 622.839 199.437C623.175 198.813 623.645 198.333 624.25 197.997C624.855 197.661 625.551 197.493 626.338 197.493C627.096 197.493 627.773 197.656 628.368 197.982C628.973 198.309 629.439 198.774 629.765 199.379C630.101 199.974 630.269 200.661 630.269 201.438ZM628.181 200.862C628.171 200.344 627.984 199.931 627.619 199.624C627.255 199.307 626.808 199.149 626.28 199.149C625.781 199.149 625.359 199.302 625.013 199.609C624.677 199.907 624.471 200.325 624.394 200.862H628.181ZM636.161 197.507C637.112 197.507 637.88 197.809 638.465 198.414C639.051 199.009 639.344 199.845 639.344 200.92V205.6H637.328V201.193C637.328 200.56 637.169 200.075 636.853 199.739C636.536 199.393 636.104 199.221 635.557 199.221C635 199.221 634.558 199.393 634.232 199.739C633.915 200.075 633.757 200.56 633.757 201.193V205.6H631.741V197.622H633.757V198.616C634.025 198.27 634.366 198.001 634.779 197.809C635.201 197.608 635.662 197.507 636.161 197.507ZM642.283 196.672C641.928 196.672 641.63 196.561 641.39 196.341C641.16 196.11 641.045 195.827 641.045 195.491C641.045 195.155 641.16 194.877 641.39 194.656C641.63 194.425 641.928 194.31 642.283 194.31C642.638 194.31 642.931 194.425 643.162 194.656C643.402 194.877 643.522 195.155 643.522 195.491C643.522 195.827 643.402 196.11 643.162 196.341C642.931 196.561 642.638 196.672 642.283 196.672ZM643.277 197.622V205.6H641.261V197.622H643.277ZM655.176 197.507C656.155 197.507 656.942 197.809 657.537 198.414C658.142 199.009 658.445 199.845 658.445 200.92V205.6H656.429V201.193C656.429 200.569 656.27 200.094 655.953 199.768C655.637 199.432 655.205 199.264 654.657 199.264C654.11 199.264 653.673 199.432 653.347 199.768C653.03 200.094 652.872 200.569 652.872 201.193V205.6H650.856V201.193C650.856 200.569 650.697 200.094 650.381 199.768C650.064 199.432 649.632 199.264 649.085 199.264C648.528 199.264 648.086 199.432 647.76 199.768C647.443 200.094 647.285 200.569 647.285 201.193V205.6H645.269V197.622H647.285V198.587C647.544 198.251 647.875 197.987 648.278 197.795C648.691 197.603 649.142 197.507 649.632 197.507C650.256 197.507 650.813 197.641 651.302 197.91C651.792 198.169 652.171 198.544 652.44 199.033C652.699 198.573 653.073 198.203 653.563 197.925C654.062 197.646 654.6 197.507 655.176 197.507ZM667.774 201.438C667.774 201.726 667.755 201.985 667.716 202.216H661.884C661.932 202.792 662.134 203.243 662.489 203.569C662.844 203.896 663.281 204.059 663.799 204.059C664.548 204.059 665.081 203.737 665.398 203.094H667.572C667.342 203.862 666.9 204.496 666.247 204.995C665.595 205.485 664.793 205.729 663.843 205.729C663.075 205.729 662.383 205.561 661.769 205.225C661.164 204.88 660.689 204.395 660.343 203.771C660.007 203.147 659.839 202.427 659.839 201.611C659.839 200.785 660.007 200.061 660.343 199.437C660.679 198.813 661.15 198.333 661.755 197.997C662.359 197.661 663.055 197.493 663.843 197.493C664.601 197.493 665.278 197.656 665.873 197.982C666.478 198.309 666.943 198.774 667.27 199.379C667.606 199.974 667.774 200.661 667.774 201.438ZM665.686 200.862C665.676 200.344 665.489 199.931 665.124 199.624C664.759 199.307 664.313 199.149 663.785 199.149C663.286 199.149 662.863 199.302 662.518 199.609C662.182 199.907 661.975 200.325 661.899 200.862H665.686ZM673.666 197.507C674.616 197.507 675.384 197.809 675.97 198.414C676.556 199.009 676.848 199.845 676.848 200.92V205.6H674.832V201.193C674.832 200.56 674.674 200.075 674.357 199.739C674.04 199.393 673.608 199.221 673.061 199.221C672.504 199.221 672.063 199.393 671.736 199.739C671.42 200.075 671.261 200.56 671.261 201.193V205.6H669.245V197.622H671.261V198.616C671.53 198.27 671.871 198.001 672.284 197.809C672.706 197.608 673.167 197.507 673.666 197.507ZM681.113 199.278V203.137C681.113 203.406 681.175 203.603 681.3 203.728C681.434 203.843 681.655 203.901 681.962 203.901H682.898V205.6H681.631C679.932 205.6 679.082 204.774 679.082 203.123V199.278H678.132V197.622H679.082V195.649H681.113V197.622H682.898V199.278H681.113ZM687.891 205.729C687.123 205.729 686.432 205.561 685.817 205.225C685.203 204.88 684.718 204.395 684.363 203.771C684.017 203.147 683.844 202.427 683.844 201.611C683.844 200.795 684.022 200.075 684.377 199.451C684.742 198.827 685.236 198.347 685.86 198.011C686.484 197.665 687.18 197.493 687.948 197.493C688.716 197.493 689.412 197.665 690.036 198.011C690.66 198.347 691.15 198.827 691.505 199.451C691.87 200.075 692.052 200.795 692.052 201.611C692.052 202.427 691.865 203.147 691.491 203.771C691.126 204.395 690.627 204.88 689.993 205.225C689.369 205.561 688.668 205.729 687.891 205.729ZM687.891 203.973C688.256 203.973 688.596 203.886 688.913 203.713C689.24 203.531 689.499 203.262 689.691 202.907C689.883 202.552 689.979 202.12 689.979 201.611C689.979 200.853 689.777 200.272 689.374 199.869C688.98 199.456 688.496 199.249 687.92 199.249C687.344 199.249 686.859 199.456 686.465 199.869C686.081 200.272 685.889 200.853 685.889 201.611C685.889 202.369 686.076 202.955 686.451 203.368C686.835 203.771 687.315 203.973 687.891 203.973Z" fill="white"/>
<path d="M585.654 153.949V161.005C585.654 161.984 585.371 162.747 584.805 163.294C584.238 163.832 583.48 164.101 582.53 164.101C581.57 164.101 580.792 163.822 580.197 163.266C579.611 162.709 579.318 161.931 579.318 160.933H581.334C581.344 161.365 581.445 161.701 581.637 161.941C581.838 162.181 582.126 162.301 582.501 162.301C582.866 162.301 583.144 162.186 583.336 161.955C583.528 161.725 583.624 161.408 583.624 161.005V153.949H585.654ZM591.549 164.13C590.781 164.13 590.089 163.962 589.475 163.626C588.861 163.28 588.376 162.795 588.021 162.171C587.675 161.547 587.502 160.827 587.502 160.011C587.502 159.195 587.68 158.475 588.035 157.851C588.4 157.227 588.894 156.747 589.518 156.411C590.142 156.066 590.838 155.893 591.606 155.893C592.374 155.893 593.07 156.066 593.694 156.411C594.318 156.747 594.808 157.227 595.163 157.851C595.528 158.475 595.71 159.195 595.71 160.011C595.71 160.827 595.523 161.547 595.149 162.171C594.784 162.795 594.285 163.28 593.651 163.626C593.027 163.962 592.326 164.13 591.549 164.13ZM591.549 162.373C591.913 162.373 592.254 162.286 592.571 162.114C592.897 161.931 593.157 161.662 593.349 161.307C593.541 160.952 593.637 160.52 593.637 160.011C593.637 159.253 593.435 158.672 593.032 158.269C592.638 157.856 592.153 157.65 591.577 157.65C591.001 157.65 590.517 157.856 590.123 158.269C589.739 158.672 589.547 159.253 589.547 160.011C589.547 160.77 589.734 161.355 590.109 161.768C590.493 162.171 590.973 162.373 591.549 162.373ZM600.314 155.893C600.909 155.893 601.432 156.013 601.883 156.253C602.335 156.483 602.69 156.786 602.949 157.16V156.022H604.979V164.058C604.979 164.797 604.831 165.454 604.533 166.03C604.235 166.616 603.789 167.077 603.194 167.413C602.599 167.758 601.879 167.931 601.034 167.931C599.901 167.931 598.97 167.667 598.24 167.139C597.52 166.611 597.112 165.891 597.016 164.979H599.018C599.123 165.344 599.349 165.632 599.695 165.843C600.05 166.064 600.477 166.174 600.976 166.174C601.562 166.174 602.037 165.997 602.402 165.642C602.767 165.296 602.949 164.768 602.949 164.058V162.819C602.69 163.194 602.33 163.506 601.869 163.755C601.418 164.005 600.899 164.13 600.314 164.13C599.642 164.13 599.027 163.957 598.471 163.611C597.914 163.266 597.472 162.781 597.146 162.157C596.829 161.523 596.671 160.798 596.671 159.982C596.671 159.176 596.829 158.461 597.146 157.837C597.472 157.213 597.909 156.733 598.456 156.397C599.013 156.061 599.632 155.893 600.314 155.893ZM602.949 160.011C602.949 159.522 602.853 159.104 602.661 158.758C602.469 158.403 602.21 158.134 601.883 157.952C601.557 157.76 601.207 157.664 600.832 157.664C600.458 157.664 600.112 157.755 599.795 157.938C599.479 158.12 599.219 158.389 599.018 158.744C598.826 159.09 598.73 159.502 598.73 159.982C598.73 160.462 598.826 160.885 599.018 161.25C599.219 161.605 599.479 161.878 599.795 162.07C600.122 162.262 600.467 162.358 600.832 162.358C601.207 162.358 601.557 162.267 601.883 162.085C602.21 161.893 602.469 161.624 602.661 161.278C602.853 160.923 602.949 160.501 602.949 160.011ZM610.491 164.13C609.723 164.13 609.032 163.962 608.417 163.626C607.803 163.28 607.318 162.795 606.963 162.171C606.617 161.547 606.444 160.827 606.444 160.011C606.444 159.195 606.622 158.475 606.977 157.851C607.342 157.227 607.836 156.747 608.46 156.411C609.084 156.066 609.78 155.893 610.548 155.893C611.316 155.893 612.012 156.066 612.636 156.411C613.26 156.747 613.75 157.227 614.105 157.851C614.47 158.475 614.652 159.195 614.652 160.011C614.652 160.827 614.465 161.547 614.091 162.171C613.726 162.795 613.227 163.28 612.593 163.626C611.969 163.962 611.268 164.13 610.491 164.13ZM610.491 162.373C610.856 162.373 611.196 162.286 611.513 162.114C611.84 161.931 612.099 161.662 612.291 161.307C612.483 160.952 612.579 160.52 612.579 160.011C612.579 159.253 612.377 158.672 611.974 158.269C611.58 157.856 611.096 157.65 610.52 157.65C609.944 157.65 609.459 157.856 609.065 158.269C608.681 158.672 608.489 159.253 608.489 160.011C608.489 160.77 608.676 161.355 609.051 161.768C609.435 162.171 609.915 162.373 610.491 162.373ZM619.184 164.13C618.531 164.13 617.946 164.014 617.427 163.784C616.909 163.544 616.496 163.222 616.189 162.819C615.891 162.416 615.728 161.97 615.699 161.48H617.73C617.768 161.787 617.917 162.042 618.176 162.243C618.445 162.445 618.776 162.546 619.17 162.546C619.554 162.546 619.851 162.469 620.062 162.315C620.283 162.162 620.394 161.965 620.394 161.725C620.394 161.466 620.259 161.274 619.99 161.149C619.731 161.014 619.314 160.87 618.738 160.717C618.142 160.573 617.653 160.424 617.269 160.27C616.894 160.117 616.568 159.882 616.29 159.565C616.021 159.248 615.886 158.821 615.886 158.283C615.886 157.842 616.011 157.438 616.261 157.074C616.52 156.709 616.885 156.421 617.355 156.21C617.835 155.998 618.397 155.893 619.04 155.893C619.99 155.893 620.749 156.133 621.315 156.613C621.882 157.083 622.194 157.722 622.251 158.528H620.322C620.293 158.211 620.158 157.962 619.918 157.779C619.688 157.587 619.376 157.491 618.982 157.491C618.618 157.491 618.334 157.558 618.133 157.693C617.941 157.827 617.845 158.014 617.845 158.254C617.845 158.523 617.979 158.73 618.248 158.874C618.517 159.008 618.934 159.147 619.501 159.291C620.077 159.435 620.552 159.584 620.926 159.738C621.301 159.891 621.622 160.131 621.891 160.458C622.17 160.774 622.314 161.197 622.323 161.725C622.323 162.186 622.194 162.598 621.934 162.963C621.685 163.328 621.32 163.616 620.84 163.827C620.37 164.029 619.818 164.13 619.184 164.13Z" fill="white"/>
<path d="M586.634 112.349V113.976H583.955V122.4H581.939V113.976H579.261V112.349H586.634ZM591.647 122.53C590.879 122.53 590.188 122.362 589.573 122.026C588.959 121.68 588.474 121.195 588.119 120.571C587.773 119.947 587.601 119.227 587.601 118.411C587.601 117.595 587.778 116.875 588.133 116.251C588.498 115.627 588.993 115.147 589.617 114.811C590.241 114.466 590.937 114.293 591.705 114.293C592.473 114.293 593.169 114.466 593.793 114.811C594.417 115.147 594.906 115.627 595.261 116.251C595.626 116.875 595.809 117.595 595.809 118.411C595.809 119.227 595.621 119.947 595.247 120.571C594.882 121.195 594.383 121.68 593.749 122.026C593.125 122.362 592.425 122.53 591.647 122.53ZM591.647 120.773C592.012 120.773 592.353 120.686 592.669 120.514C592.996 120.331 593.255 120.062 593.447 119.707C593.639 119.352 593.735 118.92 593.735 118.411C593.735 117.653 593.533 117.072 593.13 116.669C592.737 116.256 592.252 116.05 591.676 116.05C591.1 116.05 590.615 116.256 590.221 116.669C589.837 117.072 589.645 117.653 589.645 118.411C589.645 119.17 589.833 119.755 590.207 120.168C590.591 120.571 591.071 120.773 591.647 120.773ZM596.769 118.382C596.769 117.576 596.927 116.861 597.244 116.237C597.571 115.613 598.012 115.133 598.569 114.797C599.126 114.461 599.745 114.293 600.427 114.293C600.945 114.293 601.439 114.408 601.91 114.638C602.38 114.859 602.755 115.157 603.033 115.531V111.744H605.078V122.4H603.033V121.219C602.783 121.613 602.433 121.93 601.982 122.17C601.531 122.41 601.007 122.53 600.412 122.53C599.74 122.53 599.126 122.357 598.569 122.011C598.012 121.666 597.571 121.181 597.244 120.557C596.927 119.923 596.769 119.198 596.769 118.382ZM603.047 118.411C603.047 117.922 602.951 117.504 602.759 117.158C602.567 116.803 602.308 116.534 601.982 116.352C601.655 116.16 601.305 116.064 600.931 116.064C600.556 116.064 600.211 116.155 599.894 116.338C599.577 116.52 599.318 116.789 599.116 117.144C598.924 117.49 598.828 117.902 598.828 118.382C598.828 118.862 598.924 119.285 599.116 119.65C599.318 120.005 599.577 120.278 599.894 120.47C600.22 120.662 600.566 120.758 600.931 120.758C601.305 120.758 601.655 120.667 601.982 120.485C602.308 120.293 602.567 120.024 602.759 119.678C602.951 119.323 603.047 118.901 603.047 118.411ZM610.589 122.53C609.821 122.53 609.13 122.362 608.516 122.026C607.901 121.68 607.416 121.195 607.061 120.571C606.716 119.947 606.543 119.227 606.543 118.411C606.543 117.595 606.72 116.875 607.076 116.251C607.44 115.627 607.935 115.147 608.559 114.811C609.183 114.466 609.879 114.293 610.647 114.293C611.415 114.293 612.111 114.466 612.735 114.811C613.359 115.147 613.848 115.627 614.204 116.251C614.568 116.875 614.751 117.595 614.751 118.411C614.751 119.227 614.564 119.947 614.189 120.571C613.824 121.195 613.325 121.68 612.692 122.026C612.068 122.362 611.367 122.53 610.589 122.53ZM610.589 120.773C610.954 120.773 611.295 120.686 611.612 120.514C611.938 120.331 612.197 120.062 612.389 119.707C612.581 119.352 612.677 118.92 612.677 118.411C612.677 117.653 612.476 117.072 612.072 116.669C611.679 116.256 611.194 116.05 610.618 116.05C610.042 116.05 609.557 116.256 609.164 116.669C608.78 117.072 608.588 117.653 608.588 118.411C608.588 119.17 608.775 119.755 609.149 120.168C609.533 120.571 610.013 120.773 610.589 120.773ZM619.282 122.53C618.63 122.53 618.044 122.414 617.526 122.184C617.007 121.944 616.594 121.622 616.287 121.219C615.99 120.816 615.826 120.37 615.798 119.88H617.828C617.866 120.187 618.015 120.442 618.274 120.643C618.543 120.845 618.874 120.946 619.268 120.946C619.652 120.946 619.95 120.869 620.161 120.715C620.382 120.562 620.492 120.365 620.492 120.125C620.492 119.866 620.358 119.674 620.089 119.549C619.83 119.414 619.412 119.27 618.836 119.117C618.241 118.973 617.751 118.824 617.367 118.67C616.993 118.517 616.666 118.282 616.388 117.965C616.119 117.648 615.985 117.221 615.985 116.683C615.985 116.242 616.11 115.838 616.359 115.474C616.618 115.109 616.983 114.821 617.454 114.61C617.934 114.398 618.495 114.293 619.138 114.293C620.089 114.293 620.847 114.533 621.414 115.013C621.98 115.483 622.292 116.122 622.35 116.928H620.42C620.391 116.611 620.257 116.362 620.017 116.179C619.786 115.987 619.474 115.891 619.081 115.891C618.716 115.891 618.433 115.958 618.231 116.093C618.039 116.227 617.943 116.414 617.943 116.654C617.943 116.923 618.078 117.13 618.346 117.274C618.615 117.408 619.033 117.547 619.599 117.691C620.175 117.835 620.65 117.984 621.025 118.138C621.399 118.291 621.721 118.531 621.99 118.858C622.268 119.174 622.412 119.597 622.422 120.125C622.422 120.586 622.292 120.998 622.033 121.363C621.783 121.728 621.418 122.016 620.938 122.227C620.468 122.429 619.916 122.53 619.282 122.53Z" fill="white"/>
<path d="M693.2 111.2L697.6 115.2L702 111.2" stroke="white" stroke-width="1.6" stroke-linecap="round" stroke-linejoin="round"/>
</g>
<rect x="421" y="181" width="59.1707" height="56.7769" rx="12.8" fill="#6247AA"/>
<path d="M451 197.555V220.445" stroke="white" stroke-width="3" stroke-miterlimit="10" stroke-linecap="round"/>
<path d="M439.555 209H462.445" stroke="white" stroke-width="3" stroke-miterlimit="10" stroke-linecap="round"/>
<rect x="482" y="258.777" width="57.1707" height="54.7769" rx="11.8" stroke="#6247AA" stroke-width="2"/>
<g clip-path="url(#clip0_340_532)">
<path d="M505.74 279.473L503.4 288.893L510.6 298.877L517.8 288.785L515.484 279.533" stroke="white" stroke-width="2.4" stroke-linecap="round" stroke-linejoin="round"/>
<path d="M515.4 274.277H505.8C504.474 274.277 503.4 275.351 503.4 276.677C503.4 278.002 504.474 279.077 505.8 279.077H515.4C516.725 279.077 517.8 278.002 517.8 276.677C517.8 275.351 516.725 274.277 515.4 274.277Z" stroke="white" stroke-width="2.4" stroke-linecap="round" stroke-linejoin="round"/>
<path d="M510.6 288.677C511.594 288.677 512.4 287.871 512.4 286.877C512.4 285.883 511.594 285.077 510.6 285.077C509.606 285.077 508.8 285.883 508.8 286.877C508.8 287.871 509.606 288.677 510.6 288.677Z" stroke="white" stroke-width="2.4" stroke-miterlimit="10"/>
<path d="M510.6 288.677V298.877" stroke="white" stroke-width="2.4" stroke-miterlimit="10"/>
</g>
<rect x="451" y="334.554" width="59.1707" height="56.7769" rx="12.8" fill="#6247AA"/>
<path d="M491.4 362.554L486 371.914L480.6 362.554L486 353.194L491.4 362.554Z" stroke="white" stroke-width="2.4" stroke-linecap="round" stroke-linejoin="round"/>
<path d="M486 371.914H475.2L469.8 362.554H480.6L486 371.914Z" stroke="white" stroke-width="2.4" stroke-linecap="round" stroke-linejoin="round"/>
<path d="M486 353.194L480.6 362.554H469.8L475.2 353.194H486Z" stroke="white" stroke-width="2.4" stroke-linecap="round" stroke-linejoin="round"/>
<rect x="482" y="412.331" width="57.1707" height="54.7769" rx="11.8" stroke="#6247AA" stroke-width="2"/>
<path d="M501.6 449.418V439.854C501.6 434.886 505.632 430.854 510.6 430.854C515.568 430.854 519.6 434.886 519.6 439.854V449.418" stroke="white" stroke-width="2.4" stroke-linejoin="round"/>
<path d="M503.796 449.166H501.6V441.87H503.796C504.876 441.87 505.752 442.746 505.752 443.826V447.21C505.752 448.29 504.876 449.166 503.796 449.166Z" stroke="white" stroke-width="2.4" stroke-linejoin="round"/>
<path d="M517.404 441.858H519.6V449.154H517.404C516.324 449.154 515.448 448.278 515.448 447.198V443.814C515.448 442.734 516.324 441.858 517.404 441.858Z" stroke="white" stroke-width="2.4" stroke-linejoin="round"/>
<g clip-path="url(#clip1_340_532)">
<path d="M253.56 413.6C245.843 416.708 237.93 419.306 229.872 421.376C226.84 422.176 223.872 422.824 220.968 423.4C162.096 435 131.16 406.4 131.16 406.4L135.96 396L136.112 395.792C154.312 403.496 200.504 418.992 249.176 402.84L253.56 413.6Z" stroke="white" stroke-width="1.2" stroke-linecap="round" stroke-linejoin="round"/>
<path d="M109.736 337.952C108.432 338.072 106.744 338.208 104.76 338.296C105.165 336.167 105.699 334.064 106.36 332C107.6 333.917 108.727 335.904 109.736 337.952Z" fill="white"/>
<path d="M115.696 364.568C115.407 367.405 114.687 370.181 113.56 372.8C110.762 370.677 108.487 367.94 106.912 364.8C110.408 364.728 113.296 364.656 115.696 364.568Z" fill="white"/>
<path d="M277.088 365.64C275.491 368.096 273.487 370.261 271.16 372.04C271.16 372.04 271.16 369.504 271.352 365.64C273.104 365.6 275.016 365.6 277.088 365.64Z" fill="white"/>
<path d="M282.408 339.136C279.8 339.232 277.384 339.224 275.208 339.136C275.991 336.363 277.154 333.711 278.664 331.256L278.752 331.136C279.312 330.424 279.904 329.704 280.52 328.976L280.76 328.8C281.601 332.193 282.152 335.65 282.408 339.136Z" fill="white"/>
<path d="M263.16 302.4C262.536 306.152 260.136 309.376 257.448 312.072C255.643 313.879 253.687 315.528 251.6 317C250.8 316.424 250.072 315.824 249.336 315.2C243.734 310.512 236.835 307.646 229.56 306.984L211.048 305.304L205.56 304.8L205.048 304.848L200.048 289.52L199.56 287.76C199.688 287.688 199.824 287.624 199.952 287.544C204.353 285.155 208.246 281.932 211.416 278.056L213.344 275.656C216.596 271.666 219.058 267.094 220.6 262.184C224.136 262.896 228.408 260.096 230.656 255.344C233.176 250.032 232.2 244.296 228.488 242.544C227.618 242.172 226.676 242.002 225.732 242.045C224.787 242.088 223.864 242.343 223.032 242.792V242.632C223.1 242.605 223.164 242.57 223.224 242.528C223.419 242.339 223.575 242.113 223.681 241.863C223.787 241.613 223.841 241.344 223.84 241.072C224.096 238.676 223.889 236.254 223.232 233.936C222.756 232.299 222.073 230.729 221.2 229.264C221.112 222.064 216.36 215.44 210.248 211.592C203.736 207.496 195.912 206.088 188.248 205.432C183.489 204.895 178.68 205.008 173.952 205.768C169.256 206.656 164.664 208.632 161.272 212C156.648 216.584 154.376 223.48 153.128 229.752C152.1 230.638 151.157 231.618 150.312 232.68C148.672 234.848 147.696 238.016 148.848 240.584C149.092 241.129 149.434 241.625 149.856 242.048C148.916 241.973 147.974 242.144 147.12 242.544C143.408 244.304 142.44 250.04 144.96 255.344C147.264 260.224 151.704 263.048 155.288 262.12C156.831 267.054 159.302 271.648 162.568 275.656L164.496 278.056C168.202 282.595 172.894 286.228 178.216 288.68L179.416 289.208L179.16 292L177.56 307.2L170.68 307.8L150.48 309.552C147.602 309.805 144.803 310.625 142.243 311.965C139.684 313.305 137.415 315.139 135.568 317.36C130.016 315.816 124.448 313.408 121.968 308.352C120.467 308.309 119.031 307.728 117.922 306.716C116.814 305.703 116.106 304.326 115.927 302.835C115.749 301.343 116.112 299.838 116.951 298.592C117.789 297.347 119.047 296.444 120.496 296.048C117.056 295.632 113.552 295.2 110.416 293.728C107.28 292.256 104.528 289.52 103.952 286.104C103.376 282.688 105.616 278.768 109.056 278.304C106.088 276.053 103.914 272.915 102.848 269.346C101.782 265.776 101.88 261.96 103.127 258.45C104.375 254.94 106.707 251.918 109.787 249.822C112.866 247.726 116.533 246.665 120.256 246.792C116.928 246.496 114.224 243.264 113.92 239.888C113.608 236.328 115.464 232.848 118.04 230.368C120.616 227.888 123.856 226.232 127.04 224.616L143.56 216.24C144.36 212.696 144.12 208.656 145.24 205.128C147.376 198.448 154.448 194.4 161.464 193.704C164.461 193.25 167.515 193.339 170.48 193.968C172.453 194.223 174.405 194.622 176.32 195.16L183.992 196.76C186.952 197.376 191.192 199.16 194.168 198.272C194.601 198.141 195.024 197.978 195.432 197.784C197.032 195.928 200.52 195.384 202.848 195.216C206.096 194.976 209.656 196.144 211.376 198.912C212.632 200.936 212.752 203.504 214.008 205.52C215.608 208.168 218.92 209.36 222.008 209.624C225.096 209.888 228.232 209.4 231.336 209.624C236.087 209.866 240.581 211.852 243.96 215.2C245.713 217.012 247.03 219.201 247.808 221.6C252.976 227.616 254.84 236.648 251.456 243.912C254.124 244.12 256.647 245.214 258.622 247.02C260.597 248.826 261.911 251.241 262.357 253.88C262.802 256.519 262.352 259.232 261.078 261.586C259.805 263.94 257.781 265.8 255.328 266.872C258.3 267.236 261.066 268.577 263.193 270.685C265.319 272.793 266.685 275.547 267.075 278.516C267.465 281.484 266.858 284.498 265.348 287.084C263.839 289.67 261.513 291.68 258.736 292.8C262.216 294.344 263.816 298.672 263.16 302.4Z" fill="white" stroke="white" stroke-width="0.8" stroke-miterlimit="10"/>
<path d="M223.848 241.088C223.849 241.36 223.795 241.629 223.689 241.879C223.583 242.129 223.428 242.355 223.232 242.544C223.173 242.586 223.108 242.621 223.04 242.648L223.16 240.8V240.728C223.015 237.153 222.238 233.632 220.864 230.328C214.677 223.094 206.384 217.976 197.144 215.688C192.948 214.645 188.624 214.211 184.304 214.4C179.011 214.634 173.799 215.79 168.904 217.816C164.956 219.457 161.318 221.759 158.144 224.624C154.853 229.37 152.986 234.957 152.76 240.728V240.8L152.896 242.968C151.96 242.457 150.927 242.149 149.864 242.064C149.442 241.641 149.1 241.145 148.856 240.6C147.704 238.032 148.68 234.864 150.32 232.696C151.165 231.634 152.108 230.654 153.136 229.768C154.384 223.496 156.656 216.6 161.28 212.016C164.672 208.648 169.28 206.672 173.96 205.784C178.688 205.024 183.498 204.911 188.256 205.448C195.92 206.104 203.744 207.512 210.256 211.608C216.368 215.456 221.12 222.12 221.208 229.28C222.081 230.745 222.764 232.315 223.24 233.952C223.897 236.27 224.104 238.692 223.848 241.088Z" stroke="white" stroke-width="0.8" stroke-miterlimit="10"/>
<path d="M370.36 280.8V286.176C370.361 290.973 368.679 295.619 365.608 299.304L354.36 312.8C354.36 312.8 338.76 365.2 293.56 365.6C287.16 365.664 281.712 365.672 277.088 365.6C275.016 365.6 273.088 365.6 271.352 365.544C271.696 358.696 272.632 347.672 275.24 339.144C277.384 339.208 279.8 339.216 282.44 339.144C299.096 338.536 323.504 333.704 333.592 312.008L334.392 307.208L332.792 298.808C332.257 295.899 332.257 292.917 332.792 290.008L334.696 279.552C334.809 278.8 335.215 278.123 335.825 277.668C336.434 277.213 337.199 277.017 337.952 277.122C338.705 277.228 339.386 277.626 339.848 278.231C340.309 278.835 340.513 279.598 340.416 280.352C339.784 286.368 339.616 299.736 351.192 294.4C351.192 294.4 362.792 286.8 344.792 276.8L341.696 275.64C340.809 275.304 340.068 274.668 339.6 273.842C339.133 273.017 338.969 272.054 339.137 271.12C339.305 270.186 339.795 269.341 340.521 268.73C341.247 268.119 342.163 267.782 343.112 267.776C343.337 267.775 343.562 267.794 343.784 267.832L352.096 269.216L350.288 261.968C350.054 261.035 350.148 260.05 350.554 259.178C350.96 258.306 351.654 257.601 352.519 257.18C353.384 256.759 354.367 256.648 355.304 256.866C356.24 257.083 357.074 257.617 357.664 258.376L360.792 262.376L361.144 262.816L362.392 258.64C362.652 257.795 363.202 257.069 363.945 256.591C364.689 256.113 365.577 255.913 366.454 256.027C367.33 256.141 368.138 256.561 368.735 257.214C369.331 257.866 369.677 258.709 369.712 259.592L370.36 280.8Z" stroke="white" stroke-width="1.2" stroke-linecap="round" stroke-linejoin="round"/>
<path d="M365.408 278.656C361.901 274.685 357.59 271.505 352.76 269.328" stroke="white" stroke-width="1.2" stroke-linecap="round" stroke-linejoin="round"/>
<path d="M361.44 263.24L365.568 271.056" stroke="white" stroke-width="1.2" stroke-linecap="round" stroke-linejoin="round"/>
<path d="M115.696 364.568C113.296 364.656 110.408 364.728 106.896 364.784C101.232 364.864 93.992 364.888 84.744 364.784C39.544 364.384 23.944 311.984 23.944 311.984L12.696 298.488C9.63429 294.805 7.95871 290.166 7.95996 285.376V280L8.63997 258.816C8.6748 257.933 9.02101 257.09 9.61733 256.438C10.2137 255.785 11.0216 255.365 11.8982 255.251C12.7748 255.137 13.6634 255.337 14.4068 255.815C15.1502 256.293 15.7004 257.019 15.96 257.864L17.208 262.04L17.56 261.6L20.688 257.6C21.2782 256.841 22.1116 256.307 23.0484 256.089C23.9852 255.872 24.9685 255.982 25.8332 256.404C26.6979 256.825 27.3915 257.53 27.7977 258.402C28.2039 259.274 28.2979 260.259 28.064 261.192L26.256 268.44L34.568 267.056C34.7899 267.017 35.0147 266.999 35.24 267C36.1886 267.006 37.1054 267.343 37.8314 267.954C38.5574 268.565 39.0468 269.41 39.215 270.344C39.3831 271.277 39.2193 272.24 38.7519 273.066C38.2845 273.892 37.543 274.528 36.656 274.864L33.56 276C15.56 286 27.16 293.6 27.16 293.6C38.768 298.936 38.568 285.6 37.936 279.552C37.8386 278.798 38.0428 278.035 38.5042 277.431C38.9656 276.826 39.6469 276.428 40.4002 276.322C41.1535 276.217 41.9179 276.413 42.5275 276.868C43.1371 277.323 43.5426 278 43.656 278.752L45.56 289.192C46.0949 292.101 46.0949 295.083 45.56 297.992L43.96 306.4L44.76 311.2C56.856 337.208 89.56 338.984 104.76 338.296C106.744 338.208 108.432 338.072 109.736 337.952C112.84 344.152 116.76 354.4 115.696 364.568Z" stroke="white" stroke-width="1.2" stroke-linecap="round" stroke-linejoin="round"/>
<path d="M12.9121 277.856C16.4187 273.885 20.7302 270.705 25.5601 268.528" stroke="white" stroke-width="1.2" stroke-linecap="round" stroke-linejoin="round"/>
<path d="M16.88 262.44L12.76 270.256" stroke="white" stroke-width="1.2" stroke-linecap="round" stroke-linejoin="round"/>
<path d="M280.76 328.8L280.592 329C279.925 329.653 279.332 330.377 278.824 331.16L278.736 331.28C277.209 333.745 276.032 336.41 275.24 339.2C272.632 347.752 271.696 358.776 271.352 365.6C271.16 369.48 271.16 372 271.16 372C266.159 372.195 261.17 371.375 256.494 369.587C251.819 367.8 247.555 365.082 243.96 361.6L252.76 401.6C251.568 402.032 250.36 402.448 249.176 402.84C200.504 418.952 154.312 403.496 136.112 395.792C130.88 393.6 127.96 392 127.96 392L135.96 380L139.96 368.8L139.792 368.92C124.68 379.944 113.56 372.8 113.56 372.8C114.687 370.181 115.407 367.405 115.696 364.568C116.792 354.384 112.84 344.152 109.736 337.952C108.727 335.904 107.6 333.917 106.36 332L125.28 325.288C127.187 324.609 128.985 323.655 130.616 322.456C132.247 321.259 133.692 319.827 134.904 318.208C135.12 317.92 135.344 317.64 135.568 317.36C137.415 315.139 139.684 313.305 142.244 311.965C144.803 310.625 147.602 309.805 150.48 309.552L170.68 307.8C171.16 314.2 174.392 324.656 190.76 322.4C205.16 320.416 209.688 311.664 211.064 305.304L229.576 306.984C236.853 307.645 243.756 310.511 249.36 315.2C250.096 315.824 250.856 316.424 251.624 317C258.624 322.316 266.74 325.973 275.36 327.696L280.76 328.8Z" fill="black"/>
<path d="M142.36 429.224C139.728 428.032 137.304 426.864 135.16 425.752C135.029 424.362 135.184 422.961 135.615 421.633C136.045 420.306 136.743 419.08 137.664 418.032" stroke="white" stroke-width="1.2" stroke-linecap="round" stroke-linejoin="round"/>
<path d="M351.328 473.136C332.904 490.24 299.96 519.2 269.96 527.6L257.416 518.968L256.176 518.112L252.76 516C252.76 516 248.376 520 241.808 525.816C230.704 535.584 213.344 550.32 200.392 558.888C194.936 562.504 190.256 565.016 187.16 565.6L133.384 540.424L74.36 512.8L66.856 509.096L54.296 502.888L35.96 493.84C27.6495 489.733 20.2936 483.927 14.368 476.799C8.44238 469.67 4.07897 461.377 1.55997 452.456C0.0127883 446.98 0.359504 441.142 2.54397 435.888C3.98776 432.424 6.1862 429.326 8.97905 426.82C11.7719 424.314 15.0888 422.462 18.688 421.4L23.792 419.888C36.1223 416.246 48.882 414.257 61.736 413.976L115.16 412.8L126.36 411.2L131.16 406.4C131.16 406.4 162.096 435 220.968 423.4C223.872 422.824 226.84 422.16 229.872 421.376C237.93 419.306 245.843 416.708 253.56 413.6H283.16L341.8 414.96C344.992 415.034 348.132 415.785 351.012 417.165C353.892 418.544 356.445 420.519 358.504 422.96L359.696 424.376C362.978 428.271 364.84 433.165 364.976 438.256L365.04 440.488C365.209 446.592 364.073 452.662 361.709 458.292C359.344 463.922 355.805 468.983 351.328 473.136Z" stroke="white" stroke-width="1.2" stroke-linecap="round" stroke-linejoin="round"/>
<path d="M142.36 429.224C139.728 428.032 137.304 426.864 135.16 425.752C135.029 424.362 135.184 422.961 135.615 421.633C136.045 420.306 136.743 419.08 137.664 418.032" stroke="white" stroke-width="1.2" stroke-linecap="round" stroke-linejoin="round"/>
<path d="M77.992 562.648C73.2057 562.819 68.4203 562.28 63.792 561.048C34.192 552.984 51.528 509.376 54.296 502.88L66.856 509.088C63.056 519.2 51.576 555.272 77.992 562.648Z" stroke="white" stroke-width="1.2" stroke-linecap="round" stroke-linejoin="round"/>
<path d="M133.384 540.424C132.584 541.048 128.912 543.776 123.392 547.128C120.992 548.568 118.296 550.12 115.304 551.672C105.024 556.984 91.56 562.248 78 562.648C51.6 555.272 63.064 519.208 66.864 509.096L74.36 512.8L133.384 540.424Z" stroke="white" stroke-width="1.2" stroke-linecap="round" stroke-linejoin="round"/>
<path d="M123.384 547.128C120.984 548.568 118.288 550.12 115.296 551.672C110.192 550.28 102.048 547.6 96.8239 543.592C96.1368 543.062 95.6189 542.344 95.3336 541.524C95.0484 540.705 95.0081 539.82 95.2177 538.978C95.4273 538.136 95.8778 537.373 96.514 536.783C97.1502 536.193 97.9446 535.802 98.7999 535.656C99.5646 535.529 100.349 535.605 101.076 535.874C101.803 536.143 102.446 536.598 102.944 537.192C105.312 540 111.112 545.096 123.384 547.128Z" stroke="white" stroke-width="1.2" stroke-linecap="round" stroke-linejoin="round"/>
<path d="M274.36 584C260.309 582.556 246.438 579.699 232.96 575.472C235.131 571.616 237.72 568.01 240.68 564.72C241.095 564.252 241.326 563.649 241.328 563.024C241.329 562.563 241.201 562.111 240.959 561.718C240.718 561.325 240.372 561.008 239.96 560.8C239.382 560.513 238.722 560.436 238.093 560.582C237.464 560.727 236.905 561.088 236.512 561.6L227.288 573.544C224.744 572.616 222.208 571.6 219.72 570.504C221.88 564.376 229.608 557.624 233.888 554.24C234.238 553.965 234.52 553.614 234.714 553.213C234.908 552.813 235.009 552.373 235.008 551.928C235.009 551.497 234.915 551.07 234.731 550.68C234.547 550.29 234.278 549.945 233.944 549.672C233.401 549.22 232.713 548.979 232.007 548.992C231.3 549.005 230.622 549.272 230.096 549.744L211.496 566.4C207.563 564.251 203.845 561.73 200.392 558.872C213.344 550.304 230.704 535.568 241.808 525.8C258.288 537.464 294.824 566.68 274.36 584Z" stroke="white" stroke-width="1.2" stroke-linecap="round" stroke-linejoin="round"/>
<path d="M274.36 584C294.824 566.68 258.288 537.464 241.808 525.816C248.376 520.04 252.76 516 252.76 516L256.16 518.104L257.4 518.96C276.76 532.496 315.744 565.024 274.36 584Z" stroke="white" stroke-width="1.2" stroke-linecap="round" stroke-linejoin="round"/>
<path d="M234.976 551.888C234.977 552.333 234.876 552.772 234.682 553.173C234.488 553.574 234.206 553.925 233.856 554.2C229.576 557.584 221.856 564.336 219.688 570.464C216.88 569.224 214.136 567.872 211.496 566.416L230.064 549.704C230.59 549.232 231.268 548.965 231.975 548.952C232.681 548.939 233.369 549.18 233.912 549.632C234.246 549.905 234.515 550.25 234.699 550.64C234.883 551.03 234.977 551.457 234.976 551.888Z" stroke="white" stroke-width="1.2" stroke-linecap="round" stroke-linejoin="round"/>
<path d="M241.328 563.024C241.326 563.649 241.095 564.253 240.68 564.72C237.72 568.01 235.131 571.616 232.96 575.472C231.056 574.864 229.155 574.208 227.256 573.504L236.48 561.6C236.873 561.088 237.432 560.728 238.061 560.582C238.69 560.436 239.35 560.513 239.928 560.8C240.346 561.003 240.698 561.319 240.946 561.712C241.193 562.105 241.326 562.56 241.328 563.024Z" stroke="white" stroke-width="1.2" stroke-linecap="round" stroke-linejoin="round"/>
<path d="M84.76 440L251.16 496C252.649 496.504 253.992 497.365 255.07 498.509C256.148 499.653 256.929 501.044 257.344 502.56C257.677 503.787 257.763 505.068 257.597 506.329C257.431 507.59 257.016 508.805 256.376 509.904L252.76 516" stroke="white" stroke-width="1.2" stroke-linecap="round" stroke-linejoin="round"/>
<path d="M184.76 473.6L263.16 454.4" stroke="white" stroke-width="1.2" stroke-linecap="round" stroke-linejoin="round"/>
<path d="M263.96 417.6C257.23 423.442 249.777 428.395 241.784 432.336" stroke="white" stroke-width="1.2" stroke-linecap="round" stroke-linejoin="round"/>
<path d="M216.688 440.552C213.76 441.085 210.851 441.48 207.96 441.736" stroke="white" stroke-width="1.2" stroke-linecap="round" stroke-linejoin="round"/>
<path d="M176.024 440C172.704 439.368 169.472 438.624 166.36 437.8" stroke="white" stroke-width="1.2" stroke-linecap="round" stroke-linejoin="round"/>
<path d="M135.088 425.752C130.7 423.562 126.45 421.107 122.36 418.4" stroke="white" stroke-width="1.2" stroke-linecap="round" stroke-linejoin="round"/>
<path d="M135.16 426.4C135.128 426.176 135.104 425.96 135.088 425.752" stroke="white" stroke-width="1.2" stroke-linecap="round" stroke-linejoin="round"/>
<path d="M142.36 414.4C140.523 415.26 138.887 416.497 137.56 418.032" stroke="white" stroke-width="1.2" stroke-linecap="round" stroke-linejoin="round"/>
<path d="M149.56 417.6C149.56 417.6 141.16 421.2 142.36 429.6" stroke="white" stroke-width="1.2" stroke-linecap="round" stroke-linejoin="round"/>
<path d="M229.136 420.864C229.136 420.864 237.776 426.112 235.16 435.128" stroke="white" stroke-width="1.2" stroke-linecap="round" stroke-linejoin="round"/>
<path d="M220.76 423.256C220.76 423.256 229.4 428.504 226.784 437.52" stroke="white" stroke-width="1.2" stroke-linecap="round" stroke-linejoin="round"/>
<path d="M187.96 412.208C187.595 413.073 187.36 413.987 187.264 414.92C187.222 415.387 187.284 415.858 187.444 416.299C187.604 416.74 187.86 417.141 188.192 417.472C188.539 417.787 188.987 417.967 189.455 417.98C189.923 417.994 190.38 417.839 190.744 417.544C191.071 417.196 191.271 416.748 191.312 416.272C191.345 415.801 191.318 415.328 191.232 414.864" stroke="white" stroke-width="1.2" stroke-linecap="round" stroke-linejoin="round"/>
<path d="M230.656 255.888C228.408 260.688 224.136 263.536 220.6 262.816C219.062 267.781 216.6 272.412 213.344 276.464L211.416 278.864C208.254 282.778 204.36 286.038 199.952 288.464C199.824 288.544 199.688 288.608 199.56 288.68L200.048 290.464L205.048 305.984L205.16 306.344C188.36 324.976 177.56 308.368 177.56 308.368L179.16 292.992L179.448 290.144C179.048 289.976 178.648 289.8 178.248 289.608C172.913 287.12 168.22 283.441 164.528 278.856L162.6 276.456C159.33 272.386 156.859 267.733 155.32 262.744C151.736 263.688 147.32 260.824 144.992 255.88C142.472 250.504 143.44 244.68 147.152 242.912C148.004 242.506 148.948 242.332 149.888 242.408C150.953 242.495 151.987 242.808 152.92 243.328L152.784 241.128V241.056C153.011 235.242 154.868 229.609 158.144 224.8C161.311 221.906 164.95 219.576 168.904 217.912C177.838 214.169 187.737 213.395 197.144 215.704C206.408 218.038 214.706 223.224 220.864 230.528C222.238 233.879 223.015 237.445 223.16 241.064V241.136L223.04 243.008V243.168C223.871 242.715 224.794 242.457 225.74 242.414C226.685 242.371 227.628 242.544 228.496 242.92C232.2 244.704 233.176 250.512 230.656 255.888Z" stroke="white" stroke-width="0.8" stroke-miterlimit="10"/>
<path d="M211.064 305.304C209.688 311.664 205.144 320.416 190.76 322.4C174.392 324.656 171.16 314.168 170.68 307.8L177.56 307.2C177.56 307.2 188.36 323.6 205.16 305.2L205.048 304.848L205.56 304.8L211.064 305.304Z" fill="black"/>
<path d="M41.8799 250.632C46.2879 251.432 50.1359 255.96 51.6719 262.064C51.9039 255.768 54.7279 250.576 58.8719 248.84C54.4639 248 50.6159 243.512 49.0799 237.408C48.8399 243.704 46.0159 248.896 41.8799 250.632Z" fill="white"/>
<path d="M336.664 248.232C332.256 249.032 328.408 253.56 326.864 259.664C326.632 253.368 323.808 248.176 319.664 246.44C324.072 245.6 327.92 241.112 329.456 235.008C329.688 241.304 332.52 246.496 336.656 248.232H336.664Z" fill="white"/>
<path d="M221.176 230.656C221.072 230.536 220.976 230.416 220.864 230.296C214.677 223.062 206.384 217.943 197.144 215.656C192.946 214.623 188.622 214.2 184.304 214.4C179.011 214.634 173.799 215.79 168.904 217.816C164.956 219.457 161.317 221.759 158.144 224.624L157.904 224.848C156.379 226.239 154.949 227.73 153.624 229.312L153.088 229.968L153.136 229.752C154.384 223.48 156.656 216.584 161.28 212C164.672 208.632 169.28 206.656 173.96 205.768C178.688 205.008 183.497 204.895 188.256 205.432C195.92 206.088 203.744 207.496 210.256 211.592C216.368 215.44 221.12 222.104 221.208 229.264C221.222 229.728 221.211 230.193 221.176 230.656Z" fill="black"/>
<path d="M223.848 241.088C223.849 241.36 223.795 241.629 223.689 241.879C223.583 242.129 223.428 242.355 223.232 242.544C223.173 242.586 223.108 242.621 223.04 242.648C222.763 242.745 222.463 242.757 222.179 242.685C221.894 242.612 221.637 242.458 221.44 242.24C220.024 240.784 220.48 238.832 218.136 238.072C216.919 237.757 215.652 237.689 214.408 237.872C213.165 238.064 211.899 238.064 210.656 237.872C204.256 236.448 207.504 227.472 202.2 224.624C199.8 223.336 196.896 224.008 194.2 223.824C192.441 223.683 190.734 223.161 189.197 222.295C187.659 221.429 186.328 220.239 185.296 218.808C185.12 218.552 184.96 218.312 184.816 218.08C183.816 216.424 183.76 215.264 184.304 214.464C184.929 213.721 185.812 213.241 186.776 213.12C189.44 212.544 193.336 213 195.456 213.352C201.946 214.402 208.09 216.988 213.376 220.896C216.52 223.16 219.182 226.026 221.208 229.328C222.081 230.793 222.764 232.363 223.24 234C223.891 236.303 224.098 238.708 223.848 241.088Z" fill="white"/>
<path d="M184.816 218.032C184.48 219.584 184.32 220.96 183.168 222.352C181.488 224.239 179.202 225.481 176.704 225.864C174.27 226.212 171.809 226.341 169.352 226.248C166.816 226.248 163.912 226.624 162.464 228.92C161.448 230.52 161.448 232.64 161.184 234.584C160.752 237.888 159.32 241.216 156.696 242.816C156.087 243.188 155.41 243.436 154.704 243.544C153.838 243.695 152.948 243.639 152.107 243.382C151.266 243.125 150.498 242.673 149.864 242.064C149.442 241.641 149.1 241.145 148.856 240.6C147.704 238.032 148.68 234.864 150.32 232.696C150.809 232.058 151.344 231.456 151.92 230.896C151.945 230.681 151.99 230.47 152.056 230.264C152.856 227.624 155.168 225.768 157.392 224.144L157.64 223.96C158.344 223.44 159.056 222.92 159.736 222.36C160.382 221.839 160.984 221.267 161.536 220.648C162.058 219.995 162.529 219.302 162.944 218.576L163.024 218.456C163.517 217.854 164.1 217.33 164.752 216.904C167.602 214.881 170.893 213.567 174.352 213.072C178.248 212.432 182.856 212.112 186.768 212.848C186.772 212.92 186.772 212.992 186.768 213.064C185.804 213.185 184.921 213.665 184.296 214.408C183.76 215.2 183.816 216.376 184.816 218.032Z" fill="white"/>
<path d="M200.048 289.52C195.16 293.6 187.112 297.904 179.16 292L179.448 289.192L178.248 288.664C185.374 290.993 193.111 290.594 199.96 287.544C199.832 287.624 199.696 287.688 199.568 287.76L200.048 289.52Z" fill="white" stroke="white" stroke-width="0.8" stroke-miterlimit="10"/>
<path d="M139.776 368.944C142.87 364.67 144.293 359.411 143.776 354.16" stroke="white" stroke-width="1.2" stroke-linecap="round" stroke-linejoin="round"/>
<path d="M244.008 361.984C242.166 358.279 240.986 354.28 240.52 350.168" stroke="white" stroke-width="1.2" stroke-linecap="round" stroke-linejoin="round"/>
<path d="M225.712 246.304C224.253 247.53 223.182 249.153 222.626 250.977C222.071 252.8 222.057 254.745 222.584 256.576C222.736 256.056 222.957 255.558 223.24 255.096C223.383 254.865 223.572 254.666 223.795 254.511C224.018 254.355 224.27 254.247 224.536 254.192C224.805 254.146 225.082 254.19 225.324 254.317C225.565 254.444 225.758 254.648 225.872 254.896" stroke="white" stroke-width="1.2" stroke-linecap="round" stroke-linejoin="round"/>
<path d="M150.824 247.104C152.283 248.33 153.355 249.954 153.91 251.777C154.465 253.6 154.48 255.545 153.952 257.376C153.8 256.856 153.579 256.358 153.296 255.896C153.153 255.665 152.964 255.466 152.741 255.311C152.518 255.155 152.266 255.047 152 254.992C151.732 254.945 151.456 254.989 151.215 255.116C150.975 255.244 150.784 255.448 150.672 255.696" stroke="white" stroke-width="1.2" stroke-linecap="round" stroke-linejoin="round"/>
<path d="M171.56 260.8C177.083 260.8 181.56 256.681 181.56 251.6C181.56 246.519 177.083 242.4 171.56 242.4C166.037 242.4 161.56 246.519 161.56 251.6C161.56 256.681 166.037 260.8 171.56 260.8Z" stroke="white" stroke-width="1.2" stroke-linecap="round" stroke-linejoin="round"/>
<path d="M201.16 260.8C206.683 260.8 211.16 256.681 211.16 251.6C211.16 246.519 206.683 242.4 201.16 242.4C195.637 242.4 191.16 246.519 191.16 251.6C191.16 256.681 195.637 260.8 201.16 260.8Z" stroke="white" stroke-width="1.2" stroke-linecap="round" stroke-linejoin="round"/>
<path d="M181.56 252C181.56 252 187.96 249.6 191.16 252" stroke="white" stroke-width="1.2" stroke-linecap="round" stroke-linejoin="round"/>
<path d="M186.36 256C186.36 256 182.36 262.4 185.56 264" stroke="white" stroke-width="1.2" stroke-linecap="round" stroke-linejoin="round"/>
<path d="M180.704 278.08C183.032 279.68 187.792 281.528 193.392 276.272C193.531 276.147 193.625 275.981 193.662 275.799C193.698 275.616 193.675 275.426 193.595 275.258C193.515 275.09 193.382 274.952 193.217 274.865C193.053 274.778 192.864 274.747 192.68 274.776L181.072 276.512C180.9 276.536 180.739 276.612 180.61 276.73C180.482 276.847 180.392 277 180.352 277.17C180.312 277.34 180.324 277.517 180.387 277.679C180.45 277.842 180.561 277.981 180.704 278.08Z" stroke="white" stroke-width="1.2" stroke-linecap="round" stroke-linejoin="round"/>
<path d="M167.008 252.096C167.008 252.096 169.528 256.488 175.808 251.136" stroke="white" stroke-width="1.2" stroke-linecap="round" stroke-linejoin="round"/>
<path d="M206.176 252.896C206.176 252.896 203.656 257.288 197.376 251.936" stroke="white" stroke-width="1.2" stroke-linecap="round" stroke-linejoin="round"/>
<path d="M161.56 250.4L154.36 243.2" stroke="white" stroke-width="1.2" stroke-linecap="round" stroke-linejoin="round"/>
<path d="M211.96 249.6L219.96 241.6" stroke="white" stroke-width="1.2" stroke-linecap="round" stroke-linejoin="round"/>
<path d="M156.472 347.704H153.856C153.729 347.716 153.61 347.773 153.521 347.866C153.433 347.959 153.381 348.08 153.376 348.208L151.88 364.096C151.869 364.155 151.869 364.216 151.882 364.275C151.895 364.333 151.92 364.389 151.956 364.438C151.991 364.486 152.036 364.527 152.087 364.558C152.139 364.589 152.196 364.608 152.256 364.616H154.872C155 364.605 155.119 364.547 155.207 364.454C155.295 364.362 155.347 364.24 155.352 364.112L156.856 348.208C156.865 348.15 156.862 348.09 156.848 348.033C156.833 347.975 156.807 347.922 156.771 347.875C156.735 347.827 156.69 347.788 156.639 347.759C156.588 347.73 156.531 347.711 156.472 347.704Z" fill="white"/>
<path d="M169.144 352.728C168.814 352.22 168.359 351.806 167.822 351.526C167.285 351.246 166.685 351.109 166.08 351.128C165.355 351.11 164.639 351.281 164 351.624C163.715 351.767 163.447 351.942 163.2 352.144C163.139 352.2 163.062 352.235 162.98 352.246C162.899 352.257 162.815 352.243 162.742 352.206C162.668 352.169 162.607 352.11 162.568 352.037C162.528 351.965 162.511 351.882 162.52 351.8V351.744C162.531 351.684 162.53 351.623 162.517 351.564C162.503 351.505 162.478 351.449 162.442 351.4C162.406 351.351 162.36 351.31 162.307 351.28C162.255 351.25 162.196 351.231 162.136 351.224H159.512C159.384 351.235 159.264 351.293 159.174 351.385C159.084 351.478 159.031 351.599 159.024 351.728L157.848 364.168C157.837 364.228 157.838 364.289 157.851 364.348C157.865 364.407 157.89 364.463 157.926 364.512C157.962 364.561 158.008 364.602 158.061 364.632C158.113 364.662 158.172 364.681 158.232 364.688H160.864C160.991 364.675 161.109 364.617 161.197 364.525C161.285 364.432 161.337 364.311 161.344 364.184L161.984 357.376C162.021 356.61 162.301 355.876 162.784 355.28C162.992 355.043 163.249 354.855 163.538 354.729C163.827 354.603 164.141 354.542 164.456 354.552C164.758 354.544 165.057 354.613 165.324 354.753C165.592 354.893 165.819 355.099 165.984 355.352C166.354 355.99 166.493 356.736 166.376 357.464L165.728 364.28C165.717 364.34 165.718 364.402 165.732 364.462C165.746 364.522 165.772 364.578 165.809 364.627C165.846 364.676 165.893 364.716 165.946 364.746C166 364.776 166.059 364.794 166.12 364.8L168.736 364.848C168.865 364.836 168.985 364.778 169.073 364.683C169.162 364.589 169.213 364.465 169.216 364.336L169.92 356.96C170.162 355.502 169.888 354.005 169.144 352.728Z" fill="white"/>
<path d="M176.984 354.312C177.191 354.304 177.398 354.338 177.592 354.412C177.786 354.487 177.963 354.6 178.112 354.744C178.31 354.951 178.441 355.213 178.488 355.496C178.5 355.593 178.545 355.683 178.614 355.751C178.684 355.819 178.775 355.862 178.872 355.872H181.272C181.417 355.856 181.55 355.783 181.642 355.669C181.733 355.555 181.776 355.409 181.76 355.264C181.712 354.248 181.327 353.276 180.664 352.504C180.241 352.06 179.726 351.714 179.155 351.489C178.585 351.263 177.972 351.165 177.36 351.2C176.472 351.174 175.59 351.355 174.784 351.728C174.078 352.063 173.473 352.579 173.032 353.224C172.611 353.855 172.353 354.581 172.28 355.336C172.163 356.095 172.301 356.872 172.672 357.544C172.989 358.061 173.443 358.479 173.984 358.752C174.626 359.054 175.293 359.303 175.976 359.496C176.531 359.652 177.067 359.866 177.576 360.136C177.73 360.218 177.855 360.346 177.934 360.502C178.013 360.658 178.041 360.835 178.016 361.008C178.006 361.165 177.961 361.319 177.885 361.457C177.809 361.595 177.703 361.715 177.576 361.808C177.267 362.015 176.899 362.116 176.528 362.096C176.091 362.105 175.668 361.941 175.352 361.64C175.132 361.424 174.986 361.144 174.936 360.84C174.927 360.742 174.883 360.651 174.813 360.582C174.743 360.513 174.65 360.471 174.552 360.464H171.92C171.848 360.47 171.779 360.49 171.715 360.524C171.651 360.558 171.595 360.604 171.551 360.66C171.506 360.717 171.473 360.781 171.454 360.851C171.435 360.92 171.43 360.993 171.44 361.064C171.485 361.684 171.663 362.286 171.96 362.832C172.352 363.546 172.941 364.132 173.656 364.52C174.463 364.952 175.365 365.175 176.28 365.168C177.144 365.196 178.003 365.026 178.792 364.672C179.503 364.357 180.116 363.857 180.568 363.224C181.018 362.604 181.294 361.875 181.368 361.112C181.476 360.334 181.327 359.542 180.944 358.856C180.635 358.331 180.186 357.902 179.648 357.616C178.996 357.302 178.322 357.034 177.632 356.816C177.075 356.686 176.537 356.485 176.032 356.216C175.876 356.133 175.75 356.004 175.67 355.846C175.59 355.689 175.56 355.511 175.584 355.336C175.593 355.187 175.634 355.043 175.705 354.911C175.775 354.78 175.873 354.666 175.992 354.576C176.283 354.377 176.633 354.284 176.984 354.312Z" fill="white"/>
<path d="M190.456 351.576H189.008C188.947 351.57 188.888 351.552 188.834 351.522C188.781 351.492 188.734 351.452 188.697 351.403C188.66 351.354 188.634 351.298 188.62 351.238C188.606 351.178 188.605 351.116 188.616 351.056L188.84 348.776C188.851 348.716 188.85 348.654 188.836 348.594C188.822 348.534 188.796 348.478 188.759 348.429C188.722 348.38 188.675 348.34 188.622 348.31C188.568 348.28 188.509 348.262 188.448 348.256H185.776C185.646 348.268 185.525 348.326 185.436 348.42C185.346 348.514 185.293 348.638 185.288 348.768L185.064 351.048C185.06 351.179 185.009 351.303 184.918 351.398C184.828 351.492 184.706 351.55 184.576 351.56H184.048C183.918 351.572 183.797 351.63 183.708 351.724C183.618 351.818 183.565 351.942 183.56 352.072L183.328 354.472C183.317 354.532 183.318 354.594 183.332 354.654C183.346 354.714 183.372 354.77 183.409 354.819C183.446 354.868 183.493 354.908 183.546 354.938C183.6 354.968 183.659 354.986 183.72 354.992H184.248C184.31 354.996 184.369 355.014 184.424 355.043C184.478 355.073 184.525 355.114 184.562 355.163C184.599 355.212 184.626 355.269 184.639 355.329C184.652 355.389 184.653 355.452 184.64 355.512L184.176 360.392C184.016 362.061 184.259 363.272 184.904 364.024C185.276 364.416 185.73 364.722 186.233 364.921C186.736 365.12 187.276 365.207 187.816 365.176H189.184C189.314 365.165 189.435 365.106 189.524 365.012C189.614 364.918 189.667 364.794 189.672 364.664L189.912 362.168C189.923 362.107 189.922 362.045 189.908 361.985C189.894 361.925 189.868 361.868 189.831 361.818C189.795 361.769 189.748 361.727 189.694 361.697C189.641 361.666 189.581 361.647 189.52 361.64H188.72C188.574 361.655 188.427 361.637 188.289 361.589C188.151 361.541 188.025 361.463 187.92 361.36C187.75 361.1 187.69 360.784 187.752 360.48L188.224 355.536C188.229 355.407 188.282 355.284 188.372 355.191C188.462 355.098 188.583 355.042 188.712 355.032H190.16C190.29 355.022 190.412 354.964 190.502 354.87C190.593 354.775 190.644 354.651 190.648 354.52L190.88 352.12C190.896 352.056 190.897 351.988 190.883 351.924C190.869 351.859 190.84 351.798 190.799 351.746C190.759 351.693 190.707 351.651 190.647 351.621C190.588 351.592 190.522 351.577 190.456 351.576Z" fill="white"/>
<path d="M204.072 351.736H201.376C201.245 351.746 201.122 351.803 201.031 351.898C200.939 351.992 200.885 352.117 200.88 352.248C200.84 352.688 200.384 352.936 200.128 352.648C199.931 352.429 199.708 352.236 199.464 352.072C198.836 351.664 198.101 351.453 197.352 351.464C196.394 351.444 195.455 351.723 194.664 352.264C193.78 352.876 193.065 353.702 192.584 354.664C192.004 355.809 191.654 357.056 191.552 358.336C191.403 359.58 191.514 360.841 191.88 362.04C192.155 363.01 192.712 363.876 193.48 364.528C194.184 365.113 195.069 365.436 195.984 365.44C196.759 365.46 197.525 365.269 198.2 364.888C198.484 364.727 198.752 364.54 199 364.328C199.063 364.262 199.146 364.219 199.236 364.206C199.326 364.193 199.418 364.21 199.497 364.255C199.576 364.3 199.638 364.37 199.673 364.455C199.707 364.539 199.713 364.632 199.688 364.72V364.8C199.675 364.86 199.676 364.923 199.689 364.983C199.702 365.043 199.729 365.1 199.766 365.149C199.803 365.198 199.85 365.239 199.904 365.268C199.959 365.298 200.018 365.316 200.08 365.32L202.776 365.368C202.906 365.357 203.028 365.298 203.12 365.204C203.211 365.11 203.265 364.987 203.272 364.856L204.48 352.24C204.489 352.18 204.485 352.118 204.469 352.059C204.453 352 204.425 351.946 204.387 351.898C204.348 351.851 204.301 351.812 204.246 351.784C204.192 351.756 204.133 351.74 204.072 351.736ZM200.272 358.52C200.234 359.426 199.89 360.291 199.296 360.976C199.064 361.253 198.774 361.475 198.446 361.627C198.118 361.779 197.761 361.857 197.4 361.856C197.057 361.857 196.719 361.771 196.418 361.606C196.117 361.441 195.863 361.202 195.68 360.912C195.186 360.007 195.034 358.955 195.251 357.948C195.469 356.94 196.041 356.045 196.864 355.424C197.338 355.145 197.898 355.054 198.436 355.168C198.973 355.282 199.448 355.593 199.768 356.04C200.235 356.776 200.415 357.659 200.272 358.52Z" fill="white"/>
<path d="M210.704 347.344H207.992C207.861 347.359 207.74 347.419 207.65 347.514C207.559 347.609 207.504 347.733 207.496 347.864L205.856 364.952C205.845 365.013 205.846 365.076 205.86 365.137C205.875 365.198 205.902 365.255 205.939 365.304C205.977 365.354 206.025 365.395 206.079 365.426C206.134 365.456 206.194 365.474 206.256 365.48L208.96 365.52C209.092 365.512 209.216 365.455 209.307 365.36C209.399 365.266 209.452 365.14 209.456 365.008L211.104 347.904C211.121 347.84 211.123 347.774 211.111 347.71C211.099 347.645 211.073 347.584 211.035 347.53C210.997 347.477 210.947 347.433 210.89 347.4C210.833 347.368 210.769 347.349 210.704 347.344Z" fill="white"/>
<path d="M216.936 347.408H214.216C214.084 347.42 213.961 347.479 213.87 347.574C213.779 347.67 213.725 347.796 213.72 347.928L212.072 365.048C212.059 365.109 212.06 365.172 212.073 365.232C212.086 365.293 212.112 365.35 212.149 365.4C212.186 365.45 212.234 365.491 212.288 365.522C212.342 365.552 212.402 365.57 212.464 365.576L215.184 365.616C215.316 365.608 215.44 365.551 215.531 365.456C215.623 365.362 215.676 365.236 215.68 365.104L217.336 347.968C217.353 347.904 217.355 347.838 217.343 347.773C217.331 347.709 217.305 347.648 217.267 347.594C217.229 347.541 217.179 347.497 217.122 347.464C217.065 347.432 217.001 347.413 216.936 347.408Z" fill="white"/>
<path d="M231.024 352.048H228.08C227.979 352.052 227.882 352.086 227.8 352.146C227.719 352.206 227.658 352.289 227.624 352.384L224.76 359.248C224.568 359.704 224.016 359.696 223.912 359.248L222.36 352.288C222.345 352.195 222.299 352.11 222.229 352.048C222.159 351.985 222.07 351.948 221.976 351.944H218.912C218.83 351.951 218.751 351.977 218.68 352.018C218.609 352.06 218.548 352.117 218.502 352.185C218.456 352.254 218.426 352.331 218.414 352.413C218.402 352.494 218.408 352.577 218.432 352.656L221.712 365.048C221.75 365.187 221.736 365.335 221.672 365.464L218.736 371.464C218.692 371.533 218.667 371.612 218.662 371.693C218.656 371.774 218.671 371.856 218.706 371.93C218.74 372.004 218.792 372.068 218.857 372.117C218.923 372.165 218.999 372.197 219.08 372.208L221.992 372.256C222.088 372.253 222.181 372.222 222.259 372.166C222.337 372.111 222.397 372.034 222.432 371.944L231.368 352.8C231.413 352.731 231.441 352.652 231.447 352.569C231.453 352.487 231.438 352.404 231.404 352.329C231.37 352.254 231.317 352.189 231.25 352.139C231.184 352.09 231.106 352.059 231.024 352.048Z" fill="white"/>
</g>
<defs>
<filter id="filter0_d_340_532" x="121" y="0" width="500" height="250" filterUnits="userSpaceOnUse" color-interpolation-filters="sRGB">
<feFlood flood-opacity="0" result="BackgroundImageFix"/>
<feColorMatrix in="SourceAlpha" type="matrix" values="0 0 0 0 0 0 0 0 0 0 0 0 0 0 0 0 0 0 127 0" result="hardAlpha"/>
<feOffset dy="4"/>
<feGaussianBlur stdDeviation="50"/>
<feComposite in2="hardAlpha" operator="out"/>
<feColorMatrix type="matrix" values="0 0 0 0 0 0 0 0 0 0 0 0 0 0 0 0 0 0 0.1 0"/>
<feBlend mode="normal" in2="BackgroundImageFix" result="effect1_dropShadow_340_532"/>
<feBlend mode="normal" in="SourceGraphic" in2="effect1_dropShadow_340_532" result="shape"/>
</filter>
<filter id="filter1_d_340_532" x="462" y="0" width="359.2" height="450.4" filterUnits="userSpaceOnUse" color-interpolation-filters="sRGB">
<feFlood flood-opacity="0" result="BackgroundImageFix"/>
<feColorMatrix in="SourceAlpha" type="matrix" values="0 0 0 0 0 0 0 0 0 0 0 0 0 0 0 0 0 0 127 0" result="hardAlpha"/>
<feOffset dy="4"/>
<feGaussianBlur stdDeviation="50"/>
<feComposite in2="hardAlpha" operator="out"/>
<feColorMatrix type="matrix" values="0 0 0 0 0 0 0 0 0 0 0 0 0 0 0 0 0 0 0.1 0"/>
<feBlend mode="normal" in2="BackgroundImageFix" result="effect1_dropShadow_340_532"/>
<feBlend mode="normal" in="SourceGraphic" in2="effect1_dropShadow_340_532" result="shape"/>
</filter>
<clipPath id="clip0_340_532">
<rect width="28.8" height="28.8" fill="white" transform="translate(496.2 272.177)"/>
</clipPath>
<clipPath id="clip1_340_532">
<rect width="370.96" height="391.6" fill="white" transform="translate(0 193)"/>
</clipPath>
</defs>
</svg>
