<svg viewBox="0 0 718 271" fill="none" xmlns="http://www.w3.org/2000/svg">
<path d="M154.756 105.076C166.086 105.076 177.416 105.131 188.746 105.031C191.206 105.011 192.331 105.696 192.581 108.296C194.941 132.951 190.031 155.251 171.531 173.056C159.591 184.551 145.211 190.816 128.751 192.731C111.456 194.741 94.946 192.311 79.596 184.106C55.566 171.256 40.376 151.446 36.076 124.396C32.141 99.6114 39.061 77.5364 55.811 58.7564C69.441 43.4814 86.531 34.3664 106.801 31.7664C129.816 28.8114 150.616 34.3364 168.536 49.4664C173.211 53.4164 173.156 53.4814 168.881 57.7564C165.641 60.9964 162.351 64.1914 159.186 67.5014C157.901 68.8464 157.011 69.0164 155.491 67.6864C146.671 59.9564 136.471 55.1814 124.746 53.9214C108.231 52.1464 93.251 56.0114 80.436 66.7764C65.601 79.2314 58.756 95.5164 59.471 114.676C60.536 143.361 81.091 166.441 109.016 170.321C126.671 172.776 142.796 168.881 156.351 156.616C164.356 149.371 168.051 140.016 169.786 129.651C170.096 127.806 169.176 127.586 167.681 127.591C158.431 127.626 149.186 127.611 139.936 127.606C133.436 127.606 126.936 127.531 120.441 127.646C118.121 127.686 117.151 127.036 117.221 124.556C117.366 119.061 117.356 113.556 117.221 108.061C117.166 105.736 118.021 105.021 120.266 105.036C131.761 105.111 143.261 105.071 154.756 105.071V105.076Z" fill="#CACACA"/>
<path d="M505.766 181.611C504.146 183.046 503.086 184.066 501.941 184.976C491.186 193.536 479.001 195.326 466.071 191.811C427.661 181.366 414.761 132.631 442.711 104.241C452.226 94.5762 463.611 89.0612 477.121 88.7312C486.891 88.4962 495.861 91.4512 503.261 98.2212C503.816 98.7262 504.346 99.2562 504.906 99.7512C505.011 99.8462 505.206 99.8312 505.831 99.9762C505.831 98.1062 505.881 96.3212 505.816 94.5462C505.756 92.8062 506.356 91.9412 508.256 91.9662C514.006 92.0362 519.756 92.0212 525.506 91.9762C527.186 91.9612 527.956 92.5812 527.906 94.3162C527.836 96.6462 527.896 98.9812 527.896 101.316C527.896 130.316 527.921 159.316 527.866 188.316C527.846 197.671 526.146 206.736 521.991 215.186C514.896 229.611 502.906 237.246 487.301 239.531C477.316 240.996 467.501 240.226 458.151 236.111C446.701 231.066 438.476 222.651 432.826 211.586C431.951 209.871 432.201 208.931 434.096 208.191C439.061 206.251 444.006 204.236 448.866 202.056C451.111 201.051 452.221 201.281 453.471 203.646C458.676 213.466 466.861 219.291 478.091 219.316C491.126 219.346 501.491 213.836 504.941 198.501C506.146 193.151 505.786 187.756 505.761 181.616L505.766 181.611ZM507.451 141.306C507.326 139.281 507.361 137.181 507.026 135.141C506.661 132.936 506.116 130.726 505.366 128.621C498.866 110.341 478.441 103.826 463.361 115.176C446.851 127.601 446.716 154.211 463.106 166.956C471.586 173.551 483.836 174.501 492.946 168.976C503.256 162.721 507.286 153.041 507.451 141.311V141.306Z" fill="#CACACA"/>
<path d="M306.896 141.301C306.851 170.606 283.596 193.646 254.141 193.576C224.606 193.506 201.586 170.351 201.771 140.686C201.956 111.516 223.921 88.6764 254.376 88.6914C284.766 88.7114 306.906 111.676 306.891 141.296L306.896 141.301ZM283.526 141.016C283.281 138.541 283.336 135.776 282.656 133.086C279.796 121.781 273.141 113.846 261.731 110.751C250.621 107.736 240.841 110.756 233.136 119.221C225.366 127.761 223.711 138.121 226.046 149.126C230.141 168.416 251.096 178.301 268.016 168.846C278.666 162.891 283.191 153.176 283.526 141.011V141.016Z" fill="#CACACA"/>
<path d="M314.771 140.901C314.791 111.831 336.831 88.7213 367.226 88.7363C397.951 88.7563 419.906 111.916 419.771 141.331C419.641 170.701 397.241 193.476 367.161 193.421C336.731 193.366 314.606 169.926 314.771 140.896V140.901ZM396.446 138.606C396.606 134.871 395.091 129.021 391.806 123.586C382.991 108.986 363.756 105.176 350.131 115.376C335.491 126.336 333.726 150.276 346.586 163.556C357.096 174.411 372.946 175.661 384.831 166.341C392.916 159.996 396.356 151.346 396.446 138.606Z" fill="#CACACA"/>
<path d="M627.036 172.481C635.141 172.441 643.116 168.251 649.056 160.256C650.421 158.416 651.396 158.246 653.246 159.556C657.661 162.686 662.181 165.681 666.756 168.571C668.561 169.711 668.671 170.646 667.381 172.276C657.721 184.521 645.426 192.076 629.671 193.196C609.396 194.636 593.021 187.266 581.681 170.286C565.856 146.591 572.366 112.046 595.386 96.8715C617.221 82.4765 647.066 86.1315 662.866 112.576C665.406 116.826 667.121 121.421 669.051 125.936C669.806 127.696 669.261 128.436 667.616 129.111C647.436 137.416 627.276 145.771 607.111 154.116C605.496 154.786 603.911 155.541 602.261 156.111C600.551 156.701 600.331 157.486 601.276 159.046C606.696 168.026 614.631 172.466 627.031 172.481H627.036ZM596.406 135.851C596.306 138.981 596.446 139.101 599.336 137.901C612.931 132.271 626.506 126.586 640.126 121.016C642.241 120.151 642.336 119.206 641.111 117.531C636.676 111.471 630.321 109.206 623.251 109.276C609.266 109.421 596.851 121.936 596.406 135.846V135.851Z" fill="#CACACA"/>
<path d="M541.231 113.301C541.231 89.0614 541.231 64.8214 541.231 40.5764C541.231 36.9814 541.241 36.9764 544.836 36.9714C550.166 36.9664 555.501 37.0414 560.831 36.9364C563.006 36.8914 563.941 37.4764 563.941 39.8714C563.886 89.0214 563.891 138.171 563.931 187.316C563.931 189.491 563.216 190.246 561.036 190.206C555.456 190.096 549.871 190.071 544.296 190.216C541.846 190.281 541.186 189.371 541.191 187.026C541.256 162.451 541.231 137.876 541.231 113.301Z" fill="#CACACA"/>
<g filter="url(#filter0_b_91_150)">
<path d="M523.071 241.002C538.121 241.002 550.321 228.802 550.321 213.752C550.321 198.702 538.121 186.502 523.071 186.502C508.021 186.502 495.821 198.702 495.821 213.752C495.821 228.802 508.021 241.002 523.071 241.002Z" fill="white" fill-opacity="0.2"/>
<path d="M523.071 241.002C538.121 241.002 550.321 228.802 550.321 213.752C550.321 198.702 538.121 186.502 523.071 186.502C508.021 186.502 495.821 198.702 495.821 213.752C495.821 228.802 508.021 241.002 523.071 241.002Z" stroke="#4D4D4D" stroke-width="5" stroke-miterlimit="10" stroke-linecap="round"/>
</g>
<path d="M541.321 238.002L564.821 266.002" stroke="#4D4D4D" stroke-width="7.5" stroke-miterlimit="10" stroke-linecap="round"/>
<g filter="url(#filter1_bd_91_150)">
<rect x="50.8213" y="164.502" width="68" height="54" rx="5" fill="white" fill-opacity="0.8" shape-rendering="crispEdges"/>
</g>
<path d="M99.0613 195.194C97.8053 200.062 94.0653 204.066 89.1733 205.566" stroke="#34A853" stroke-width="6" stroke-miterlimit="10"/>
<path d="M85.5573 206.19C85.3453 206.198 85.1333 206.202 84.9213 206.202C76.9133 206.202 70.3213 199.61 70.3213 191.602C70.3213 183.594 76.9133 177.002 84.9213 177.002C92.9293 177.002 99.5213 183.594 99.5213 191.602" stroke="#34A853" stroke-width="6" stroke-miterlimit="10"/>
<g filter="url(#filter2_bd_91_150)">
<path d="M684.961 33.502H614.681C610.34 33.502 606.821 37.021 606.821 41.362V106.642C606.821 110.983 610.34 114.502 614.681 114.502H684.961C689.302 114.502 692.821 110.983 692.821 106.642V41.362C692.821 37.021 689.302 33.502 684.961 33.502Z" fill="white" fill-opacity="0.8" shape-rendering="crispEdges"/>
</g>
<path d="M647.321 57.7841C647.321 54.8668 644.971 52.502 642.071 52.502C639.172 52.502 636.821 54.8668 636.821 57.7841V91.7198C636.821 94.6371 639.172 97.002 642.071 97.002C644.971 97.002 647.321 94.6371 647.321 91.7198V57.7841Z" fill="#4285F4"/>
<path d="M662.821 76.2699C662.821 73.3605 660.471 71.002 657.571 71.002C654.672 71.002 652.321 73.3605 652.321 76.2699V92.234C652.321 95.1434 654.672 97.502 657.571 97.502C660.471 97.502 662.821 95.1434 662.821 92.234V76.2699Z" fill="#4285F4"/>
<path d="M678.321 55.7773C678.321 52.8638 675.971 50.502 673.071 50.502C670.172 50.502 667.821 52.8638 667.821 55.7773V92.2266C667.821 95.1401 670.172 97.502 673.071 97.502C675.971 97.502 678.321 95.1401 678.321 92.2266V55.7773Z" fill="#4285F4"/>
<path d="M631.821 72.2435C631.821 69.3487 629.471 67.002 626.571 67.002C623.672 67.002 621.321 69.3487 621.321 72.2435V92.2604C621.321 95.1552 623.672 97.502 626.571 97.502C629.471 97.502 631.821 95.1552 631.821 92.2604V72.2435Z" fill="#4285F4"/>
<g filter="url(#filter3_bd_91_150)">
<path d="M337.821 48.0566H240.321C237.56 48.0566 235.321 50.2952 235.321 53.0566V95.5566C235.321 98.3181 237.56 100.557 240.321 100.557H337.821C340.583 100.557 342.821 98.3181 342.821 95.5566V53.0566C342.821 50.2952 340.583 48.0566 337.821 48.0566Z" fill="white" fill-opacity="0.8" shape-rendering="crispEdges"/>
</g>
<path d="M253.85 79.6057C253.211 79.866 252.903 80.5954 253.164 81.2348C253.424 81.8742 254.153 82.1815 254.793 81.9212L253.85 79.6057ZM272.632 73.3096L273.617 72.5406C273.273 72.0998 272.678 71.9411 272.16 72.1519L272.632 73.3096ZM276.612 78.4096L275.627 79.1787C275.86 79.4773 276.216 79.6541 276.594 79.6595C276.973 79.6649 277.334 79.4984 277.575 79.2067L276.612 78.4096ZM288.952 63.502L290.091 62.9865C289.913 62.5937 289.545 62.3203 289.118 62.263C288.691 62.2058 288.264 62.3728 287.989 62.7049L288.952 63.502ZM300.495 89.002L299.357 89.5175C299.53 89.9002 299.884 90.1703 300.299 90.2364C300.714 90.3025 301.134 90.1557 301.418 89.8456L300.495 89.002ZM325.07 63.4463C325.039 62.7567 324.455 62.2225 323.766 62.2532L312.527 62.7536C311.837 62.7843 311.303 63.3683 311.334 64.058C311.364 64.7477 311.948 65.2819 312.638 65.2512L322.628 64.8063L323.073 74.7964C323.104 75.4861 323.688 76.0203 324.377 75.9896C325.067 75.9589 325.601 75.3749 325.57 74.6852L325.07 63.4463ZM254.793 81.9212L273.103 74.4674L272.16 72.1519L253.85 79.6057L254.793 81.9212ZM271.646 74.0787L275.627 79.1787L277.598 77.6406L273.617 72.5406L271.646 74.0787ZM277.575 79.2067L289.915 64.299L287.989 62.7049L275.649 77.6126L277.575 79.2067ZM287.813 64.0175L299.357 89.5175L301.634 88.4865L290.091 62.9865L287.813 64.0175ZM301.418 89.8456L324.744 64.3456L322.899 62.6583L299.573 88.1583L301.418 89.8456Z" fill="#FBBC05"/>
<g filter="url(#filter4_b_91_150)">
<path d="M97.5713 44.5566H72.5713C64.4251 44.5566 57.8213 51.1604 57.8213 59.3066C57.8213 67.4528 64.4251 74.0566 72.5713 74.0566H97.5713C105.717 74.0566 112.321 67.4528 112.321 59.3066C112.321 51.1604 105.717 44.5566 97.5713 44.5566Z" fill="white" fill-opacity="0.8"/>
</g>
<path d="M97.8213 68.0566C102.792 68.0566 106.821 64.0272 106.821 59.0566C106.821 54.0861 102.792 50.0566 97.8213 50.0566C92.8507 50.0566 88.8213 54.0861 88.8213 59.0566C88.8213 64.0272 92.8507 68.0566 97.8213 68.0566Z" fill="#EA4335"/>
<defs>
<filter id="filter0_b_91_150" x="490.821" y="181.502" width="64.5" height="64.5" filterUnits="userSpaceOnUse" color-interpolation-filters="sRGB">
<feFlood flood-opacity="0" result="BackgroundImageFix"/>
<feGaussianBlur in="BackgroundImageFix" stdDeviation="1.25"/>
<feComposite in2="SourceAlpha" operator="in" result="effect1_backgroundBlur_91_150"/>
<feBlend mode="normal" in="SourceGraphic" in2="effect1_backgroundBlur_91_150" result="shape"/>
</filter>
<filter id="filter1_bd_91_150" x="0.821289" y="116.502" width="168" height="154" filterUnits="userSpaceOnUse" color-interpolation-filters="sRGB">
<feFlood flood-opacity="0" result="BackgroundImageFix"/>
<feGaussianBlur in="BackgroundImageFix" stdDeviation="1.25"/>
<feComposite in2="SourceAlpha" operator="in" result="effect1_backgroundBlur_91_150"/>
<feColorMatrix in="SourceAlpha" type="matrix" values="0 0 0 0 0 0 0 0 0 0 0 0 0 0 0 0 0 0 127 0" result="hardAlpha"/>
<feOffset dy="2"/>
<feGaussianBlur stdDeviation="25"/>
<feComposite in2="hardAlpha" operator="out"/>
<feColorMatrix type="matrix" values="0 0 0 0 0 0 0 0 0 0 0 0 0 0 0 0 0 0 0.05 0"/>
<feBlend mode="normal" in2="effect1_backgroundBlur_91_150" result="effect2_dropShadow_91_150"/>
<feBlend mode="normal" in="SourceGraphic" in2="effect2_dropShadow_91_150" result="shape"/>
</filter>
<filter id="filter2_bd_91_150" x="581.821" y="10.502" width="136" height="131" filterUnits="userSpaceOnUse" color-interpolation-filters="sRGB">
<feFlood flood-opacity="0" result="BackgroundImageFix"/>
<feGaussianBlur in="BackgroundImageFix" stdDeviation="1"/>
<feComposite in2="SourceAlpha" operator="in" result="effect1_backgroundBlur_91_150"/>
<feColorMatrix in="SourceAlpha" type="matrix" values="0 0 0 0 0 0 0 0 0 0 0 0 0 0 0 0 0 0 127 0" result="hardAlpha"/>
<feOffset dy="2"/>
<feGaussianBlur stdDeviation="12.5"/>
<feComposite in2="hardAlpha" operator="out"/>
<feColorMatrix type="matrix" values="0 0 0 0 0 0 0 0 0 0 0 0 0 0 0 0 0 0 0.05 0"/>
<feBlend mode="normal" in2="effect1_backgroundBlur_91_150" result="effect2_dropShadow_91_150"/>
<feBlend mode="normal" in="SourceGraphic" in2="effect2_dropShadow_91_150" result="shape"/>
</filter>
<filter id="filter3_bd_91_150" x="185.321" y="0.0566406" width="207.5" height="152.5" filterUnits="userSpaceOnUse" color-interpolation-filters="sRGB">
<feFlood flood-opacity="0" result="BackgroundImageFix"/>
<feGaussianBlur in="BackgroundImageFix" stdDeviation="1.25"/>
<feComposite in2="SourceAlpha" operator="in" result="effect1_backgroundBlur_91_150"/>
<feColorMatrix in="SourceAlpha" type="matrix" values="0 0 0 0 0 0 0 0 0 0 0 0 0 0 0 0 0 0 127 0" result="hardAlpha"/>
<feOffset dy="2"/>
<feGaussianBlur stdDeviation="25"/>
<feComposite in2="hardAlpha" operator="out"/>
<feColorMatrix type="matrix" values="0 0 0 0 0 0 0 0 0 0 0 0 0 0 0 0 0 0 0.05 0"/>
<feBlend mode="normal" in2="effect1_backgroundBlur_91_150" result="effect2_dropShadow_91_150"/>
<feBlend mode="normal" in="SourceGraphic" in2="effect2_dropShadow_91_150" result="shape"/>
</filter>
<filter id="filter4_b_91_150" x="52.8213" y="39.5566" width="64.5" height="39.5" filterUnits="userSpaceOnUse" color-interpolation-filters="sRGB">
<feFlood flood-opacity="0" result="BackgroundImageFix"/>
<feGaussianBlur in="BackgroundImageFix" stdDeviation="2.5"/>
<feComposite in2="SourceAlpha" operator="in" result="effect1_backgroundBlur_91_150"/>
<feBlend mode="normal" in="SourceGraphic" in2="effect1_backgroundBlur_91_150" result="shape"/>
</filter>
</defs>
</svg>
