<svg viewBox="0 0 40 41" fill="none" xmlns="http://www.w3.org/2000/svg">
<path d="M5.62 2.19995C3.62 2.19995 2 3.81995 2 5.81995V34.58C2 36.58 3.62 38.2 5.62 38.2H34.38C36.38 38.2 38 36.58 38 34.58L37.86 5.79995C37.86 3.79995 36.24 2.19995 34.24 2.19995H5.62Z" stroke="#9B9B9B" stroke-width="4" stroke-miterlimit="10" stroke-linecap="round"/>
<path d="M2 29.36L13.44 20.2L22.28 28.22L30.04 23.08L38 28.2" stroke="#9B9B9B" stroke-width="4" stroke-linejoin="round"/>
<path d="M23 18.7C24.933 18.7 26.5 17.133 26.5 15.2C26.5 13.267 24.933 11.7 23 11.7C21.067 11.7 19.5 13.267 19.5 15.2C19.5 17.133 21.067 18.7 23 18.7Z" fill="#9B9B9B"/>
</svg>
