<svg viewBox="0 0 61 58" fill="none" xmlns="http://www.w3.org/2000/svg">
<path d="M57 20.34V48.15C57 51.39 54.36 54.03 51.12 54.03H8.88C5.64 54.03 3 51.39 3 48.15V11.88C3 8.64 5.64 6 8.88 6H38.46" stroke="#1A1A1A" stroke-width="6" stroke-linecap="round" stroke-linejoin="round"/>
<path d="M3 18.3311H42" stroke="#1A1A1A" stroke-width="6" stroke-linecap="round" stroke-linejoin="round"/>
<path d="M27 30H15V39H27V30Z" stroke="#1A1A1A" stroke-width="6" stroke-linejoin="round"/>
<path d="M45 34.5C45 32.0148 42.9852 30 40.5 30C38.0148 30 36 32.0148 36 34.5C36 36.9852 38.0148 39 40.5 39C42.9852 39 45 36.9852 45 34.5Z" stroke="#1A1A1A" stroke-width="6" stroke-linejoin="round"/>
<path d="M60.7199 11.4C54.6299 11.85 49.7999 16.71 49.3199 22.8C48.8699 16.71 44.0099 11.88 37.9199 11.4C44.0099 10.95 48.8399 6.09 49.3199 0C49.7699 6.09 54.6299 10.92 60.7199 11.4Z" fill="#1A1A1A"/>
</svg>