<svg viewBox="0 0 60 55" fill="none" xmlns="http://www.w3.org/2000/svg">
<path d="M51.12 51.03C54.36 51.03 57 48.39 57 45.15V10.5C57 6.35786 53.6421 3 49.5 3H8.88C5.64 3 3 5.64 3 8.88V45.15C3 48.39 5.64 51.03 8.88 51.03H51.12Z" stroke="#1A1A1A" stroke-width="6" stroke-linecap="round" stroke-linejoin="round"/>
<path d="M3 15.3311H55.5" stroke="#1A1A1A" stroke-width="6" stroke-linecap="round" stroke-linejoin="round"/>
<path d="M27 27H15V36H27V27Z" stroke="#1A1A1A" stroke-width="6" stroke-linejoin="round"/>
<path d="M45 31.5C45 29.0148 42.9852 27 40.5 27C38.0148 27 36 29.0148 36 31.5C36 33.9852 38.0148 36 40.5 36C42.9852 36 45 33.9852 45 31.5Z" stroke="#1A1A1A" stroke-width="6" stroke-linejoin="round"/>
</svg>