<svg viewBox="0 0 30 30" fill="none" xmlns="http://www.w3.org/2000/svg">
<path d="M13.3135 19.0527C14.257 20.0397 15.3602 20.8381 16.594 21.4187C17.5375 21.8541 18.6116 21.9557 19.6131 21.6654L19.8454 21.6074C20.8179 21.3316 21.5872 20.5913 21.9066 19.6333C22.0082 19.314 21.9211 18.9801 21.7033 18.7479C21.6598 18.7043 21.6017 18.6608 21.5582 18.6172L19.3374 17.1367C18.9019 16.8464 18.3213 16.9045 17.9584 17.2819L16.7101 18.5592C15.5344 18.0512 14.6054 17.3399 13.8941 16.6287C13.2119 15.8884 12.5442 14.9304 12.0943 13.7256L13.4296 12.5354C13.8216 12.1871 13.9086 11.6065 13.6474 11.1565L12.283 8.86311C12.283 8.86311 12.2104 8.74699 12.1668 8.70344C11.9491 8.4712 11.6153 8.36959 11.2959 8.45668C10.3234 8.73247 9.55409 9.45823 9.22024 10.4162L9.14766 10.634C8.81381 11.621 8.85735 12.6951 9.24927 13.6531C9.77182 14.9159 10.5121 16.0626 11.4556 17.0496L13.3571 19.0382L13.3135 19.0527Z" fill="white"/>
<path d="M28.4819 15.1183C28.4819 22.3323 22.6323 28.1819 15.4182 28.1819C13.2845 28.1819 11.2669 27.6739 9.496 26.7595L2.35449 28.1819L3.77699 21.0405C2.86253 19.2696 2.35449 17.252 2.35449 15.1183C2.35449 7.90429 8.20414 2.05469 15.4182 2.05469C22.6323 2.05469 28.4819 7.90429 28.4819 15.1183Z" stroke="white" stroke-width="2.90304" stroke-linejoin="round"/>
</svg>