<svg viewBox="0 0 94 16" fill="none" xmlns="http://www.w3.org/2000/svg">
<path d="M6.79417 1.81699C7.16099 1.07374 8.22083 1.07374 8.58764 1.81699L9.71854 4.10843C9.8642 4.40357 10.1458 4.60814 10.4715 4.65547L13.0002 5.02292C13.8205 5.14211 14.148 6.15008 13.5544 6.72861L11.7246 8.51225C11.4889 8.74199 11.3814 9.07299 11.437 9.39738L11.869 11.9159C12.0091 12.7328 11.1517 13.3558 10.418 12.9701L8.15625 11.781C7.86493 11.6278 7.51689 11.6278 7.22557 11.781L4.96378 12.9701C4.23015 13.3558 3.37272 12.7328 3.51283 11.9159L3.94479 9.39738C4.00043 9.07299 3.89288 8.74199 3.6572 8.51225L1.82737 6.72861C1.23385 6.15008 1.56136 5.14211 2.38158 5.02292L4.91034 4.65547C5.23605 4.60814 5.51762 4.40357 5.66328 4.10843L6.79417 1.81699Z" fill="#FCCE21"/>
<path d="M26.449 1.81699C26.8158 1.07374 27.8756 1.07374 28.2424 1.81699L29.3733 4.10843C29.519 4.40357 29.8006 4.60814 30.1263 4.65547L32.655 5.02292C33.4752 5.14211 33.8028 6.15008 33.2092 6.72861L31.3794 8.51225C31.1437 8.74199 31.0362 9.07299 31.0918 9.39738L31.5238 11.9159C31.6639 12.7328 30.8065 13.3558 30.0728 12.9701L27.811 11.781C27.5197 11.6278 27.1717 11.6278 26.8804 11.781L24.6186 12.9701C23.8849 13.3558 23.0275 12.7328 23.1676 11.9159L23.5996 9.39738C23.6552 9.07299 23.5477 8.74199 23.312 8.51225L21.4822 6.72861C20.8886 6.15008 21.2161 5.14211 22.0364 5.02292L24.5651 4.65547C24.8908 4.60814 25.1724 4.40357 25.3181 4.10843L26.449 1.81699Z" fill="#FCCE21"/>
<path d="M46.1033 1.81699C46.4701 1.07374 47.5299 1.07374 47.8967 1.81699L49.0276 4.10843C49.1733 4.40357 49.4548 4.60814 49.7806 4.65547L52.3093 5.02292C53.1295 5.14211 53.457 6.15008 52.8635 6.72861L51.0337 8.51225C50.798 8.74199 50.6905 9.07299 50.7461 9.39738L51.1781 11.9159C51.3182 12.7328 50.4607 13.3558 49.7271 12.9701L47.4653 11.781C47.174 11.6278 46.826 11.6278 46.5346 11.781L44.2729 12.9701C43.5392 13.3558 42.6818 12.7328 42.8219 11.9159L43.2539 9.39738C43.3095 9.07299 43.202 8.74199 42.9663 8.51225L41.1365 6.72861C40.5429 6.15008 40.8704 5.14211 41.6907 5.02292L44.2194 4.65547C44.5451 4.60814 44.8267 4.40357 44.9724 4.10843L46.1033 1.81699Z" fill="#FCCE21"/>
<path d="M65.758 1.81699C66.1249 1.07374 67.1847 1.07374 67.5515 1.81699L68.6824 4.10843C68.8281 4.40357 69.1096 4.60814 69.4353 4.65547L71.9641 5.02292C72.7843 5.14211 73.1118 6.15008 72.5183 6.72861L70.6885 8.51225C70.4528 8.74199 70.3453 9.07299 70.4009 9.39738L70.8329 11.9159C70.973 12.7328 70.1155 13.3558 69.3819 12.9701L67.1201 11.781C66.8288 11.6278 66.4808 11.6278 66.1894 11.781L63.9276 12.9701C63.194 13.3558 62.3366 12.7328 62.4767 11.9159L62.9087 9.39738C62.9643 9.07299 62.8567 8.74199 62.6211 8.51225L60.7912 6.72861C60.1977 6.15008 60.5252 5.14211 61.3454 5.02292L63.8742 4.65547C64.1999 4.60814 64.4815 4.40357 64.6271 4.10843L65.758 1.81699Z" fill="#FCCE21"/>
<path d="M85.4123 1.81699C85.7792 1.07374 86.839 1.07374 87.2058 1.81699L88.3367 4.10843C88.4824 4.40357 88.7639 4.60814 89.0896 4.65547L91.6184 5.02292C92.4386 5.14211 92.7661 6.15008 92.1726 6.72861L90.3428 8.51225C90.1071 8.74199 89.9996 9.07299 90.0552 9.39738L90.4872 11.9159C90.6273 12.7328 89.7698 13.3558 89.0362 12.9701L86.7744 11.781C86.4831 11.6278 86.1351 11.6278 85.8437 11.781L83.5819 12.9701C82.8483 13.3558 81.9909 12.7328 82.131 11.9159L82.563 9.39738C82.6186 9.07299 82.511 8.74199 82.2754 8.51225L80.4455 6.72861C79.852 6.15008 80.1795 5.14211 80.9997 5.02292L83.5285 4.65547C83.8542 4.60814 84.1358 4.40357 84.2814 4.10843L85.4123 1.81699Z" fill="#FCCE21"/>
</svg>
