<svg viewBox="0 0 15 12" fill="none" xmlns="http://www.w3.org/2000/svg">
<path fill-rule="evenodd" clip-rule="evenodd" d="M7.31994 3.11202C5.69927 3.11202 4.38873 4.42255 4.38873 6.04322C4.38873 7.66388 5.69927 8.97442 7.31994 8.97442C8.9406 8.97442 10.2511 7.66388 10.2511 6.04322C10.2511 4.42255 8.9406 3.11202 7.31994 3.11202ZM5.66874 6.04322C5.66874 5.12948 6.4062 4.39202 7.31994 4.39202C8.23368 4.39202 8.97114 5.12948 8.97114 6.04322C8.97114 6.95696 8.23368 7.69442 7.31994 7.69442C6.4062 7.69442 5.66874 6.95696 5.66874 6.04322Z" fill="#FFFEF8"/>
<path fill-rule="evenodd" clip-rule="evenodd" d="M7.31989 0.104004C4.78934 0.104004 2.50146 1.59614 0.949743 4.03528C0.580511 4.61398 0.41748 5.34642 0.41748 6.04001C0.41748 6.73343 0.580433 7.46569 0.949476 8.04432C2.5012 10.4837 4.7892 11.976 7.31989 11.976C9.85043 11.976 12.1383 10.4839 13.69 8.04474C14.0593 7.46604 14.2223 6.7336 14.2223 6.04001C14.2223 5.34659 14.0593 4.61433 13.6903 4.0357C12.1386 1.59631 9.85058 0.104004 7.31989 0.104004ZM2.02949 4.72271C3.40897 2.5541 5.33217 1.38401 7.31989 1.38401C9.3076 1.38401 11.2308 2.5541 12.6103 4.72271L12.6108 4.72355C12.8174 5.04719 12.9423 5.52417 12.9423 6.04001C12.9423 6.55585 12.8174 7.03283 12.6108 7.35647L12.6103 7.35731C11.2308 9.52592 9.3076 10.696 7.31989 10.696C5.33217 10.696 3.40897 9.52592 2.02949 7.35731L2.02895 7.35647C1.82237 7.03283 1.69748 6.55585 1.69748 6.04001C1.69748 5.52417 1.82237 5.04719 2.02895 4.72355L2.02949 4.72271Z" fill="#FFFEF8"/>
</svg>