<svg viewBox="0 0 21 20" fill="none" xmlns="http://www.w3.org/2000/svg">
<path fill-rule="evenodd" clip-rule="evenodd" d="M10.5 2C8.84315 2 7.5 3.34315 7.5 5C7.5 6.65685 8.84315 8 10.5 8C12.1569 8 13.5 6.65685 13.5 5C13.5 3.34315 12.1569 2 10.5 2ZM5.5 5C5.5 2.23858 7.73858 0 10.5 0C13.2614 0 15.5 2.23858 15.5 5C15.5 7.76142 13.2614 10 10.5 10C7.73858 10 5.5 7.76142 5.5 5Z" fill="black"/>
<path fill-rule="evenodd" clip-rule="evenodd" d="M4.09087 17.9585H16.9091C16.3967 15.1639 13.7739 12.9585 10.5 12.9585C7.22614 12.9585 4.60334 15.1639 4.09087 17.9585ZM2 18.9585C2 14.4764 5.87168 10.9585 10.5 10.9585C15.1283 10.9585 19 14.4764 19 18.9585V19.9585H2V18.9585Z" fill="black"/>
</svg>