<svg viewBox="0 0 781 106" fill="none" xmlns="http://www.w3.org/2000/svg">
<path d="M761.079 99.5514C762.797 102.872 766.223 104.958 769.962 104.958H776.653C778.526 104.958 779.734 102.974 778.874 101.31L729.334 5.41035C727.617 2.08729 724.189 0 720.449 0H714.734C713.799 0 712.942 0.52182 712.513 1.35259L711.998 2.35067C711.626 3.07078 711.626 3.92656 711.998 4.6465L761.079 99.5514Z" fill="black"/>
<path d="M709.297 40.2615C710.86 37.2349 710.775 33.6205 709.071 30.6705L705.181 23.9339C704.192 22.2223 701.702 22.2807 700.795 24.0369L660.884 101.295C660.025 102.959 661.232 104.942 663.105 104.942H669.794C673.534 104.942 676.962 102.855 678.678 99.5319L709.297 40.2615Z" fill="black"/>
<path fill-rule="evenodd" clip-rule="evenodd" d="M635 105C632.239 105 630 102.761 630 100V5C630 2.23858 632.239 0 635 0H640C642.761 0 645 2.23858 645 5V100C645 102.761 642.761 105 640 105H635Z" fill="black"/>
<path fill-rule="evenodd" clip-rule="evenodd" d="M522.306 0C525.342 0 528.213 1.37919 530.111 3.74884L596.049 86.0796C597.526 87.9236 600.5 86.8793 600.5 84.5168V5C600.5 2.23858 602.739 0 605.5 0H610.5C613.261 0 615.5 2.23858 615.5 5.00001V100.02C615.5 102.781 613.261 105.02 610.5 105.02H596.803C593.767 105.02 590.895 103.641 588.998 101.271L529.451 26.9204C527.974 25.0764 525 26.1207 525 28.4832V100C525 102.761 522.761 105 520 105H515C512.239 105 510 102.761 510 100V5C510 2.23858 512.239 0 515 0H522.306Z" fill="black"/>
<path d="M495.5 30C495.5 13.46 482.04 0 465.5 0H425C422.239 0 420 2.23858 420 5V10C420 12.7614 422.239 15 425 15H465.5C473.77 15 480.5 21.73 480.5 30C480.5 38.27 473.77 45 465.5 45H423.925C422.096 45 420.887 46.8998 421.66 48.5572L424.307 54.2289C425.95 57.7496 429.483 60 433.369 60H450.945C451.839 60 452.665 60.4773 453.111 61.2518L475.437 99.993C477.222 103.091 480.525 105 484.101 105H490.804C492.717 105 493.921 102.939 492.981 101.272L471.361 62.931C470.493 61.3919 471.456 59.4524 473.164 59.001C486.003 55.6085 495.5 43.8949 495.5 30Z" fill="black"/>
<path fill-rule="evenodd" clip-rule="evenodd" d="M325.833 0C328.595 0 330.833 2.23858 330.833 5V60.2133C330.833 76.7033 344.116 90.0711 360.5 90.0711C376.884 90.0711 390.167 76.7033 390.167 60.2133V5C390.167 2.23858 392.405 0 395.167 0H400C402.761 0 405 2.23858 405 5V60.2133C405 84.9483 385.077 105 360.5 105C335.923 105 316 84.9483 316 60.2133V5C316 2.23858 318.239 0 321 0H325.833Z" fill="black"/>
<path fill-rule="evenodd" clip-rule="evenodd" d="M247.589 17.4289C247.589 16.0482 246.47 14.9289 245.089 14.9289H216C213.239 14.9289 211 12.6903 211 9.92892V5C211 2.23858 213.239 0 216 0H295C297.761 0 300 2.23857 300 4.99999V9.92891C300 12.6903 297.761 14.9289 295 14.9289H264.922C263.542 14.9289 262.422 16.0482 262.422 17.4289V100C262.422 102.761 260.184 105 257.422 105H252.589C249.827 105 247.589 102.761 247.589 100V17.4289Z" fill="black"/>
<path d="M213.704 99.6091C215.421 102.93 218.848 105.015 222.587 105.015H229.278C231.151 105.015 232.359 103.032 231.499 101.368L181.958 5.46809C180.242 2.14502 176.814 0.0577393 173.074 0.0577393H167.359C166.424 0.0577393 165.567 0.57956 165.138 1.41033L164.622 2.40841C164.25 3.12852 164.25 3.9843 164.623 4.70424L213.704 99.6091Z" fill="black"/>
<path d="M161.921 40.3192C163.485 37.2926 163.4 33.6782 161.696 30.7282L157.805 23.9917C156.817 22.28 154.327 22.3384 153.419 24.0946L113.509 101.353C112.649 103.017 113.857 105 115.73 105H122.418C126.159 105 129.586 102.913 131.303 99.5896L161.921 40.3192Z" fill="black"/>
<path fill-rule="evenodd" clip-rule="evenodd" d="M0.49763 29.609C0.49763 13.2564 13.754 0 30.1066 0H100.024C102.772 0 105 2.22797 105 4.9763V4.9763C105 10.473 100.544 14.9289 95.0474 14.9289H30.1066C21.999 14.9289 15.4265 21.5014 15.4265 29.609C15.4265 37.7166 21.999 44.2891 30.1066 44.2891H74.6445C91.4094 44.2891 105 57.8797 105 74.6445C105 91.4094 91.4094 105 74.6445 105H4.9763C2.22797 105 0 102.772 0 100.024V100.024C0 94.527 4.45593 90.0711 9.9526 90.0711H74.6445C83.1644 90.0711 90.0711 83.1644 90.0711 74.6445C90.0711 66.1247 83.1644 59.218 74.6445 59.218H30.1066C13.754 59.218 0.49763 45.9616 0.49763 29.609Z" fill="black"/>
</svg>
