<svg viewBox="0 0 265 102" fill="none" xmlns="http://www.w3.org/2000/svg">
<g opacity="0.5">
<path d="M12.6369 31.4523C14.686 31.8415 16.4822 33.9553 17.2007 36.8207C17.3071 33.8681 18.6243 31.4523 20.527 30.6135C18.478 30.2175 16.6884 28.1104 15.9699 25.245C15.8568 28.2044 14.5396 30.6135 12.6436 31.459L12.6369 31.4523Z" fill="white"/>
<path d="M43.6848 60.9988C43.6249 61.1732 43.5517 61.3544 43.4719 61.5289L43.2324 62.0389L42.1214 64.4413C39.4974 70.1616 34.7931 74.6449 28.9824 76.9631C27.2679 77.6557 25.4066 77.8959 23.5744 77.661C21.7422 77.4262 19.9996 76.7241 18.5112 75.621L12.4839 71.1987C9.36855 68.9113 7.11092 65.629 6.07745 61.8845C4.77097 57.1339 4.54357 52.1473 5.41218 47.2958C5.48712 46.7533 5.52489 46.2062 5.52527 45.6585C5.56285 42.8104 5.09423 39.9785 4.14155 37.2972L1.79315 30.5866C1.66403 30.3598 1.60343 30.0999 1.61879 29.8388C1.63416 29.5777 1.72483 29.3269 1.87964 29.117C2.01693 28.9418 2.1934 28.8018 2.39458 28.7085C2.59576 28.6152 2.81594 28.5713 3.03719 28.5802C3.96784 28.5947 4.88233 28.8279 5.70803 29.2612C6.53372 29.6945 7.2479 30.3161 7.79384 31.0765C9.5491 33.5225 10.7732 36.3145 11.3862 39.2701L11.5193 39.9411C11.6168 40.4453 11.8228 40.9218 12.1228 41.3369C12.4229 41.752 12.8096 42.0956 13.2557 42.3435C13.9136 42.6962 14.6681 42.8216 15.4035 42.7004C16.1389 42.5792 16.8146 42.2181 17.3271 41.6724L32.8011 25.0572C33.0754 24.7653 33.4103 24.5382 33.7817 24.3921C34.1532 24.2459 34.5521 24.1843 34.9499 24.2116L35.8945 24.2787C36.3696 24.3082 36.8281 24.4657 37.2222 24.7348C37.6164 25.0038 37.9318 25.3745 38.1356 25.8083C38.3394 26.2421 38.4242 26.7231 38.3811 27.2012C38.3379 27.6793 38.1685 28.137 37.8903 28.5265L29.6677 40.4578C29.1339 40.4732 28.6032 40.5451 28.0844 40.6725C27.0294 40.9298 26.0319 41.3851 25.1439 42.0146L20.2409 45.4504C19.2788 46.1227 18.5669 47.1 18.2186 48.2271C17.8702 49.3542 17.9053 50.5664 18.3183 51.6711C18.764 52.8544 19.6099 53.8407 20.7066 54.456C20.2762 55.0841 19.9743 55.7925 19.8186 56.5397C19.6628 57.2869 19.6562 58.0579 19.7993 58.8077C19.9424 59.5575 20.2322 60.2709 20.6519 60.9064C21.0715 61.5419 21.6125 62.0865 22.2433 62.5086C22.9298 62.9528 23.7296 63.1859 24.5452 63.1797C24.8541 63.1775 25.162 63.1415 25.4632 63.0723C25.4337 63.6993 25.5428 64.325 25.7825 64.9042C26.0963 65.6727 26.6293 66.3298 27.3139 66.7922C27.9985 67.2546 28.8039 67.5014 29.6278 67.5013C29.9481 67.4993 30.2672 67.461 30.5791 67.3871C32.104 67.0322 33.5711 66.4606 34.9366 65.6894L38.9281 63.4078C39.0885 63.3163 39.2184 63.1788 39.3013 63.0127C39.3842 62.8467 39.4164 62.6595 39.3938 62.475C39.3773 62.3006 39.3102 62.1349 39.2009 61.9986C39.0547 61.8231 38.8517 61.7053 38.6277 61.666C38.4038 61.6267 38.1732 61.6684 37.9768 61.7839L33.9852 64.0453C32.778 64.7352 31.4784 65.246 30.1267 65.5619C29.6553 65.6732 29.1611 65.6326 28.7137 65.4458C28.2663 65.2591 27.8883 64.9355 27.6327 64.5207C27.3772 64.1059 27.257 63.6206 27.289 63.1333C27.3885 61.6229 29.2864 60.2196 30.2465 59.2003L36.2671 52.7247C36.6077 52.3529 37.0389 52.0776 37.5178 51.9261C37.946 51.7817 38.4021 51.7426 38.8483 51.812C39.5941 51.914 40.3129 52.1624 40.9638 52.5435C41.8226 53.0486 42.5411 53.7641 43.0528 54.6238C43.6289 55.5691 43.9851 56.6338 44.0946 57.738C44.204 58.8422 44.0639 59.9571 43.6848 60.9988Z" fill="white"/>
<path d="M35.6218 45.5712C34.8456 45.4537 34.0563 45.4537 33.2801 45.5712C32.0848 45.7586 30.9474 46.2175 29.9538 46.9133L29.5346 47.222L22.1236 53.0132C21.6597 52.8455 21.2371 52.5789 20.8846 52.2315C20.5321 51.884 20.2581 51.464 20.0812 51C19.8131 50.2852 19.7899 49.5003 20.0154 48.7706C20.2408 48.0409 20.702 47.4083 21.3253 46.9737L26.2349 43.5379C26.9298 43.0455 27.7108 42.6903 28.5367 42.4911C29.4092 42.2788 30.3167 42.2582 31.1978 42.4307C32.1093 42.6202 32.9724 42.9968 33.7335 43.537C34.4945 44.0773 35.1373 44.7697 35.6218 45.5712Z" fill="white"/>
<path d="M39.8728 50.1075C39.6408 50.0464 39.4053 49.9993 39.1676 49.9666C38.2626 49.838 37.34 49.9706 36.5066 50.3492C35.9309 50.6159 35.4115 50.9918 34.9765 51.4564L26.6208 60.4485L26.042 60.8645C25.645 61.1547 25.1706 61.3175 24.6805 61.3319C24.1905 61.3462 23.7075 61.2114 23.2945 60.9451C22.7896 60.6047 22.3722 60.1482 22.0766 59.6132C21.781 59.0782 21.6156 58.48 21.5942 57.8679C21.5728 57.2558 21.6958 56.6473 21.9533 56.0926C22.2107 55.5379 22.5952 55.0528 23.0749 54.6774L26.8869 51.7046L30.7388 48.6916C30.843 48.6052 30.9518 48.5246 31.0647 48.4501C32.0783 47.7444 33.2792 47.3632 34.5108 47.3562C34.8784 47.3555 35.2455 47.3847 35.6085 47.4435L35.981 47.5173C37.5428 47.8856 38.9228 48.8041 39.8728 50.1075Z" fill="white"/>
<path d="M76.9812 29.5666V61.4618C76.9812 61.5963 76.9548 61.7295 76.9036 61.8536C76.8524 61.9778 76.7773 62.0906 76.6827 62.1854C76.5881 62.2802 76.4758 62.3552 76.3524 62.406C76.2289 62.4569 76.0967 62.4826 75.9633 62.4817H69.803C69.6697 62.4826 69.5375 62.4569 69.414 62.406C69.2905 62.3552 69.1783 62.2802 69.0837 62.1854C68.9891 62.0906 68.914 61.9778 68.8628 61.8536C68.8115 61.7295 68.7852 61.5963 68.7852 61.4618V29.5666C68.7852 29.2943 68.8924 29.0332 69.0833 28.8406C69.2742 28.6481 69.5331 28.5399 69.803 28.5399H75.9633C76.2333 28.5399 76.4922 28.6481 76.6831 28.8406C76.874 29.0332 76.9812 29.2943 76.9812 29.5666Z" fill="white"/>
<path d="M106.705 38.2835C108.577 40.3325 109.513 43.1442 109.513 46.7187V61.4818C109.511 61.753 109.403 62.0124 109.212 62.2035C109.021 62.3946 108.764 62.5019 108.495 62.5019H102.374C102.106 62.5019 101.849 62.3944 101.659 62.2031C101.47 62.0118 101.363 61.7524 101.363 61.4818V47.8327C101.456 46.3016 100.958 44.7936 99.9727 43.6251C98.9608 42.6645 97.6236 42.1295 96.2339 42.1295C94.8443 42.1295 93.5071 42.6645 92.4952 43.6251C91.5073 44.7921 91.0086 46.3012 91.1047 47.8327V61.4617C91.103 61.7329 90.995 61.9923 90.8043 62.1834C90.6136 62.3745 90.3557 62.4817 90.0869 62.4817H83.9199C83.6517 62.4817 83.3945 62.3742 83.2049 62.183C83.0152 61.9917 82.9087 61.7323 82.9087 61.4617V36.5254C82.9087 36.2549 83.0152 35.9955 83.2049 35.8042C83.3945 35.6129 83.6517 35.5054 83.9199 35.5054H90.0869C90.3557 35.5054 90.6136 35.6127 90.8043 35.8038C90.995 35.9949 91.103 36.2543 91.1047 36.5254C91.1064 36.7191 91.1623 36.9083 91.2661 37.0713C91.3699 37.2343 91.5172 37.3644 91.6911 37.4465C91.865 37.5286 92.0584 37.5594 92.249 37.5353C92.4395 37.5113 92.6194 37.4333 92.7679 37.3105C93.2945 36.9009 93.8607 36.5457 94.4577 36.2503C95.9387 35.5408 97.5617 35.1849 99.201 35.2101C102.35 35.2101 104.851 36.2346 106.705 38.2835Z" fill="white"/>
<path d="M119.884 61.663C118.185 60.9528 116.697 59.8107 115.566 58.348C114.779 57.3157 114.232 56.1188 113.963 54.8451C113.936 54.6969 113.941 54.5444 113.979 54.3985C114.017 54.2527 114.086 54.1171 114.182 54.0016C114.278 53.8861 114.399 53.7935 114.534 53.7305C114.67 53.6675 114.818 53.6356 114.968 53.6372H121.081C121.301 53.6426 121.514 53.7174 121.689 53.851C121.865 53.9846 121.994 54.1704 122.059 54.3821C122.271 54.9956 122.666 55.5278 123.19 55.9054C124.01 56.5055 125.005 56.8125 126.018 56.7777C126.852 56.8289 127.682 56.6179 128.393 56.1738C128.652 56.0044 128.865 55.7717 129.011 55.4972C129.158 55.2227 129.233 54.9153 129.231 54.6035C129.233 54.2272 129.119 53.8596 128.904 53.5517C128.69 53.2439 128.385 53.0111 128.033 52.8856C126.774 52.3677 125.475 51.9548 124.148 51.6509C122.521 51.287 120.921 50.8117 119.358 50.2283C118.072 49.7287 116.929 48.9147 116.032 47.8595C115.054 46.6215 114.559 45.065 114.642 43.4842C114.631 41.9756 115.074 40.4991 115.912 39.2499C116.848 37.9047 118.145 36.8571 119.651 36.2301C121.509 35.4451 123.511 35.0654 125.525 35.1162C128.878 35.1162 131.524 35.955 133.462 37.6326C135.092 39.0395 136.199 40.9632 136.602 43.0883C136.631 43.2364 136.626 43.3891 136.589 43.5353C136.552 43.6815 136.483 43.8176 136.388 43.9337C136.293 44.0499 136.173 44.1433 136.037 44.2071C135.902 44.271 135.754 44.3037 135.604 44.3029H130.016C129.798 44.2976 129.587 44.2235 129.413 44.0911C129.239 43.9587 129.11 43.7746 129.045 43.5647C128.846 42.9771 128.48 42.4615 127.994 42.0817C127.212 41.5009 126.256 41.2094 125.286 41.2563C124.512 41.2068 123.743 41.4015 123.084 41.8133C122.839 41.9813 122.639 42.2089 122.505 42.4752C122.37 42.7414 122.303 43.0377 122.312 43.3366C122.315 43.718 122.434 44.0893 122.653 44.4002C122.872 44.7111 123.18 44.9465 123.536 45.0746C124.763 45.5954 126.041 45.9845 127.348 46.2355C128.991 46.6461 130.608 47.1547 132.191 47.7588C133.463 48.2831 134.589 49.1123 135.471 50.1746C136.469 51.4448 136.987 53.0308 136.935 54.6505C136.951 56.167 136.485 57.6489 135.604 58.8781C134.638 60.1905 133.326 61.2039 131.819 61.8039C129.999 62.5481 128.048 62.9111 126.084 62.8709C123.957 62.9052 121.846 62.4939 119.884 61.663Z" fill="white"/>
<path d="M156.886 56.496V61.4618C156.886 61.7323 156.78 61.9917 156.59 62.183C156.4 62.3743 156.143 62.4817 155.875 62.4817H152.715C149.748 62.4817 147.393 61.7503 145.769 60.2807C144.146 58.8111 143.275 56.4221 143.275 53.1004V43.397C143.276 43.2619 143.25 43.128 143.199 43.0031C143.148 42.8781 143.073 42.7645 142.979 42.669C142.884 42.5735 142.771 42.4979 142.647 42.4466C142.524 42.3954 142.391 42.3694 142.257 42.3703H141.033C140.763 42.3703 140.504 42.2621 140.313 42.0696C140.122 41.877 140.015 41.6159 140.015 41.3436V36.5254C140.015 36.3909 140.041 36.2577 140.093 36.1335C140.144 36.0093 140.219 35.8966 140.313 35.8018C140.408 35.707 140.52 35.632 140.644 35.5811C140.767 35.5303 140.899 35.5045 141.033 35.5054H142.257C142.527 35.5054 142.786 35.3972 142.977 35.2047C143.167 35.0121 143.275 34.751 143.275 34.4787V29.9558C143.274 29.8208 143.3 29.6868 143.35 29.5619C143.401 29.4369 143.476 29.3234 143.571 29.2278C143.666 29.1323 143.778 29.0567 143.902 29.0054C144.026 28.9542 144.159 28.9282 144.293 28.9291H150.453C150.587 28.9282 150.72 28.9542 150.843 29.0054C150.967 29.0567 151.08 29.1323 151.175 29.2278C151.269 29.3234 151.344 29.4369 151.395 29.5619C151.446 29.6868 151.472 29.8208 151.471 29.9558V34.4787C151.471 34.751 151.578 35.0121 151.769 35.2047C151.96 35.3972 152.219 35.5054 152.489 35.5054H155.815C155.948 35.5045 156.081 35.5303 156.204 35.5811C156.327 35.632 156.44 35.707 156.534 35.8018C156.629 35.8966 156.704 36.0093 156.755 36.1335C156.806 36.2577 156.833 36.3909 156.833 36.5254V41.3436C156.833 41.6159 156.726 41.877 156.535 42.0696C156.344 42.2621 156.085 42.3703 155.815 42.3703H152.489C152.355 42.3694 152.222 42.3954 152.098 42.4466C151.974 42.4979 151.862 42.5735 151.767 42.669C151.672 42.7645 151.597 42.8781 151.546 43.0031C151.496 43.128 151.47 43.2619 151.471 43.397V53.2011C151.441 53.5155 151.477 53.8327 151.577 54.1321C151.677 54.4315 151.838 54.7065 152.05 54.9391C152.602 55.3472 153.284 55.5359 153.966 55.4692H155.875C156.144 55.471 156.401 55.58 156.59 55.7723C156.78 55.9647 156.886 56.2248 156.886 56.496Z" fill="white"/>
<path d="M161.37 41.6455C162.308 39.6638 163.778 37.9874 165.614 36.8072C167.409 35.6781 169.487 35.0913 171.602 35.1162C173.326 35.0787 175.032 35.4778 176.565 36.2771C177.148 36.5917 177.696 36.9673 178.201 37.3977C178.35 37.5204 178.531 37.5975 178.722 37.6201C178.913 37.6427 179.107 37.6098 179.28 37.5252C179.453 37.4406 179.599 37.308 179.7 37.1427C179.801 36.9775 179.854 36.7866 179.851 36.5925V36.5254C179.851 36.2549 179.957 35.9954 180.147 35.8042C180.337 35.6129 180.594 35.5054 180.862 35.5054H187.029C187.298 35.5054 187.556 35.6127 187.746 35.8038C187.937 35.9948 188.045 36.2543 188.047 36.5254V61.4617C188.045 61.7329 187.937 61.9923 187.746 62.1834C187.556 62.3745 187.298 62.4817 187.029 62.4817H180.862C180.594 62.4817 180.337 62.3742 180.147 62.183C179.957 61.9917 179.851 61.7322 179.851 61.4617V61.3275C179.849 61.1324 179.792 60.9418 179.686 60.7788C179.579 60.6158 179.428 60.4872 179.251 60.4085C179.074 60.3299 178.878 60.3045 178.687 60.3353C178.496 60.3662 178.318 60.4521 178.174 60.5826C177.662 61.0146 177.107 61.3924 176.518 61.71C174.986 62.5088 173.279 62.9079 171.555 62.8709C169.451 62.8921 167.387 62.2951 165.614 61.153C163.774 59.9579 162.303 58.2651 161.37 56.2677C160.344 53.9694 159.813 51.4774 159.813 48.9567C159.813 46.4359 160.344 43.9439 161.37 41.6455ZM178.148 44.1083C177.548 43.4613 176.807 42.9648 175.984 42.6584C175.16 42.3519 174.277 42.2441 173.405 42.3434C172.689 42.4034 171.994 42.6113 171.362 42.9541C169.22 44.1172 168.149 46.1147 168.149 48.9466C168.057 50.7438 168.668 52.5056 169.852 53.852C170.376 54.433 171.017 54.8949 171.731 55.2073C172.446 55.5197 173.218 55.6753 173.997 55.6638C174.774 55.6758 175.545 55.5231 176.26 55.2157C176.975 54.9082 177.618 54.4527 178.148 53.8788C179.25 52.4934 179.851 50.7701 179.851 48.9936C179.851 47.217 179.25 45.4937 178.148 44.1083Z" fill="white"/>
<path d="M202.184 27.7279V61.4617C202.184 61.5962 202.157 61.7294 202.106 61.8536C202.055 61.9778 201.98 62.0905 201.885 62.1853C201.791 62.2801 201.678 62.3551 201.555 62.406C201.431 62.4569 201.299 62.4826 201.166 62.4817H195.005C194.872 62.4826 194.74 62.4569 194.616 62.406C194.493 62.3551 194.381 62.2801 194.286 62.1853C194.191 62.0905 194.116 61.9778 194.065 61.8536C194.014 61.7294 193.988 61.5962 193.988 61.4617V27.7279C193.988 27.4556 194.095 27.1944 194.286 27.0019C194.477 26.8093 194.735 26.7012 195.005 26.7012H201.172C201.441 26.7029 201.698 26.8119 201.888 27.0043C202.077 27.1966 202.184 27.4568 202.184 27.7279Z" fill="white"/>
<path d="M216.327 27.7279V61.4617C216.326 61.7329 216.218 61.9923 216.027 62.1834C215.836 62.3745 215.578 62.4817 215.309 62.4817H209.156C208.888 62.4817 208.63 62.3742 208.441 62.183C208.251 61.9917 208.145 61.7323 208.145 61.4617V27.7279C208.145 27.4568 208.251 27.1966 208.44 27.0043C208.63 26.8119 208.887 26.7029 209.156 26.7012H215.323C215.59 26.7064 215.844 26.8167 216.032 27.0085C216.22 27.2003 216.326 27.4584 216.327 27.7279Z" fill="white"/>
<path d="M248.992 36.9079L233.105 74.6747C233.026 74.8596 232.895 75.0172 232.728 75.128C232.562 75.2389 232.367 75.2983 232.167 75.2988H225.594C225.424 75.2977 225.258 75.2541 225.109 75.1718C224.96 75.0895 224.833 74.9712 224.741 74.8274C224.649 74.6837 224.593 74.5191 224.58 74.3483C224.566 74.1776 224.595 74.0061 224.663 73.8493L229.985 61.9717C230.041 61.8426 230.07 61.7032 230.07 61.5623C230.07 61.4214 230.041 61.2821 229.985 61.153L219.84 36.9079C219.775 36.7519 219.75 36.5823 219.766 36.414C219.782 36.2458 219.839 36.0841 219.931 35.9433C220.024 35.8026 220.15 35.6872 220.298 35.6072C220.445 35.5273 220.61 35.4854 220.778 35.4852H227.696C227.904 35.486 228.106 35.5506 228.276 35.6705C228.446 35.7905 228.576 35.96 228.648 36.1563L233.631 49.7518C233.703 49.9486 233.833 50.1183 234.004 50.2382C234.174 50.3581 234.377 50.4224 234.585 50.4224C234.793 50.4224 234.996 50.3581 235.167 50.2382C235.338 50.1183 235.468 49.9486 235.54 49.7518L240.476 36.163C240.549 35.9661 240.68 35.7964 240.851 35.6765C241.022 35.5566 241.226 35.4922 241.434 35.4919H248.087C248.251 35.4979 248.411 35.5438 248.553 35.6256C248.696 35.7073 248.817 35.8227 248.905 35.9617C248.994 36.1008 249.049 36.2594 249.064 36.4241C249.078 36.5889 249.054 36.7548 248.992 36.9079Z" fill="white"/>
</g>
</svg>