<svg width="194" height="46" viewBox="0 0 194 46" fill="none" xmlns="http://www.w3.org/2000/svg">
<path d="M8.61768 6.63911C10.2274 6.94788 11.6311 8.60305 12.1926 10.8542C12.2778 8.53483 13.3119 6.61756 14.8222 5.97847C13.2124 5.6697 11.8088 4.01453 11.2437 1.75977C11.1585 4.08275 10.1279 5.99643 8.61768 6.63911Z" fill="#7251B5"/>
<path d="M20.6394 30.4185C20.6113 30.4478 20.5852 30.479 20.5613 30.5118L20.7176 30.4005C20.8381 30.3094 20.9295 30.1845 20.9806 30.0415L20.6394 30.4185Z" fill="#7251B5"/>
<path d="M26.627 17.7298C26.0193 17.6364 25.4011 17.6364 24.7934 17.7298C23.8666 17.8752 22.9839 18.2285 22.21 18.7638L21.8831 19.0044L16.0446 23.5785C15.5834 23.4128 15.1764 23.1217 14.8684 22.7374C14.5603 22.353 14.3631 21.8903 14.2985 21.4C14.2338 20.9098 14.3042 20.411 14.5019 19.9586C14.6997 19.5062 15.017 19.1176 15.4192 18.8356L19.2677 16.1357C19.8144 15.7497 20.4279 15.4708 21.0764 15.3135C21.7515 15.1532 22.4524 15.1373 23.1339 15.2668C23.8525 15.4126 24.5335 15.7066 25.1346 16.1304C25.7356 16.5542 26.2437 17.0987 26.627 17.7298Z" fill="#7251B5"/>
<path d="M29.9746 21.2915C29.7933 21.2448 29.6192 21.2089 29.4202 21.1802C28.8179 21.0931 28.2037 21.154 27.6296 21.3577C27.0556 21.5615 26.5386 21.9021 26.1225 22.3506L19.5734 29.4093L19.1185 29.7361C18.8095 29.9596 18.4415 30.0848 18.0617 30.0957C17.6818 30.1066 17.3074 30.0026 16.9864 29.7971C16.5903 29.5303 16.2628 29.1722 16.0309 28.7522C15.799 28.3322 15.6694 27.8625 15.6527 27.3819C15.6361 26.9013 15.7328 26.4235 15.9351 25.9882C16.1373 25.5528 16.4392 25.1724 16.8158 24.8783L19.8008 22.5409L22.8213 20.1713C22.9066 20.1066 22.9883 20.042 23.0771 19.9846C23.8715 19.4308 24.8127 19.1317 25.7778 19.1265C26.0658 19.126 26.3534 19.1488 26.6378 19.1947C26.7337 19.2126 26.8332 19.2306 26.9292 19.2557C28.1525 19.5447 29.2329 20.2669 29.9746 21.2915Z" fill="#7251B5"/>
<path d="M20.9806 30.0522C20.9295 30.1953 20.8381 30.3201 20.7176 30.4113L20.5613 30.5226C20.5852 30.4897 20.6113 30.4585 20.6394 30.4292L20.9806 30.0522Z" fill="#7251B5"/>
<path d="M32.9629 29.8436C32.9131 29.9837 32.8563 30.1201 32.7923 30.2601C32.7906 30.266 32.7906 30.2722 32.7923 30.2781L32.6075 30.6766L31.7369 32.5652C29.6763 37.0565 25.9872 40.5768 21.4317 42.3992C20.0871 42.9445 18.6273 43.1347 17.1898 42.9519C15.7524 42.7691 14.3848 42.2193 13.2159 41.3544L8.5039 37.8825C6.06046 36.0855 4.28976 33.507 3.4792 30.5653C2.45747 26.8341 2.28016 22.9183 2.96039 19.1084C3.0214 18.6827 3.05109 18.2531 3.04923 17.823C3.08708 15.586 2.72597 13.3604 1.98317 11.2526L0.142421 5.9927C0.0392306 5.81634 -0.00977225 5.61298 0.00161585 5.40842C0.013004 5.20387 0.0842888 5.00734 0.206404 4.84378C0.313519 4.70488 0.452024 4.59393 0.610298 4.52022C0.768571 4.44651 0.941985 4.41218 1.11609 4.42011C1.8462 4.43246 2.56347 4.61635 3.21108 4.95722C3.85869 5.2981 4.41887 5.7866 4.8473 6.38406C6.22309 8.30472 7.18214 10.4972 7.66171 12.818L7.76478 13.3207C7.84141 13.7168 8.00338 14.091 8.23921 14.4168C8.47503 14.7425 8.77892 15.0119 9.12933 15.2056C9.64521 15.486 10.2382 15.5866 10.8164 15.4919C11.3947 15.3971 11.9258 15.1122 12.3275 14.6814L24.4628 1.63397C24.6765 1.40399 24.9383 1.22503 25.229 1.11013C25.5198 0.995229 25.8322 0.947272 26.1437 0.96975L26.8863 1.02361C27.2567 1.05045 27.6134 1.17586 27.9203 1.3871C28.2272 1.59834 28.4732 1.88789 28.6335 2.22631C28.7937 2.56474 28.8625 2.94 28.8328 3.31396C28.803 3.68792 28.6758 4.04727 28.4641 4.35549L22.0073 13.7336C21.588 13.7453 21.1711 13.8019 20.7636 13.9023C19.9387 14.1038 19.158 14.4581 18.4609 14.9471L14.616 17.6435C14.0385 18.047 13.5727 18.5929 13.2626 19.2293C12.9525 19.8657 12.8084 20.5716 12.844 21.28C12.8796 21.9885 13.0937 22.676 13.466 23.2774C13.8383 23.8788 14.3564 24.3742 14.9713 24.7166C14.6299 25.2101 14.3898 25.7677 14.2652 26.3566C14.1406 26.9454 14.1342 27.5535 14.2461 28.1449C14.3581 28.7363 14.5862 29.2991 14.9171 29.7999C15.248 30.3007 15.6748 30.7295 16.1724 31.0608C16.7093 31.4143 17.3368 31.6015 17.9776 31.5994C18.2166 31.5978 18.4548 31.5714 18.6883 31.5204C18.6667 31.9679 18.7352 32.4152 18.8897 32.8352C19.0442 33.2551 19.2814 33.6391 19.5871 33.9637C19.8928 34.2883 20.2604 34.5468 20.6679 34.7236C21.0754 34.9004 21.5141 34.9918 21.9576 34.9923C22.2132 34.9983 22.4685 34.973 22.718 34.9169C23.9132 34.6371 25.0629 34.1874 26.133 33.5812L29.285 31.7861C29.4066 31.714 29.505 31.6077 29.5681 31.4803C29.6312 31.3528 29.6563 31.2096 29.6403 31.068C29.6222 30.936 29.5681 30.8116 29.484 30.7089C29.3694 30.5721 29.2107 30.4805 29.0358 30.4503C28.8609 30.4201 28.6811 30.4532 28.5281 30.5438L25.4045 32.3174C24.4513 32.851 23.4267 33.2428 22.3627 33.4807C21.9931 33.5682 21.6057 33.5362 21.2551 33.3893C20.9044 33.2424 20.6083 32.988 20.4085 32.6619C20.2086 32.3358 20.1152 31.9546 20.1413 31.572C20.1674 31.1894 20.3117 30.8247 20.554 30.5294L20.7103 30.4181C20.8307 30.3269 20.9222 30.2021 20.9732 30.0591L22.4586 28.4542L27.1813 23.3666C27.4382 23.0929 27.7559 22.885 28.1081 22.7601C28.4604 22.6352 28.837 22.597 29.2068 22.6485C29.7919 22.7303 30.3556 22.9267 30.8663 23.2266C31.5401 23.6227 32.1036 24.1847 32.5045 24.8602C32.9463 25.6028 33.217 26.4364 33.2963 27.2991C33.3757 28.1618 33.2617 29.0315 32.9629 29.8436Z" fill="#7251B5"/>
<path d="M20.9806 30.0522C20.9295 30.1953 20.8381 30.3201 20.7176 30.4113L20.5613 30.5226C20.5852 30.4897 20.6113 30.4585 20.6394 30.4292L20.9806 30.0522Z" fill="#7251B5"/>
<path d="M59.0674 9.85161V34.9018C59.0674 35.115 58.9835 35.3196 58.8342 35.4704C58.685 35.6213 58.4825 35.706 58.2714 35.706H53.4386C53.2275 35.706 53.025 35.6213 52.8757 35.4704C52.7265 35.3196 52.6426 35.115 52.6426 34.9018V9.85161C52.6426 9.63831 52.7265 9.43375 52.8757 9.28292C53.025 9.1321 53.2275 9.04736 53.4386 9.04736H58.2714C58.4825 9.04736 58.685 9.1321 58.8342 9.28292C58.9835 9.43375 59.0674 9.63831 59.0674 9.85161Z" fill="white"/>
<path d="M82.3891 16.6982C83.8532 18.3067 84.5864 20.516 84.5887 23.3261V34.9015C84.5887 35.1148 84.5049 35.3194 84.3556 35.4702C84.2063 35.621 84.0039 35.7058 83.7927 35.7058H78.9955C78.7844 35.7058 78.5819 35.621 78.4326 35.4702C78.2834 35.3194 78.1995 35.1148 78.1995 34.9015V24.1986C78.1995 22.7792 77.8359 21.6781 77.1086 20.8954C76.3166 20.1379 75.2675 19.7157 74.1769 19.7157C73.0863 19.7157 72.0372 20.1379 71.2452 20.8954C70.5203 21.6805 70.1578 22.7816 70.1578 24.1986V34.9015C70.1578 35.0074 70.1371 35.1123 70.0969 35.2101C70.0567 35.3079 69.9977 35.3967 69.9234 35.4715C69.8491 35.5462 69.761 35.6054 69.664 35.6456C69.567 35.6858 69.4631 35.7062 69.3583 35.7058H64.5255C64.3144 35.7058 64.1119 35.621 63.9626 35.4702C63.8133 35.3194 63.7295 35.1148 63.7295 34.9015V15.3195C63.7295 15.1062 63.8133 14.9017 63.9626 14.7509C64.1119 14.6 64.3144 14.5153 64.5255 14.5153H69.3583C69.5697 14.5153 69.7726 14.5999 69.9224 14.7506C70.0723 14.9014 70.1569 15.1059 70.1578 15.3195C70.1581 15.4721 70.2013 15.6215 70.2825 15.7501C70.3636 15.8788 70.4793 15.9815 70.616 16.0463C70.7528 16.111 70.9049 16.1351 71.0547 16.1158C71.2045 16.0965 71.3458 16.0345 71.462 15.9371C71.8734 15.6129 72.3177 15.3337 72.7875 15.1041C73.9494 14.5479 75.2224 14.269 76.508 14.2891C78.9647 14.2891 80.9251 15.0921 82.3891 16.6982Z" fill="white"/>
<path d="M92.7227 35.0597C91.3923 34.502 90.227 33.6066 89.3398 32.4602C88.7237 31.6478 88.294 30.7072 88.0818 29.7064C88.0597 29.59 88.0635 29.4701 88.0928 29.3553C88.1222 29.2405 88.1764 29.1338 88.2515 29.0428C88.3266 28.9517 88.4208 28.8787 88.5273 28.8289C88.6338 28.7791 88.7499 28.7539 88.8672 28.7549H93.6609C93.8338 28.7593 94.0009 28.8186 94.1387 28.9242C94.2764 29.0299 94.3778 29.1767 94.4285 29.3438C94.5971 29.8254 94.907 30.2437 95.3168 30.5429C95.9616 31.0106 96.741 31.2504 97.5342 31.2251C98.1874 31.2657 98.8369 31.1 99.3927 30.7512C99.5983 30.6197 99.7671 30.4371 99.8828 30.2208C99.9985 30.0046 100.057 29.7619 100.054 29.5161C100.053 29.2205 99.9626 28.9323 99.7941 28.6907C99.6256 28.449 99.3874 28.2659 99.112 28.1661C98.1257 27.7612 97.1084 27.4381 96.0702 27.2003C94.7932 26.9137 93.5371 26.5394 92.3105 26.0801C91.3075 25.6854 90.4165 25.0465 89.7165 24.2203C88.9868 23.3682 88.6231 22.2216 88.6255 20.7807C88.6174 19.597 88.9657 18.4387 89.6241 17.4596C90.3565 16.4015 91.374 15.5778 92.5557 15.0863C94.0174 14.4692 95.5918 14.1719 97.1753 14.2139C99.8073 14.2139 101.881 14.8721 103.398 16.1886C104.676 17.293 105.545 18.8032 105.864 20.4719C105.886 20.5885 105.882 20.7086 105.853 20.8235C105.823 20.9384 105.769 21.0454 105.694 21.1367C105.619 21.228 105.525 21.3013 105.418 21.3515C105.312 21.4017 105.196 21.4275 105.078 21.427H100.7C100.529 21.4242 100.363 21.3668 100.226 21.263C100.089 21.1592 99.9873 21.0143 99.9364 20.8489C99.7785 20.3879 99.4922 19.9827 99.112 19.682C98.4958 19.2256 97.743 18.9974 96.9799 19.0358C96.3737 18.9984 95.7709 19.15 95.2529 19.4702C95.0613 19.6032 94.9058 19.7827 94.8009 19.9922C94.696 20.2018 94.6449 20.4346 94.6523 20.6694C94.6535 20.9609 94.7412 21.2453 94.904 21.4859C95.0668 21.7266 95.2972 21.9124 95.5656 22.0194C96.5279 22.4268 97.5294 22.7325 98.5541 22.9313C99.8418 23.2526 101.109 23.6518 102.349 24.1269C103.349 24.5373 104.234 25.1895 104.926 26.0262C105.665 26.8999 106.046 28.0716 106.07 29.5412C106.085 30.7315 105.723 31.8954 105.036 32.8623C104.278 33.8925 103.25 34.6883 102.069 35.1602C100.649 35.7498 99.1258 36.0429 97.5911 36.0219C95.9199 36.0448 94.2622 35.7172 92.7227 35.0597Z" fill="white"/>
<path d="M121.72 30.9952V34.8944C121.72 35.1077 121.636 35.3122 121.487 35.4631C121.337 35.6139 121.135 35.6986 120.924 35.6986H118.436C116.105 35.6986 114.288 35.123 112.985 33.9716C111.682 32.8203 111.031 30.9401 111.031 28.3311V20.7123C111.031 20.499 110.947 20.2945 110.797 20.1437C110.648 19.9928 110.446 19.9081 110.235 19.9081H109.272C109.06 19.9081 108.858 19.8234 108.709 19.6725C108.559 19.5217 108.476 19.3171 108.476 19.1038V15.3196C108.477 15.1066 108.561 14.9025 108.71 14.7519C108.859 14.6013 109.061 14.5163 109.272 14.5153H110.235C110.339 14.5153 110.443 14.4945 110.539 14.4541C110.636 14.4137 110.724 14.3544 110.797 14.2798C110.871 14.2051 110.93 14.1164 110.97 14.0188C111.01 13.9213 111.031 13.8167 111.031 13.7111V10.171C111.031 10.065 111.051 9.96016 111.092 9.86235C111.132 9.76454 111.191 9.67572 111.265 9.601C111.339 9.52627 111.427 9.4671 111.524 9.42689C111.621 9.38669 111.725 9.36623 111.83 9.36671H116.663C116.874 9.36671 117.077 9.45144 117.226 9.60227C117.375 9.75309 117.459 9.95766 117.459 10.171V13.7254C117.459 13.9387 117.543 14.1433 117.692 14.2941C117.841 14.445 118.044 14.5297 118.255 14.5297H120.87C121.082 14.5297 121.285 14.6143 121.434 14.765C121.584 14.9157 121.669 15.1203 121.67 15.3339V19.1182C121.67 19.2241 121.649 19.329 121.609 19.4268C121.569 19.5246 121.51 19.6134 121.435 19.6882C121.361 19.7629 121.273 19.8221 121.176 19.8623C121.079 19.9025 120.975 19.9229 120.87 19.9225H118.255C118.044 19.9225 117.841 20.0072 117.692 20.158C117.543 20.3088 117.459 20.5134 117.459 20.7267V28.4281C117.435 28.6753 117.463 28.9248 117.541 29.1605C117.619 29.3961 117.744 29.6126 117.91 29.796C118.212 30.0761 118.71 30.2125 119.413 30.2125H120.909C121.119 30.2086 121.322 30.2887 121.474 30.4353C121.626 30.5819 121.714 30.7832 121.72 30.9952Z" fill="white"/>
<path d="M125.234 19.3374C125.969 17.7827 127.122 16.4678 128.56 15.5423C129.968 14.6546 131.599 14.1935 133.258 14.2139C134.616 14.1801 135.96 14.4925 137.167 15.1223C137.624 15.3708 138.054 15.6668 138.45 16.0055C138.567 16.1008 138.708 16.1606 138.858 16.1778C139.007 16.1951 139.158 16.169 139.293 16.1028C139.428 16.0365 139.542 15.9328 139.621 15.8037C139.7 15.6746 139.741 15.5254 139.74 15.3736V15.3197C139.741 15.1067 139.825 14.9027 139.974 14.7521C140.123 14.6015 140.325 14.5164 140.536 14.5155H145.372C145.583 14.5164 145.785 14.6015 145.934 14.7521C146.083 14.9027 146.167 15.1067 146.168 15.3197V34.9017C146.168 35.115 146.084 35.3196 145.935 35.4704C145.786 35.6212 145.583 35.706 145.372 35.706H140.518C140.307 35.706 140.104 35.6212 139.955 35.4704C139.806 35.3196 139.722 35.115 139.722 34.9017V34.8012C139.722 34.6478 139.678 34.4977 139.595 34.3691C139.512 34.2405 139.394 34.1389 139.256 34.0765C139.117 34.0142 138.963 33.9939 138.813 34.018C138.663 34.0421 138.524 34.1096 138.411 34.2124C138.008 34.5515 137.572 34.8486 137.11 35.0992C135.904 35.73 134.559 36.0437 133.201 36.0111C131.552 36.0258 129.934 35.5569 128.543 34.6612C127.102 33.7212 125.95 32.3931 125.216 30.8266C124.411 29.0209 123.994 27.0628 123.994 25.082C123.994 23.1013 124.411 21.1431 125.216 19.3374H125.234ZM138.382 21.2762C137.913 20.7671 137.332 20.3764 136.685 20.1357C136.039 19.895 135.346 19.8109 134.662 19.8903C134.101 19.9367 133.555 20.0992 133.059 20.3678C131.382 21.2798 130.544 22.8476 130.547 25.0712C130.547 26.6941 130.991 27.9794 131.879 28.9273C132.296 29.3759 132.799 29.7339 133.358 29.9791C133.916 30.2243 134.518 30.3516 135.127 30.3533C135.736 30.355 136.339 30.231 136.899 29.9888C137.458 29.7467 137.963 29.3916 138.382 28.9453C139.271 28.0118 139.715 26.73 139.715 25.1107C139.715 23.4915 139.274 22.2133 138.389 21.2762H138.382Z" fill="white"/>
<path d="M157.237 8.40825V34.9017C157.237 35.0076 157.217 35.1125 157.177 35.2103C157.136 35.3081 157.077 35.397 157.003 35.4717C156.929 35.5464 156.841 35.6056 156.744 35.6458C156.647 35.686 156.543 35.7064 156.438 35.706H151.605C151.394 35.706 151.192 35.6212 151.042 35.4704C150.893 35.3196 150.809 35.115 150.809 34.9017V8.40825C150.809 8.19495 150.893 7.99039 151.042 7.83956C151.192 7.68874 151.394 7.604 151.605 7.604H156.438C156.649 7.604 156.852 7.68862 157.002 7.83934C157.152 7.99007 157.237 8.19462 157.237 8.40825Z" fill="white"/>
<path d="M168.324 8.40825V34.9017C168.324 35.115 168.24 35.3196 168.091 35.4704C167.942 35.6212 167.739 35.706 167.528 35.706H162.692C162.481 35.706 162.278 35.6212 162.129 35.4704C161.98 35.3196 161.896 35.115 161.896 34.9017V8.40825C161.896 8.19495 161.98 7.99039 162.129 7.83956C162.278 7.68874 162.481 7.604 162.692 7.604H167.528C167.739 7.60495 167.941 7.68998 168.09 7.8406C168.239 7.99123 168.323 8.19524 168.324 8.40825Z" fill="white"/>
<path d="M193.934 15.6357L181.458 45.2779C181.397 45.4232 181.295 45.5472 181.165 45.6346C181.035 45.7221 180.882 45.7691 180.726 45.7698H175.57C175.436 45.7696 175.305 45.7357 175.188 45.6713C175.071 45.6068 174.972 45.5138 174.9 45.4007C174.827 45.2875 174.784 45.1579 174.774 45.0236C174.764 44.8893 174.787 44.7546 174.841 44.6317L179.003 35.2966C179.046 35.1953 179.069 35.0859 179.069 34.9753C179.069 34.8647 179.046 34.7553 179.003 34.654L171.071 15.6249C171.02 15.5028 171 15.3698 171.012 15.2378C171.024 15.1058 171.068 14.9789 171.141 14.8684C171.213 14.7579 171.312 14.6672 171.427 14.6044C171.543 14.5415 171.672 14.5085 171.803 14.5083H177.229C177.392 14.5096 177.55 14.5607 177.684 14.655C177.817 14.7492 177.919 14.8821 177.976 15.0361L181.884 25.7139C181.94 25.869 182.042 26.003 182.176 26.0977C182.31 26.1924 182.469 26.2432 182.632 26.2432C182.796 26.2432 182.955 26.1924 183.089 26.0977C183.223 26.003 183.325 25.869 183.38 25.7139L187.254 15.0397C187.31 14.8851 187.411 14.7517 187.545 14.6573C187.678 14.5629 187.837 14.5121 188 14.5119H193.195C193.328 14.5104 193.459 14.5425 193.576 14.6052C193.694 14.6679 193.794 14.7593 193.867 14.871C193.94 14.9826 193.985 15.1111 193.997 15.2447C194.009 15.3782 193.987 15.5126 193.934 15.6357Z" fill="white"/>
</svg>